M48
;Layer_Color=9474304
;FILE_FORMAT=2:5
INCH,LZ
;TYPE=PLATED
T1F00S00C0.01181
T2F00S00C0.02756
T3F00S00C0.02800
T4F00S00C0.02953
T5F00S00C0.03000
T6F00S00C0.03543
T7F00S00C0.03937
T8F00S00C0.05512
T10F00S00C0.09449
T11F00S00C0.17717
%
T01
X0319786Y0260053
X0337882Y0260433
X0369169Y0271846
X0387118Y027185
X0401803Y0272441
X0430658Y0266475
X0449299Y0253346
X0449693Y0283661
X0379961Y0303623
Y0309992
X0296543Y0261221
X0269311Y0262402
X0376858Y0313189
X0379661Y032259
X0380402Y0338386
X0395504Y0352811
X0398654Y0357677
X0401803Y0368843
X0412291Y0390354
X0458661Y0392913
X0450874Y0350197
X0449299Y0319882
X041859Y0317913
Y0330906
X040363
X0404024Y0317913
X0363472Y0367913
X0350087
X0356386Y0379724
X0365835
X0359929Y0388386
X0352449
X05Y0391339
X0533157Y0391142
T02
X04925Y0253
Y0273
Y0289167
Y0309167
X05125Y0309167
X05225
X05325Y0309167
Y0289167
X05225
X05125Y0289167
Y0273
X05225
X05325Y0273
Y0253
X05225
X05125Y0253
Y0325333
X05225Y0325333
X05325
Y0345333
X05225Y0345333
X05125
Y03615
X05225Y03615
X05325
Y03815
X05225Y03815
X05125
X04925Y03815
Y03615
Y0345333
Y0325333
T03
X0281661Y0310039
X0300874
T04
X0342905Y0314937
T05
X035078Y0314937
X0358653
Y0334622
X035078
X0342905
T06
X0472441Y0239764
X0482441
X0492441
X0502441
X0512441
X0522441
X0462441
X0423386Y027622
X0413386
Y0286221
X0423386
X0269Y0375189
Y0387
X0426378Y0381102
Y0371102
X0436378
Y0361102
X0426378Y0361102
X0436378Y0381102
T07
X0243524Y0252165
Y0262205
Y0270079
Y0279921
X0268984Y0338779
Y035059
X0301189Y0339
X0313
T08
X0488Y02085
X0508
X0528
X0548
X05725Y0244
Y0264
X05725Y0284
Y0304
X0468Y02085
X0448
X0428
X0408
X0388
X0368
X0348
X0328
X0308
X0288
X0268
X0248
X0226Y037
Y039
X02485Y0425
X02685
X02885
X03085
X03285
X03485
X03685
X03885
X04085
X04285
X04485
X04685
X04885
X05085
X05285Y0425
X05485
X05725Y0384
Y0364
X05725Y0344
Y0324
T10
X0232854Y0240276
Y0292008
T11
X0588669Y0192717
X0210717
Y0440748
X0588669
M30
