%FSLAX25Y25*%
%MOIN*%
G70*
G01*
G75*
%ADD10R,0.05512X0.04724*%
%ADD11R,0.04921X0.03543*%
%ADD12R,0.33465X0.42126*%
%ADD13R,0.12205X0.04331*%
%ADD14R,0.05906X0.03937*%
%ADD15R,0.05906X0.05906*%
%ADD16R,0.01969X0.07874*%
%ADD17O,0.01969X0.07874*%
%ADD18R,0.03937X0.05906*%
%ADD19R,0.04724X0.05512*%
%ADD20R,0.01969X0.06890*%
%ADD21O,0.01969X0.06890*%
%ADD22O,0.06890X0.01969*%
%ADD23C,0.03937*%
%ADD24C,0.01969*%
%ADD25C,0.01000*%
%ADD26C,0.02362*%
%ADD27C,0.03150*%
%ADD28C,0.01575*%
%ADD29C,0.11811*%
%ADD30C,0.05906*%
%ADD31C,0.06693*%
%ADD32R,0.07087X0.07087*%
%ADD33C,0.07874*%
%ADD34R,0.07087X0.07087*%
%ADD35C,0.07480*%
%ADD36R,0.06693X0.06693*%
%ADD37C,0.10630*%
%ADD38R,0.09843X0.09843*%
%ADD39R,0.09843X0.09843*%
%ADD40C,0.17716*%
%ADD41C,0.04724*%
%ADD42R,0.04724X0.04724*%
G04:AMPARAMS|DCode=43|XSize=98.43mil|YSize=118.11mil|CornerRadius=24.61mil|HoleSize=0mil|Usage=FLASHONLY|Rotation=90.000|XOffset=0mil|YOffset=0mil|HoleType=Round|Shape=RoundedRectangle|*
%AMROUNDEDRECTD43*
21,1,0.09843,0.06890,0,0,90.0*
21,1,0.04921,0.11811,0,0,90.0*
1,1,0.04921,0.03445,0.02461*
1,1,0.04921,0.03445,-0.02461*
1,1,0.04921,-0.03445,-0.02461*
1,1,0.04921,-0.03445,0.02461*
%
%ADD43ROUNDEDRECTD43*%
%ADD44R,0.11811X0.09843*%
%ADD45C,0.04724*%
%ADD46R,0.04724X0.04724*%
%ADD47C,0.06200*%
%ADD48R,0.05906X0.05906*%
%ADD49C,0.01969*%
%ADD50C,0.02362*%
%ADD51R,0.02362X0.05906*%
%ADD52R,0.04724X0.03937*%
%ADD53R,0.04724X0.03543*%
%ADD54R,0.05118X0.03543*%
%ADD55C,0.00787*%
%ADD56C,0.00394*%
%ADD57C,0.00400*%
%ADD58C,0.00500*%
%ADD59C,0.01200*%
%ADD60C,0.00591*%
%ADD61C,0.00600*%
%ADD62C,0.00236*%
%ADD63C,0.00984*%
%ADD64R,0.06312X0.05524*%
%ADD65R,0.05721X0.04343*%
%ADD66R,0.34265X0.42926*%
%ADD67R,0.13005X0.05131*%
%ADD68R,0.06706X0.04737*%
%ADD69R,0.06706X0.06706*%
%ADD70R,0.02769X0.08674*%
%ADD71O,0.02769X0.08674*%
%ADD72R,0.04737X0.06706*%
%ADD73R,0.05524X0.06312*%
%ADD74R,0.02769X0.07690*%
%ADD75O,0.02769X0.07690*%
%ADD76O,0.07690X0.02769*%
%ADD77C,0.12611*%
%ADD78C,0.06706*%
%ADD79C,0.07493*%
%ADD80R,0.07887X0.07887*%
%ADD81C,0.08674*%
%ADD82R,0.07887X0.07887*%
%ADD83C,0.08280*%
%ADD84R,0.07493X0.07493*%
%ADD85C,0.11430*%
%ADD86R,0.10642X0.10642*%
%ADD87R,0.10642X0.10642*%
%ADD88C,0.18517*%
%ADD89C,0.05524*%
%ADD90R,0.05524X0.05524*%
G04:AMPARAMS|DCode=91|XSize=106.42mil|YSize=126.11mil|CornerRadius=26.61mil|HoleSize=0mil|Usage=FLASHONLY|Rotation=90.000|XOffset=0mil|YOffset=0mil|HoleType=Round|Shape=RoundedRectangle|*
%AMROUNDEDRECTD91*
21,1,0.10642,0.07290,0,0,90.0*
21,1,0.05321,0.12611,0,0,90.0*
1,1,0.05321,0.03645,0.02661*
1,1,0.05321,0.03645,-0.02661*
1,1,0.05321,-0.03645,-0.02661*
1,1,0.05321,-0.03645,0.02661*
%
%ADD91ROUNDEDRECTD91*%
%ADD92R,0.12611X0.10642*%
%ADD93C,0.05524*%
%ADD94R,0.05524X0.05524*%
%ADD95C,0.07000*%
%ADD96R,0.06706X0.06706*%
%ADD97C,0.02769*%
%ADD98C,0.03162*%
%ADD99R,0.03162X0.06706*%
%ADD100R,0.05524X0.04737*%
%ADD101R,0.05524X0.04343*%
%ADD102R,0.05918X0.04343*%
D10*
X454969Y371894D02*
D03*
Y379768D02*
D03*
Y354894D02*
D03*
Y362768D02*
D03*
Y337894D02*
D03*
Y345768D02*
D03*
X454969Y320894D02*
D03*
Y328768D02*
D03*
X454969Y286894D02*
D03*
Y294768D02*
D03*
Y303894D02*
D03*
Y311768D02*
D03*
Y277728D02*
D03*
Y269854D02*
D03*
X454969Y252894D02*
D03*
Y260768D02*
D03*
D15*
X243524Y279921D02*
D03*
X413386Y286221D02*
D03*
X426378Y381102D02*
D03*
D19*
X251539Y396213D02*
D03*
X243665D02*
D03*
X291806D02*
D03*
X283932D02*
D03*
X372339Y395425D02*
D03*
X364465D02*
D03*
X412836Y395819D02*
D03*
X404962D02*
D03*
X452728Y396213D02*
D03*
X444854D02*
D03*
X493407D02*
D03*
X485533D02*
D03*
X533693D02*
D03*
X525819D02*
D03*
X324159Y395499D02*
D03*
X332033D02*
D03*
X281500Y231000D02*
D03*
X273626D02*
D03*
X304357D02*
D03*
X296483D02*
D03*
X327214D02*
D03*
X319340D02*
D03*
X372929D02*
D03*
X365054D02*
D03*
X395786D02*
D03*
X387912D02*
D03*
X418643D02*
D03*
X410769D02*
D03*
X350071D02*
D03*
X342197D02*
D03*
X441500D02*
D03*
X433626D02*
D03*
X243626Y406500D02*
D03*
X251500D02*
D03*
X263759D02*
D03*
X271633D02*
D03*
X304026D02*
D03*
X311900D02*
D03*
X283893D02*
D03*
X291767D02*
D03*
X344293D02*
D03*
X352167D02*
D03*
X324159D02*
D03*
X332033D02*
D03*
X384559D02*
D03*
X392433D02*
D03*
X364426D02*
D03*
X372300D02*
D03*
X424826D02*
D03*
X432700D02*
D03*
X404693D02*
D03*
X412567Y406500D02*
D03*
X444959Y406500D02*
D03*
X452833D02*
D03*
X465093D02*
D03*
X472967D02*
D03*
X485226D02*
D03*
X493100D02*
D03*
X505359D02*
D03*
X513233D02*
D03*
X545626D02*
D03*
X553500D02*
D03*
X525493D02*
D03*
X533367D02*
D03*
D29*
X232854Y240276D02*
D03*
Y292008D02*
D03*
D30*
X243524Y262205D02*
D03*
Y270079D02*
D03*
X423386Y276220D02*
D03*
X413386D02*
D03*
X423386Y286221D02*
D03*
X436378Y361102D02*
D03*
X426378Y361102D02*
D03*
X436378Y371102D02*
D03*
X426378D02*
D03*
X436378Y381102D02*
D03*
X462441Y239764D02*
D03*
X472441D02*
D03*
X482441D02*
D03*
X492441D02*
D03*
X512441D02*
D03*
X502441D02*
D03*
D31*
X243524Y252165D02*
D03*
D32*
X268984Y338779D02*
D03*
D33*
Y350590D02*
D03*
X301189Y339000D02*
D03*
D34*
X313000D02*
D03*
D35*
X269000Y375189D02*
D03*
D36*
Y387000D02*
D03*
D37*
X528500Y425000D02*
D03*
X488500Y425000D02*
D03*
X448500D02*
D03*
X408500D02*
D03*
X368500D02*
D03*
X328500D02*
D03*
X288500D02*
D03*
X248500D02*
D03*
X226000Y370000D02*
D03*
X268000Y208500D02*
D03*
X308000D02*
D03*
X348000D02*
D03*
X388000D02*
D03*
X428000D02*
D03*
X468000D02*
D03*
X508000D02*
D03*
X548000D02*
D03*
X572500Y264000D02*
D03*
X572500Y304000D02*
D03*
Y344000D02*
D03*
X572500Y384000D02*
D03*
D38*
X548500Y425000D02*
D03*
X508500Y425000D02*
D03*
X468500D02*
D03*
X428500D02*
D03*
X388500D02*
D03*
X348500D02*
D03*
X308500D02*
D03*
X268500D02*
D03*
X248000Y208500D02*
D03*
X288000D02*
D03*
X328000D02*
D03*
X368000D02*
D03*
X408000D02*
D03*
X448000D02*
D03*
X488000D02*
D03*
X528000D02*
D03*
D39*
X226000Y390000D02*
D03*
X572500Y244000D02*
D03*
X572500Y284000D02*
D03*
Y324000D02*
D03*
X572500Y364000D02*
D03*
D40*
X210717Y440748D02*
D03*
X588669D02*
D03*
Y192717D02*
D03*
X210717D02*
D03*
D41*
X342905Y334622D02*
D03*
X350780Y314937D02*
D03*
Y334622D02*
D03*
X358653Y314937D02*
D03*
Y334622D02*
D03*
D42*
X342905Y314937D02*
D03*
D43*
X218913Y348008D02*
D03*
Y329504D02*
D03*
D44*
Y311000D02*
D03*
D45*
X532500Y273000D02*
D03*
Y253000D02*
D03*
X522500D02*
D03*
Y273000D02*
D03*
X492500Y273000D02*
D03*
X512500Y253000D02*
D03*
Y273000D02*
D03*
X532500Y381500D02*
D03*
Y361500D02*
D03*
X522500D02*
D03*
Y381500D02*
D03*
X492500Y381500D02*
D03*
X512500Y361500D02*
D03*
Y381500D02*
D03*
X532500Y309167D02*
D03*
Y289167D02*
D03*
X522500D02*
D03*
Y309167D02*
D03*
X492500Y309167D02*
D03*
X512500Y289167D02*
D03*
Y309167D02*
D03*
X532500Y345333D02*
D03*
Y325333D02*
D03*
X522500D02*
D03*
Y345333D02*
D03*
X492500Y345333D02*
D03*
X512500Y325333D02*
D03*
Y345333D02*
D03*
D46*
X492500Y253000D02*
D03*
Y361500D02*
D03*
Y289167D02*
D03*
Y325333D02*
D03*
D47*
X300874Y310039D02*
D03*
X281661D02*
D03*
D48*
X522441Y239764D02*
D03*
D51*
X366071Y241000D02*
D03*
X356071D02*
D03*
X366071Y266590D02*
D03*
X356071D02*
D03*
X435500Y241000D02*
D03*
X425500D02*
D03*
X435500Y266590D02*
D03*
X425500D02*
D03*
X273500Y241000D02*
D03*
X263500D02*
D03*
X273500Y266590D02*
D03*
X263500D02*
D03*
X296643Y241000D02*
D03*
X286643D02*
D03*
X296643Y266590D02*
D03*
X286643D02*
D03*
X319786Y241000D02*
D03*
X309786D02*
D03*
X319786Y266590D02*
D03*
X309786D02*
D03*
X342929Y241000D02*
D03*
X332928D02*
D03*
X342929Y266590D02*
D03*
X332928D02*
D03*
X389214Y241000D02*
D03*
X379214D02*
D03*
X389214Y266590D02*
D03*
X379214D02*
D03*
X412357Y241000D02*
D03*
X402357D02*
D03*
X412357Y266590D02*
D03*
X402357D02*
D03*
D52*
X478594Y377394D02*
D03*
Y360179D02*
D03*
Y342965D02*
D03*
X478594Y325751D02*
D03*
Y308537D02*
D03*
X478594Y291322D02*
D03*
Y274108D02*
D03*
Y256894D02*
D03*
D53*
X469343Y381134D02*
D03*
Y363919D02*
D03*
Y346705D02*
D03*
X469343Y329491D02*
D03*
Y312277D02*
D03*
X469343Y295062D02*
D03*
Y277848D02*
D03*
Y260634D02*
D03*
D54*
X469343Y373654D02*
D03*
Y356439D02*
D03*
Y339225D02*
D03*
Y322011D02*
D03*
Y304796D02*
D03*
Y287582D02*
D03*
Y270368D02*
D03*
Y253153D02*
D03*
M02*
