%FSLAX25Y25*%
%MOIN*%
G70*
G01*
G75*
G04 Layer_Physical_Order=2*
G04 Layer_Color=16711680*
%ADD10R,0.05512X0.04724*%
%ADD11R,0.04921X0.03543*%
%ADD12R,0.33465X0.42126*%
%ADD13R,0.12205X0.04331*%
%ADD14R,0.05906X0.03937*%
%ADD15R,0.05906X0.05906*%
%ADD16R,0.01969X0.07874*%
%ADD17O,0.01969X0.07874*%
%ADD18R,0.03937X0.05906*%
%ADD19R,0.04724X0.05512*%
%ADD20R,0.01969X0.06890*%
%ADD21O,0.01969X0.06890*%
%ADD22O,0.06890X0.01969*%
%ADD23C,0.03937*%
%ADD24C,0.01969*%
%ADD25C,0.01000*%
%ADD26C,0.02362*%
%ADD27C,0.03150*%
%ADD28C,0.01575*%
%ADD29C,0.11811*%
%ADD30C,0.05906*%
%ADD31C,0.06693*%
%ADD32R,0.07087X0.07087*%
%ADD33C,0.07874*%
%ADD34R,0.07087X0.07087*%
%ADD35C,0.07480*%
%ADD36R,0.06693X0.06693*%
%ADD37C,0.10630*%
%ADD38R,0.09843X0.09843*%
%ADD39R,0.09843X0.09843*%
%ADD40C,0.17716*%
%ADD41C,0.04724*%
%ADD42R,0.04724X0.04724*%
G04:AMPARAMS|DCode=43|XSize=98.43mil|YSize=118.11mil|CornerRadius=24.61mil|HoleSize=0mil|Usage=FLASHONLY|Rotation=90.000|XOffset=0mil|YOffset=0mil|HoleType=Round|Shape=RoundedRectangle|*
%AMROUNDEDRECTD43*
21,1,0.09843,0.06890,0,0,90.0*
21,1,0.04921,0.11811,0,0,90.0*
1,1,0.04921,0.03445,0.02461*
1,1,0.04921,0.03445,-0.02461*
1,1,0.04921,-0.03445,-0.02461*
1,1,0.04921,-0.03445,0.02461*
%
%ADD43ROUNDEDRECTD43*%
%ADD44R,0.11811X0.09843*%
%ADD45C,0.04724*%
%ADD46R,0.04724X0.04724*%
%ADD47C,0.06200*%
%ADD48R,0.05906X0.05906*%
%ADD49C,0.01969*%
%ADD50C,0.02362*%
%ADD51R,0.02362X0.05906*%
%ADD52R,0.04724X0.03937*%
%ADD53R,0.04724X0.03543*%
%ADD54R,0.05118X0.03543*%
G36*
X551181Y442520D02*
X592126Y401575D01*
Y295276D01*
Y236614D01*
X591732Y236221D01*
X544095Y188583D01*
X240158D01*
X196063Y232677D01*
Y390945D01*
Y405512D01*
X225984Y435433D01*
X235433Y444882D01*
X548819D01*
X551181Y442520D01*
D02*
G37*
%LPC*%
G36*
X472705Y280620D02*
X469842D01*
Y278348D01*
X472705D01*
Y280620D01*
D02*
G37*
G36*
X468843D02*
X465980D01*
Y278348D01*
X468843D01*
Y280620D01*
D02*
G37*
G36*
X423386Y290207D02*
X422354Y290072D01*
X421392Y289673D01*
X420567Y289040D01*
X419933Y288214D01*
X419535Y287252D01*
X419399Y286221D01*
X419535Y285189D01*
X419933Y284227D01*
X420567Y283401D01*
X421392Y282768D01*
X422354Y282369D01*
X423386Y282234D01*
X424418Y282369D01*
X425379Y282768D01*
X426205Y283401D01*
X426839Y284227D01*
X427237Y285189D01*
X427373Y286221D01*
X427237Y287252D01*
X426839Y288214D01*
X426205Y289040D01*
X425379Y289673D01*
X424418Y290072D01*
X423386Y290207D01*
D02*
G37*
G36*
X232354Y291508D02*
X225965D01*
X226049Y290654D01*
X226444Y289352D01*
X227085Y288153D01*
X227948Y287101D01*
X228999Y286238D01*
X230199Y285597D01*
X231501Y285202D01*
X232354Y285118D01*
Y291508D01*
D02*
G37*
G36*
X417339Y290173D02*
X409433D01*
Y282268D01*
X417339D01*
Y290173D01*
D02*
G37*
G36*
X423386Y280207D02*
X422354Y280071D01*
X421392Y279673D01*
X420567Y279040D01*
X419933Y278214D01*
X419535Y277252D01*
X419399Y276220D01*
X419535Y275189D01*
X419933Y274227D01*
X420567Y273401D01*
X421392Y272768D01*
X422354Y272370D01*
X423386Y272234D01*
X424418Y272370D01*
X425379Y272768D01*
X426205Y273401D01*
X426839Y274227D01*
X427237Y275189D01*
X427373Y276220D01*
X427237Y277252D01*
X426839Y278214D01*
X426205Y279040D01*
X425379Y279673D01*
X424418Y280071D01*
X423386Y280207D01*
D02*
G37*
G36*
X413386D02*
X412354Y280071D01*
X411392Y279673D01*
X410567Y279040D01*
X409933Y278214D01*
X409535Y277252D01*
X409399Y276220D01*
X409535Y275189D01*
X409933Y274227D01*
X410567Y273401D01*
X411392Y272768D01*
X412354Y272370D01*
X413386Y272234D01*
X414418Y272370D01*
X415379Y272768D01*
X416205Y273401D01*
X416839Y274227D01*
X417237Y275189D01*
X417373Y276220D01*
X417237Y277252D01*
X416839Y278214D01*
X416205Y279040D01*
X415379Y279673D01*
X414418Y280071D01*
X413386Y280207D01*
D02*
G37*
G36*
X472705Y277348D02*
X469842D01*
Y275077D01*
X472705D01*
Y277348D01*
D02*
G37*
G36*
X578421Y289921D02*
X566579D01*
Y278079D01*
X578421D01*
Y289921D01*
D02*
G37*
G36*
X247476Y283874D02*
X239571D01*
Y275969D01*
X247476D01*
Y283874D01*
D02*
G37*
G36*
X239744Y291508D02*
X233354D01*
Y285118D01*
X234208Y285202D01*
X235510Y285597D01*
X236709Y286238D01*
X237761Y287101D01*
X238624Y288153D01*
X239265Y289352D01*
X239660Y290654D01*
X239744Y291508D01*
D02*
G37*
G36*
X468843Y294562D02*
X465980D01*
Y292291D01*
X468843D01*
Y294562D01*
D02*
G37*
G36*
X472902Y290354D02*
X465784D01*
Y289605D01*
X458724D01*
Y290256D01*
X451213D01*
Y288042D01*
X448262Y285092D01*
X447824Y284436D01*
X447670Y283661D01*
X447824Y282887D01*
X448262Y282231D01*
X448919Y281792D01*
X449693Y281638D01*
X450467Y281792D01*
X451124Y282231D01*
X452424Y283531D01*
X458724D01*
Y285559D01*
X465784D01*
Y284810D01*
X472902D01*
Y290354D01*
D02*
G37*
G36*
X472705Y294562D02*
X469842D01*
Y292291D01*
X472705D01*
Y294562D01*
D02*
G37*
G36*
X233354Y298898D02*
Y292508D01*
X239744D01*
X239660Y293362D01*
X239265Y294663D01*
X238624Y295863D01*
X237761Y296914D01*
X236709Y297777D01*
X235510Y298419D01*
X234208Y298814D01*
X233354Y298898D01*
D02*
G37*
G36*
X232354D02*
X231501Y298814D01*
X230199Y298419D01*
X228999Y297777D01*
X227948Y296914D01*
X227085Y295863D01*
X226444Y294663D01*
X226049Y293362D01*
X225965Y292508D01*
X232354D01*
Y298898D01*
D02*
G37*
G36*
X532500Y292558D02*
X531622Y292442D01*
X530804Y292104D01*
X530102Y291565D01*
X529563Y290862D01*
X529224Y290044D01*
X529109Y289167D01*
X529224Y288289D01*
X529563Y287471D01*
X530102Y286769D01*
X530804Y286230D01*
X531622Y285891D01*
X532500Y285775D01*
X533378Y285891D01*
X534196Y286230D01*
X534898Y286769D01*
X535437Y287471D01*
X535776Y288289D01*
X535891Y289167D01*
X535776Y290044D01*
X535437Y290862D01*
X534898Y291565D01*
X534196Y292104D01*
X533378Y292442D01*
X532500Y292558D01*
D02*
G37*
G36*
X522500D02*
X521622Y292442D01*
X520804Y292104D01*
X520102Y291565D01*
X519563Y290862D01*
X519224Y290044D01*
X519109Y289167D01*
X519224Y288289D01*
X519563Y287471D01*
X520102Y286769D01*
X520804Y286230D01*
X521622Y285891D01*
X522500Y285775D01*
X523378Y285891D01*
X524196Y286230D01*
X524898Y286769D01*
X525437Y287471D01*
X525776Y288289D01*
X525891Y289167D01*
X525776Y290044D01*
X525437Y290862D01*
X524898Y291565D01*
X524196Y292104D01*
X523378Y292442D01*
X522500Y292558D01*
D02*
G37*
G36*
X512500Y292558D02*
X511622Y292442D01*
X510804Y292104D01*
X510102Y291565D01*
X509563Y290862D01*
X509224Y290044D01*
X509109Y289167D01*
X509224Y288289D01*
X509563Y287471D01*
X510102Y286769D01*
X510804Y286230D01*
X511622Y285891D01*
X512500Y285775D01*
X513378Y285891D01*
X514196Y286230D01*
X514898Y286769D01*
X515437Y287471D01*
X515776Y288289D01*
X515891Y289167D01*
X515776Y290044D01*
X515437Y290862D01*
X514898Y291565D01*
X514196Y292104D01*
X513378Y292442D01*
X512500Y292558D01*
D02*
G37*
G36*
X458724Y315130D02*
X451213D01*
Y308405D01*
X458724D01*
Y309544D01*
X461610D01*
X465784Y305371D01*
Y302025D01*
X469130D01*
X472762Y298392D01*
Y298065D01*
X472667Y297834D01*
X469842D01*
Y295562D01*
X472705D01*
Y297796D01*
X472718Y297802D01*
D01*
X473167Y297988D01*
X476371Y294784D01*
Y294291D01*
X475232D01*
Y288354D01*
X481957D01*
Y294291D01*
X480818D01*
Y295705D01*
X480818Y295705D01*
X480649Y296556D01*
X480167Y297277D01*
X480167Y297277D01*
X472902Y304543D01*
Y307568D01*
X469876D01*
X468401Y309043D01*
X468592Y309505D01*
X468843D01*
Y311777D01*
X465980D01*
Y312117D01*
X465518Y311926D01*
X464104Y313340D01*
X463382Y313822D01*
X462532Y313992D01*
X462531Y313992D01*
X458724D01*
Y315130D01*
D02*
G37*
G36*
X495862Y292529D02*
X489138D01*
Y285804D01*
X495862D01*
Y292529D01*
D02*
G37*
G36*
X405512Y274464D02*
X401803D01*
X401029Y274310D01*
X400373Y273871D01*
X399934Y273215D01*
X399780Y272441D01*
X399934Y271667D01*
X400373Y271010D01*
D01*
X400373Y271010D01*
X400373Y271010D01*
X400373Y271010D01*
X400373Y271010D01*
Y271010D01*
X400373Y271010D01*
X401026Y270543D01*
X400176D01*
Y267091D01*
X404538D01*
Y269900D01*
X405000Y270092D01*
X409932Y265160D01*
X410176Y264997D01*
Y262638D01*
X414538D01*
Y270543D01*
X410271D01*
X406942Y273871D01*
X406286Y274310D01*
X405512Y274464D01*
D02*
G37*
G36*
X288824Y270543D02*
X287143D01*
Y267091D01*
X288824D01*
Y270543D01*
D02*
G37*
G36*
X286143D02*
X284462D01*
Y267091D01*
X286143D01*
Y270543D01*
D02*
G37*
G36*
X309286D02*
X307605D01*
Y267091D01*
X309286D01*
Y270543D01*
D02*
G37*
G36*
X332429D02*
X330747D01*
Y267091D01*
X332429D01*
Y270543D01*
D02*
G37*
G36*
X311967D02*
X310286D01*
Y267091D01*
X311967D01*
Y270543D01*
D02*
G37*
G36*
X427681Y266090D02*
X426000D01*
Y262638D01*
X427681D01*
Y266090D01*
D02*
G37*
G36*
X425000D02*
X423319D01*
Y262638D01*
X425000D01*
Y266090D01*
D02*
G37*
G36*
X437681Y270543D02*
X433319D01*
Y268498D01*
X430658D01*
X429884Y268344D01*
X429228Y267906D01*
X428789Y267250D01*
X428635Y266475D01*
X428789Y265701D01*
X429228Y265045D01*
X429884Y264606D01*
X430658Y264452D01*
X433319D01*
Y262638D01*
X437681D01*
Y270543D01*
D02*
G37*
G36*
X265681D02*
X264000D01*
Y267091D01*
X265681D01*
Y270543D01*
D02*
G37*
G36*
X263000D02*
X261319D01*
Y267091D01*
X263000D01*
Y270543D01*
D02*
G37*
G36*
X335110D02*
X333429D01*
Y267091D01*
X335110D01*
Y270543D01*
D02*
G37*
G36*
X512500Y276391D02*
X511622Y276276D01*
X510804Y275937D01*
X510102Y275398D01*
X509563Y274696D01*
X509224Y273878D01*
X509109Y273000D01*
X509224Y272122D01*
X509563Y271304D01*
X510102Y270602D01*
X510804Y270063D01*
X511622Y269724D01*
X512500Y269609D01*
X513378Y269724D01*
X514196Y270063D01*
X514898Y270602D01*
X515437Y271304D01*
X515776Y272122D01*
X515891Y273000D01*
X515776Y273878D01*
X515437Y274696D01*
X514898Y275398D01*
X514196Y275937D01*
X513378Y276276D01*
X512500Y276391D01*
D02*
G37*
G36*
X427681Y270543D02*
X426000D01*
Y267091D01*
X427681D01*
Y270543D01*
D02*
G37*
G36*
X522500Y276391D02*
X521622Y276276D01*
X520804Y275937D01*
X520102Y275398D01*
X519563Y274696D01*
X519224Y273878D01*
X519109Y273000D01*
X519224Y272122D01*
X519563Y271304D01*
X520102Y270602D01*
X520804Y270063D01*
X521622Y269724D01*
X522500Y269609D01*
X523378Y269724D01*
X524196Y270063D01*
X524898Y270602D01*
X525437Y271304D01*
X525776Y272122D01*
X525891Y273000D01*
X525776Y273878D01*
X525437Y274696D01*
X524898Y275398D01*
X524196Y275937D01*
X523378Y276276D01*
X522500Y276391D01*
D02*
G37*
G36*
X532500Y276391D02*
X531622Y276276D01*
X530804Y275937D01*
X530102Y275398D01*
X529563Y274696D01*
X529224Y273878D01*
X529109Y273000D01*
X529224Y272122D01*
X529563Y271304D01*
X530102Y270602D01*
X530804Y270063D01*
X531622Y269724D01*
X532500Y269609D01*
X533378Y269724D01*
X534196Y270063D01*
X534898Y270602D01*
X535437Y271304D01*
X535776Y272122D01*
X535891Y273000D01*
X535776Y273878D01*
X535437Y274696D01*
X534898Y275398D01*
X534196Y275937D01*
X533378Y276276D01*
X532500Y276391D01*
D02*
G37*
G36*
X481957Y277077D02*
X475232D01*
Y271140D01*
X478380D01*
X478594Y271097D01*
X489722D01*
X490102Y270602D01*
X490804Y270063D01*
X491622Y269724D01*
X492500Y269609D01*
X493378Y269724D01*
X494196Y270063D01*
X494898Y270602D01*
X495437Y271304D01*
X495776Y272122D01*
X495891Y273000D01*
X495776Y273878D01*
X495437Y274696D01*
X494898Y275398D01*
X494196Y275937D01*
X493378Y276276D01*
X492500Y276391D01*
X491622Y276276D01*
X490804Y275937D01*
X490293Y275544D01*
X481957D01*
Y277077D01*
D02*
G37*
G36*
X358253Y270543D02*
X356571D01*
Y267091D01*
X358253D01*
Y270543D01*
D02*
G37*
G36*
X355571D02*
X353890D01*
Y267091D01*
X355571D01*
Y270543D01*
D02*
G37*
G36*
X378714D02*
X377033D01*
Y267091D01*
X378714D01*
Y270543D01*
D02*
G37*
G36*
X425000D02*
X423319D01*
Y267091D01*
X425000D01*
Y270543D01*
D02*
G37*
G36*
X381395D02*
X379714D01*
Y267091D01*
X381395D01*
Y270543D01*
D02*
G37*
G36*
X468843Y297834D02*
X465980D01*
Y295562D01*
X468843D01*
Y297834D01*
D02*
G37*
G36*
X495862Y328696D02*
X489138D01*
Y321971D01*
X495862D01*
Y328696D01*
D02*
G37*
G36*
X512500Y328725D02*
X511622Y328609D01*
X510804Y328270D01*
X510102Y327731D01*
X509563Y327029D01*
X509224Y326211D01*
X509109Y325333D01*
X509224Y324456D01*
X509563Y323638D01*
X510102Y322935D01*
X510804Y322396D01*
X511622Y322058D01*
X512500Y321942D01*
X513378Y322058D01*
X514196Y322396D01*
X514898Y322935D01*
X515437Y323638D01*
X515776Y324456D01*
X515891Y325333D01*
X515776Y326211D01*
X515437Y327029D01*
X514898Y327731D01*
X514196Y328270D01*
X513378Y328609D01*
X512500Y328725D01*
D02*
G37*
G36*
X222358Y335455D02*
X215469D01*
X214565Y335336D01*
X213723Y334987D01*
X213000Y334433D01*
X212446Y333710D01*
X212097Y332868D01*
X211978Y331965D01*
Y327043D01*
X212097Y326140D01*
X212446Y325298D01*
X213000Y324575D01*
X213723Y324021D01*
X214565Y323672D01*
X215469Y323553D01*
X222358D01*
X223262Y323672D01*
X224103Y324021D01*
X224826Y324575D01*
X225381Y325298D01*
X225730Y326140D01*
X225849Y327043D01*
Y331965D01*
X225730Y332868D01*
X225381Y333710D01*
X224826Y334433D01*
X224103Y334987D01*
X223262Y335336D01*
X222358Y335455D01*
D02*
G37*
G36*
X472705Y328991D02*
X469842D01*
Y326719D01*
X472705D01*
Y328991D01*
D02*
G37*
G36*
X468843D02*
X465980D01*
Y326719D01*
X468843D01*
Y328991D01*
D02*
G37*
G36*
X419091Y319837D02*
Y318413D01*
X420514D01*
X420460Y318688D01*
X420021Y319344D01*
X419365Y319782D01*
X419091Y319837D01*
D02*
G37*
G36*
X418090D02*
X417816Y319782D01*
X417160Y319344D01*
X416721Y318688D01*
X416667Y318413D01*
X418090D01*
Y319837D01*
D02*
G37*
G36*
X472902Y324782D02*
X465784D01*
Y321905D01*
X458724D01*
Y324256D01*
X451213D01*
Y321905D01*
X449299D01*
X448525Y321751D01*
X447869Y321312D01*
X447430Y320656D01*
X447276Y319882D01*
X447430Y319108D01*
X447869Y318451D01*
X448525Y318013D01*
X449299Y317859D01*
X451213D01*
Y317531D01*
X458724D01*
Y317859D01*
X467214D01*
X467988Y318013D01*
X468644Y318451D01*
X469432Y319239D01*
X472902D01*
Y324782D01*
D02*
G37*
G36*
X532500Y328725D02*
X531622Y328609D01*
X530804Y328270D01*
X530102Y327731D01*
X529563Y327029D01*
X529224Y326211D01*
X529109Y325333D01*
X529224Y324456D01*
X529563Y323638D01*
X530102Y322935D01*
X530804Y322396D01*
X531622Y322058D01*
X532500Y321942D01*
X533378Y322058D01*
X534196Y322396D01*
X534898Y322935D01*
X535437Y323638D01*
X535776Y324456D01*
X535891Y325333D01*
X535776Y326211D01*
X535437Y327029D01*
X534898Y327731D01*
X534196Y328270D01*
X533378Y328609D01*
X532500Y328725D01*
D02*
G37*
G36*
X522500D02*
X521622Y328609D01*
X520804Y328270D01*
X520102Y327731D01*
X519563Y327029D01*
X519224Y326211D01*
X519109Y325333D01*
X519224Y324456D01*
X519563Y323638D01*
X520102Y322935D01*
X520804Y322396D01*
X521622Y322058D01*
X522500Y321942D01*
X523378Y322058D01*
X524196Y322396D01*
X524898Y322935D01*
X525437Y323638D01*
X525776Y324456D01*
X525891Y325333D01*
X525776Y326211D01*
X525437Y327029D01*
X524898Y327731D01*
X524196Y328270D01*
X523378Y328609D01*
X522500Y328725D01*
D02*
G37*
G36*
X403130Y330405D02*
X401706D01*
X401761Y330131D01*
X402199Y329475D01*
X402856Y329036D01*
X403130Y328982D01*
Y330405D01*
D02*
G37*
G36*
X358653Y338013D02*
X357776Y337898D01*
X356958Y337559D01*
X356256Y337020D01*
X355717Y336318D01*
X355378Y335500D01*
X355262Y334622D01*
X355378Y333744D01*
X355717Y332926D01*
X356256Y332224D01*
X356958Y331685D01*
X357776Y331346D01*
X358653Y331231D01*
X359531Y331346D01*
X360349Y331685D01*
X361052Y332224D01*
X361590Y332926D01*
X361929Y333744D01*
X362045Y334622D01*
X361929Y335500D01*
X361590Y336318D01*
X361052Y337020D01*
X360349Y337559D01*
X359531Y337898D01*
X358653Y338013D01*
D02*
G37*
G36*
X350780D02*
X349902Y337898D01*
X349084Y337559D01*
X348382Y337020D01*
X347843Y336318D01*
X347504Y335500D01*
X347388Y334622D01*
X347504Y333744D01*
X347843Y332926D01*
X348382Y332224D01*
X349084Y331685D01*
X349902Y331346D01*
X350780Y331231D01*
X351657Y331346D01*
X352475Y331685D01*
X353177Y332224D01*
X353716Y332926D01*
X354055Y333744D01*
X354171Y334622D01*
X354055Y335500D01*
X353716Y336318D01*
X353177Y337020D01*
X352475Y337559D01*
X351657Y337898D01*
X350780Y338013D01*
D02*
G37*
G36*
X403130Y332829D02*
X402856Y332775D01*
X402199Y332336D01*
X401761Y331680D01*
X401706Y331405D01*
X403130D01*
Y332829D01*
D02*
G37*
G36*
X418090D02*
X417816Y332775D01*
X417160Y332336D01*
X416721Y331680D01*
X416667Y331405D01*
X418090D01*
Y332829D01*
D02*
G37*
G36*
X404130D02*
Y331405D01*
X405554D01*
X405499Y331680D01*
X405060Y332336D01*
X404404Y332775D01*
X404130Y332829D01*
D02*
G37*
G36*
X418090Y330405D02*
X416667D01*
X416721Y330131D01*
X417160Y329475D01*
X417816Y329036D01*
X418090Y328982D01*
Y330405D01*
D02*
G37*
G36*
X405554D02*
X404130D01*
Y328982D01*
X404404Y329036D01*
X405060Y329475D01*
X405499Y330131D01*
X405554Y330405D01*
D02*
G37*
G36*
X420514D02*
X419091D01*
Y328982D01*
X419365Y329036D01*
X420021Y329475D01*
X420460Y330131D01*
X420514Y330405D01*
D02*
G37*
G36*
X342905Y338013D02*
X342028Y337898D01*
X341210Y337559D01*
X340508Y337020D01*
X339969Y336318D01*
X339630Y335500D01*
X339514Y334622D01*
X339630Y333744D01*
X339969Y332926D01*
X340508Y332224D01*
X341210Y331685D01*
X342028Y331346D01*
X342905Y331231D01*
X343783Y331346D01*
X344601Y331685D01*
X345304Y332224D01*
X345842Y332926D01*
X346181Y333744D01*
X346297Y334622D01*
X346181Y335500D01*
X345842Y336318D01*
X345304Y337020D01*
X344601Y337559D01*
X343783Y337898D01*
X342905Y338013D01*
D02*
G37*
G36*
X468843Y332263D02*
X465980D01*
Y329991D01*
X468843D01*
Y332263D01*
D02*
G37*
G36*
X404524Y319837D02*
Y318413D01*
X405947D01*
X405893Y318688D01*
X405454Y319344D01*
X404798Y319782D01*
X404524Y319837D01*
D02*
G37*
G36*
X281661Y314175D02*
X280591Y314034D01*
X279594Y313621D01*
X278737Y312964D01*
X278080Y312107D01*
X277667Y311110D01*
X277526Y310039D01*
X277667Y308969D01*
X278080Y307972D01*
X278737Y307115D01*
X279594Y306458D01*
X280591Y306045D01*
X281661Y305904D01*
X282732Y306045D01*
X283729Y306458D01*
X284586Y307115D01*
X285243Y307972D01*
X285656Y308969D01*
X285797Y310039D01*
X285656Y311110D01*
X285243Y312107D01*
X284586Y312964D01*
X283729Y313621D01*
X282732Y314034D01*
X281661Y314175D01*
D02*
G37*
G36*
X532500Y312558D02*
X531622Y312442D01*
X530804Y312104D01*
X530102Y311565D01*
X529563Y310862D01*
X529224Y310044D01*
X529109Y309167D01*
X529224Y308289D01*
X529563Y307471D01*
X530102Y306769D01*
X530804Y306230D01*
X531622Y305891D01*
X532500Y305775D01*
X533378Y305891D01*
X534196Y306230D01*
X534898Y306769D01*
X535437Y307471D01*
X535776Y308289D01*
X535891Y309167D01*
X535776Y310044D01*
X535437Y310862D01*
X534898Y311565D01*
X534196Y312104D01*
X533378Y312442D01*
X532500Y312558D01*
D02*
G37*
G36*
X300874Y314175D02*
X299804Y314034D01*
X298806Y313621D01*
X297950Y312964D01*
X297293Y312107D01*
X296880Y311110D01*
X296739Y310039D01*
X296880Y308969D01*
X297293Y307972D01*
X297950Y307115D01*
X298806Y306458D01*
X299804Y306045D01*
X300874Y305904D01*
X301944Y306045D01*
X302942Y306458D01*
X303798Y307115D01*
X304455Y307972D01*
X304869Y308969D01*
X305009Y310039D01*
X304869Y311110D01*
X304455Y312107D01*
X303798Y312964D01*
X302942Y313621D01*
X301944Y314034D01*
X300874Y314175D01*
D02*
G37*
G36*
X492500Y312558D02*
X491622Y312442D01*
X490804Y312104D01*
X490102Y311565D01*
X489968Y311390D01*
X481957D01*
Y311505D01*
X475232D01*
Y305568D01*
X481957D01*
Y306943D01*
X489968D01*
X490102Y306769D01*
X490804Y306230D01*
X491622Y305891D01*
X492500Y305775D01*
X493378Y305891D01*
X494196Y306230D01*
X494898Y306769D01*
X495437Y307471D01*
X495776Y308289D01*
X495891Y309167D01*
X495776Y310044D01*
X495437Y310862D01*
X494898Y311565D01*
X494196Y312104D01*
X493378Y312442D01*
X492500Y312558D01*
D02*
G37*
G36*
X472705Y311777D02*
X469842D01*
Y309505D01*
X472705D01*
Y311777D01*
D02*
G37*
G36*
X231921Y395921D02*
X220079D01*
Y388313D01*
X204662Y372897D01*
X204187Y372277D01*
X203975Y371766D01*
X203887Y371554D01*
X203785Y370779D01*
Y245079D01*
X203887Y244304D01*
X203975Y244092D01*
X204187Y243582D01*
X204662Y242962D01*
X221591Y226032D01*
X222212Y225557D01*
X222635Y225381D01*
X222934Y225257D01*
X223709Y225155D01*
X237882D01*
X238657Y225257D01*
X238868Y225345D01*
X239379Y225557D01*
X239999Y226032D01*
X265894Y251927D01*
X273030D01*
X278903Y246054D01*
Y234756D01*
X278138D01*
Y227244D01*
X284419D01*
Y214421D01*
X282079D01*
Y202579D01*
X293921D01*
Y214421D01*
X288867D01*
Y241000D01*
X288824Y241215D01*
Y244953D01*
X284462D01*
Y244953D01*
X284451D01*
X284097Y245306D01*
Y247130D01*
X284009Y247802D01*
X283749Y248428D01*
X283336Y248966D01*
X280837Y251465D01*
X281029Y251927D01*
X296652D01*
X301760Y246819D01*
Y234756D01*
X300995D01*
Y227244D01*
X307562D01*
Y226714D01*
X307562Y226714D01*
X307731Y225863D01*
X308213Y225142D01*
X322079Y211276D01*
Y202579D01*
X333921D01*
Y214421D01*
X325224D01*
X312010Y227635D01*
Y241000D01*
X311967Y241215D01*
Y244953D01*
X307605D01*
Y241215D01*
X307562Y241000D01*
Y234756D01*
X306954D01*
Y247895D01*
X306866Y248567D01*
X306606Y249193D01*
X306193Y249731D01*
X304460Y251465D01*
X304651Y251927D01*
X318699D01*
X324617Y246009D01*
Y234756D01*
X323852D01*
Y227244D01*
X330517D01*
X330958Y227008D01*
X331356Y226412D01*
X340640Y217128D01*
X340640Y217128D01*
X341362Y216646D01*
X342213Y216477D01*
X342213Y216477D01*
X352819D01*
X362079Y207217D01*
Y202579D01*
X373921D01*
Y214421D01*
X362079D01*
Y214160D01*
X361617Y213969D01*
X355313Y220273D01*
X354591Y220755D01*
X353740Y220925D01*
X353740Y220925D01*
X343134D01*
X335152Y228906D01*
Y241000D01*
X335110Y241215D01*
Y244953D01*
X330747D01*
Y241215D01*
X330705Y241000D01*
Y234884D01*
X330576Y234756D01*
X330351Y234756D01*
X330351Y234756D01*
Y234756D01*
X329811D01*
Y247085D01*
X329723Y247757D01*
X329463Y248383D01*
X329051Y248921D01*
X326507Y251465D01*
X326698Y251927D01*
X342715D01*
X347474Y247168D01*
Y234756D01*
X346709D01*
Y227244D01*
X353434D01*
Y228388D01*
X353931Y228437D01*
X354017Y228007D01*
X354499Y227285D01*
X364853Y216931D01*
X365574Y216449D01*
X366425Y216280D01*
X366425Y216280D01*
X397075D01*
X402079Y211276D01*
Y202579D01*
X413921D01*
Y214421D01*
X405224D01*
X399569Y220076D01*
X398847Y220559D01*
X397996Y220728D01*
X397996Y220728D01*
X367346D01*
X358295Y229779D01*
Y241000D01*
X358253Y241215D01*
Y244953D01*
X353890D01*
Y241215D01*
X353848Y241000D01*
Y234756D01*
X353434D01*
Y234756D01*
X352668D01*
Y248243D01*
X352580Y248916D01*
X352321Y249542D01*
X351908Y250080D01*
X350522Y251465D01*
X350714Y251927D01*
X365550D01*
X370332Y247145D01*
Y234756D01*
X369566D01*
Y227244D01*
X376291D01*
Y234756D01*
X375526D01*
Y248221D01*
X375437Y248893D01*
X375178Y249520D01*
X374765Y250057D01*
X373357Y251465D01*
X373549Y251927D01*
X388778D01*
X393189Y247516D01*
Y234756D01*
X392424D01*
Y227618D01*
X391274D01*
Y231477D01*
X391438Y232303D01*
X391438Y232303D01*
Y241000D01*
X391395Y241215D01*
Y244953D01*
X387033D01*
Y241215D01*
X386990Y241000D01*
Y234756D01*
X384549D01*
Y227618D01*
X382897D01*
X381438Y229077D01*
Y241000D01*
X381395Y241215D01*
Y244953D01*
X377033D01*
Y241215D01*
X376990Y241000D01*
Y228156D01*
X376990Y228156D01*
X377160Y227305D01*
X377642Y226583D01*
X380404Y223821D01*
X380404Y223821D01*
X380836Y223532D01*
X381125Y223339D01*
X381976Y223170D01*
X381976Y223170D01*
X399276D01*
X405514Y216932D01*
X405514Y216931D01*
X405947Y216642D01*
X406236Y216449D01*
X407087Y216280D01*
X407087Y216280D01*
X437075D01*
X442079Y211276D01*
Y202579D01*
X453921D01*
Y214421D01*
X445224D01*
X440465Y219180D01*
X440656Y219642D01*
X473713D01*
X482079Y211276D01*
Y202579D01*
X493921D01*
Y214421D01*
X485224D01*
X477102Y222543D01*
X477294Y223005D01*
X510351D01*
X522079Y211276D01*
Y202579D01*
X533921D01*
Y214421D01*
X525224D01*
X512844Y226801D01*
X512123Y227283D01*
X511272Y227452D01*
X511272Y227452D01*
X444862D01*
Y234756D01*
X444097D01*
Y247760D01*
X444008Y248432D01*
X443932Y248616D01*
X443749Y249058D01*
X443336Y249596D01*
X437227Y255706D01*
X436932Y256418D01*
X436456Y257038D01*
X435836Y257514D01*
X435113Y257813D01*
X434339Y257915D01*
X337946D01*
X337897Y258413D01*
X337897Y258413D01*
D01*
X338656Y258564D01*
X339312Y259002D01*
X339751Y259659D01*
X339905Y260433D01*
X339905Y260433D01*
X339905Y260433D01*
Y260433D01*
Y260706D01*
X341837Y262638D01*
X345110D01*
Y265911D01*
X381391Y302192D01*
X381391Y302192D01*
X381391Y302192D01*
X381830Y302848D01*
X381984Y303623D01*
X381830Y304397D01*
X381391Y305053D01*
X380735Y305492D01*
X379961Y305646D01*
X379186Y305492D01*
X378530Y305053D01*
X344020Y270543D01*
X340747D01*
Y267271D01*
X336451Y262974D01*
X336013Y262318D01*
X335859Y261544D01*
Y260433D01*
X336013Y259659D01*
X336451Y259002D01*
X337108Y258564D01*
X337867Y258413D01*
X337818Y257915D01*
X321019D01*
X320873Y258394D01*
X321216Y258623D01*
X321655Y259279D01*
X321809Y260053D01*
X321809Y260053D01*
X321809Y260053D01*
Y260053D01*
Y262638D01*
X321967D01*
Y265911D01*
X338482Y282426D01*
X354054D01*
X354828Y282580D01*
X355484Y283018D01*
X380553Y308087D01*
X380735Y308123D01*
X381391Y308561D01*
X381830Y309218D01*
X381984Y309992D01*
X381830Y310766D01*
X381391Y311423D01*
X380735Y311861D01*
X379961Y312015D01*
X379779Y311979D01*
X379597Y312015D01*
X378927Y311882D01*
X378649Y312298D01*
X378727Y312415D01*
X378881Y313189D01*
X378727Y313963D01*
X378289Y314619D01*
X377632Y315058D01*
X376858Y315212D01*
X376084Y315058D01*
X375866Y314913D01*
X375428Y314619D01*
X356729Y295921D01*
X323950D01*
X323176Y295767D01*
X322519Y295328D01*
X297734Y270543D01*
X294462D01*
Y262638D01*
X294620D01*
Y261721D01*
X294520Y261221D01*
X294674Y260446D01*
X295113Y259790D01*
X295769Y259351D01*
X296543Y259197D01*
X297318Y259351D01*
X297974Y259790D01*
X298014Y259850D01*
X298073Y259889D01*
X298512Y260546D01*
X298666Y261320D01*
Y262638D01*
X298824D01*
Y265911D01*
X324788Y291875D01*
X357173D01*
X357370Y291914D01*
X357567Y291875D01*
X358035Y291968D01*
X358270Y291527D01*
X353216Y286472D01*
X337644D01*
X336870Y286318D01*
X336213Y285879D01*
X320877Y270543D01*
X317605D01*
Y262638D01*
X317763D01*
Y260053D01*
X317917Y259279D01*
X318355Y258623D01*
X318698Y258394D01*
X318553Y257915D01*
X264653D01*
X263879Y257813D01*
X263456Y257638D01*
X263157Y257514D01*
X262536Y257038D01*
X236642Y231144D01*
X224949D01*
X209774Y246319D01*
Y369539D01*
X224313Y384079D01*
X231921D01*
Y395921D01*
D02*
G37*
G36*
X572500Y310346D02*
X571262Y310224D01*
X570072Y309862D01*
X568975Y309276D01*
X568013Y308487D01*
X567224Y307525D01*
X566638Y306428D01*
X566276Y305238D01*
X566154Y304000D01*
X566276Y302762D01*
X566638Y301572D01*
X567224Y300475D01*
X568013Y299513D01*
X568975Y298724D01*
X570072Y298137D01*
X571262Y297776D01*
X572500Y297655D01*
X573738Y297776D01*
X574928Y298137D01*
X576025Y298724D01*
X576987Y299513D01*
X577776Y300475D01*
X578363Y301572D01*
X578724Y302762D01*
X578846Y304000D01*
X578724Y305238D01*
X578363Y306428D01*
X577776Y307525D01*
X576987Y308487D01*
X576025Y309276D01*
X574928Y309862D01*
X573738Y310224D01*
X572500Y310346D01*
D02*
G37*
G36*
X225819Y316921D02*
X212008D01*
Y305079D01*
X225819D01*
Y316921D01*
D02*
G37*
G36*
X522500Y312558D02*
X521622Y312442D01*
X520804Y312104D01*
X520102Y311565D01*
X519563Y310862D01*
X519224Y310044D01*
X519109Y309167D01*
X519224Y308289D01*
X519563Y307471D01*
X520102Y306769D01*
X520804Y306230D01*
X521622Y305891D01*
X522500Y305775D01*
X523378Y305891D01*
X524196Y306230D01*
X524898Y306769D01*
X525437Y307471D01*
X525776Y308289D01*
X525891Y309167D01*
X525776Y310044D01*
X525437Y310862D01*
X524898Y311565D01*
X524196Y312104D01*
X523378Y312442D01*
X522500Y312558D01*
D02*
G37*
G36*
X512500D02*
X511622Y312442D01*
X510804Y312104D01*
X510102Y311565D01*
X509563Y310862D01*
X509224Y310044D01*
X509109Y309167D01*
X509224Y308289D01*
X509563Y307471D01*
X510102Y306769D01*
X510804Y306230D01*
X511622Y305891D01*
X512500Y305775D01*
X513378Y305891D01*
X514196Y306230D01*
X514898Y306769D01*
X515437Y307471D01*
X515776Y308289D01*
X515891Y309167D01*
X515776Y310044D01*
X515437Y310862D01*
X514898Y311565D01*
X514196Y312104D01*
X513378Y312442D01*
X512500Y312558D01*
D02*
G37*
G36*
X350780Y318328D02*
X349902Y318213D01*
X349084Y317874D01*
X348382Y317335D01*
X347843Y316633D01*
X347504Y315815D01*
X347388Y314937D01*
X347504Y314059D01*
X347843Y313241D01*
X348382Y312539D01*
X349084Y312000D01*
X349902Y311661D01*
X350780Y311546D01*
X351657Y311661D01*
X352475Y312000D01*
X353177Y312539D01*
X353716Y313241D01*
X354055Y314059D01*
X354171Y314937D01*
X354055Y315815D01*
X353716Y316633D01*
X353177Y317335D01*
X352475Y317874D01*
X351657Y318213D01*
X350780Y318328D01*
D02*
G37*
G36*
X418090Y317413D02*
X416667D01*
X416721Y317139D01*
X417160Y316483D01*
X417816Y316044D01*
X418090Y315990D01*
Y317413D01*
D02*
G37*
G36*
X405947D02*
X404524D01*
Y315990D01*
X404798Y316044D01*
X405454Y316483D01*
X405893Y317139D01*
X405947Y317413D01*
D02*
G37*
G36*
X420514D02*
X419091D01*
Y315990D01*
X419365Y316044D01*
X420021Y316483D01*
X420460Y317139D01*
X420514Y317413D01*
D02*
G37*
G36*
X403524Y319837D02*
X403249Y319782D01*
X402593Y319344D01*
X402154Y318688D01*
X402100Y318413D01*
X403524D01*
Y319837D01*
D02*
G37*
G36*
X578421Y329921D02*
X566579D01*
Y318079D01*
X578421D01*
Y329921D01*
D02*
G37*
G36*
X346268Y318299D02*
X339543D01*
Y311575D01*
X346268D01*
Y318299D01*
D02*
G37*
G36*
X358653Y318328D02*
X357776Y318213D01*
X356958Y317874D01*
X356256Y317335D01*
X355717Y316633D01*
X355378Y315815D01*
X355262Y314937D01*
X355378Y314059D01*
X355717Y313241D01*
X356256Y312539D01*
X356958Y312000D01*
X357776Y311661D01*
X358653Y311546D01*
X359531Y311661D01*
X360349Y312000D01*
X361052Y312539D01*
X361590Y313241D01*
X361929Y314059D01*
X362045Y314937D01*
X361929Y315815D01*
X361590Y316633D01*
X361052Y317335D01*
X360349Y317874D01*
X359531Y318213D01*
X358653Y318328D01*
D02*
G37*
G36*
X468843Y315048D02*
X465980D01*
Y312777D01*
X468843D01*
Y315048D01*
D02*
G37*
G36*
X403524Y317413D02*
X402100D01*
X402154Y317139D01*
X402593Y316483D01*
X403249Y316044D01*
X403524Y315990D01*
Y317413D01*
D02*
G37*
G36*
X472705Y315048D02*
X469842D01*
Y312777D01*
X472705D01*
Y315048D01*
D02*
G37*
G36*
X468500Y214796D02*
Y209000D01*
X474296D01*
X474224Y209738D01*
X473863Y210928D01*
X473276Y212025D01*
X472487Y212987D01*
X471525Y213776D01*
X470428Y214363D01*
X469238Y214724D01*
X468500Y214796D01*
D02*
G37*
G36*
X467500D02*
X466762Y214724D01*
X465572Y214363D01*
X464475Y213776D01*
X463513Y212987D01*
X462724Y212025D01*
X462138Y210928D01*
X461776Y209738D01*
X461704Y209000D01*
X467500D01*
Y214796D01*
D02*
G37*
G36*
X507500D02*
X506762Y214724D01*
X505572Y214363D01*
X504475Y213776D01*
X503513Y212987D01*
X502724Y212025D01*
X502138Y210928D01*
X501776Y209738D01*
X501704Y209000D01*
X507500D01*
Y214796D01*
D02*
G37*
G36*
X547500D02*
X546762Y214724D01*
X545572Y214363D01*
X544475Y213776D01*
X543513Y212987D01*
X542724Y212025D01*
X542137Y210928D01*
X541776Y209738D01*
X541704Y209000D01*
X547500D01*
Y214796D01*
D02*
G37*
G36*
X508500D02*
Y209000D01*
X514296D01*
X514224Y209738D01*
X513863Y210928D01*
X513276Y212025D01*
X512487Y212987D01*
X511525Y213776D01*
X510428Y214363D01*
X509238Y214724D01*
X508500Y214796D01*
D02*
G37*
G36*
X387500D02*
X386762Y214724D01*
X385572Y214363D01*
X384475Y213776D01*
X383513Y212987D01*
X382724Y212025D01*
X382137Y210928D01*
X381776Y209738D01*
X381704Y209000D01*
X387500D01*
Y214796D01*
D02*
G37*
G36*
X348500D02*
Y209000D01*
X354296D01*
X354224Y209738D01*
X353863Y210928D01*
X353276Y212025D01*
X352487Y212987D01*
X351525Y213776D01*
X350428Y214363D01*
X349238Y214724D01*
X348500Y214796D01*
D02*
G37*
G36*
X388500D02*
Y209000D01*
X394296D01*
X394224Y209738D01*
X393863Y210928D01*
X393276Y212025D01*
X392487Y212987D01*
X391525Y213776D01*
X390428Y214363D01*
X389238Y214724D01*
X388500Y214796D01*
D02*
G37*
G36*
X428500D02*
Y209000D01*
X434296D01*
X434224Y209738D01*
X433862Y210928D01*
X433276Y212025D01*
X432487Y212987D01*
X431525Y213776D01*
X430428Y214363D01*
X429238Y214724D01*
X428500Y214796D01*
D02*
G37*
G36*
X427500D02*
X426762Y214724D01*
X425572Y214363D01*
X424475Y213776D01*
X423513Y212987D01*
X422724Y212025D01*
X422137Y210928D01*
X421776Y209738D01*
X421704Y209000D01*
X427500D01*
Y214796D01*
D02*
G37*
G36*
X548500D02*
Y209000D01*
X554296D01*
X554224Y209738D01*
X553862Y210928D01*
X553276Y212025D01*
X552487Y212987D01*
X551525Y213776D01*
X550428Y214363D01*
X549238Y214724D01*
X548500Y214796D01*
D02*
G37*
G36*
X239744Y239776D02*
X233354D01*
Y233386D01*
X234208Y233470D01*
X235510Y233865D01*
X236709Y234506D01*
X237761Y235369D01*
X238624Y236420D01*
X239265Y237620D01*
X239660Y238922D01*
X239744Y239776D01*
D02*
G37*
G36*
X232354D02*
X225965D01*
X226049Y238922D01*
X226444Y237620D01*
X227085Y236420D01*
X227948Y235369D01*
X228999Y234506D01*
X230199Y233865D01*
X231501Y233470D01*
X232354Y233386D01*
Y239776D01*
D02*
G37*
G36*
X462441Y243751D02*
X461409Y243615D01*
X460448Y243216D01*
X459622Y242583D01*
X458988Y241757D01*
X458590Y240796D01*
X458454Y239764D01*
X458590Y238732D01*
X458988Y237770D01*
X459622Y236945D01*
X460448Y236311D01*
X461409Y235913D01*
X462441Y235777D01*
X463473Y235913D01*
X464434Y236311D01*
X465260Y236945D01*
X465894Y237770D01*
X466292Y238732D01*
X466428Y239764D01*
X466292Y240796D01*
X465894Y241757D01*
X465260Y242583D01*
X464434Y243216D01*
X463473Y243615D01*
X462441Y243751D01*
D02*
G37*
G36*
X482441D02*
X481409Y243615D01*
X480447Y243216D01*
X479622Y242583D01*
X478988Y241757D01*
X478590Y240796D01*
X478454Y239764D01*
X478590Y238732D01*
X478988Y237770D01*
X479622Y236945D01*
X480447Y236311D01*
X481409Y235913D01*
X482441Y235777D01*
X483473Y235913D01*
X484434Y236311D01*
X485260Y236945D01*
X485894Y237770D01*
X486292Y238732D01*
X486428Y239764D01*
X486292Y240796D01*
X485894Y241757D01*
X485260Y242583D01*
X484434Y243216D01*
X483473Y243615D01*
X482441Y243751D01*
D02*
G37*
G36*
X472441D02*
X471409Y243615D01*
X470447Y243216D01*
X469622Y242583D01*
X468988Y241757D01*
X468590Y240796D01*
X468454Y239764D01*
X468590Y238732D01*
X468988Y237770D01*
X469622Y236945D01*
X470447Y236311D01*
X471409Y235913D01*
X472441Y235777D01*
X473473Y235913D01*
X474434Y236311D01*
X475260Y236945D01*
X475894Y237770D01*
X476292Y238732D01*
X476428Y239764D01*
X476292Y240796D01*
X475894Y241757D01*
X475260Y242583D01*
X474434Y243216D01*
X473473Y243615D01*
X472441Y243751D01*
D02*
G37*
G36*
X298824Y244953D02*
X294462D01*
Y241215D01*
X294419Y241000D01*
Y234756D01*
X293121D01*
Y227244D01*
X299845D01*
Y234756D01*
X298867D01*
Y241000D01*
X298824Y241215D01*
Y244953D01*
D02*
G37*
G36*
X275681D02*
X271319D01*
Y241215D01*
X271276Y241000D01*
Y234756D01*
X270264D01*
Y227244D01*
X276988D01*
Y234756D01*
X275724D01*
Y241000D01*
X275681Y241215D01*
Y244953D01*
D02*
G37*
G36*
X321967D02*
X317605D01*
Y241215D01*
X317562Y241000D01*
Y234756D01*
X315978D01*
Y227244D01*
X322703D01*
Y234756D01*
X322009D01*
Y241000D01*
X321967Y241215D01*
Y244953D01*
D02*
G37*
G36*
X368252D02*
X363890D01*
Y241215D01*
X363848Y241000D01*
Y234756D01*
X361692D01*
Y227244D01*
X368417D01*
Y234756D01*
X368295D01*
Y241000D01*
X368252Y241215D01*
Y244953D01*
D02*
G37*
G36*
X345110D02*
X340747D01*
Y241215D01*
X340705Y241000D01*
Y234756D01*
X338835D01*
Y227244D01*
X345560D01*
Y234756D01*
X345152D01*
Y241000D01*
X345110Y241215D01*
Y244953D01*
D02*
G37*
G36*
X347500Y214796D02*
X346762Y214724D01*
X345572Y214363D01*
X344475Y213776D01*
X343513Y212987D01*
X342724Y212025D01*
X342138Y210928D01*
X341776Y209738D01*
X341704Y209000D01*
X347500D01*
Y214796D01*
D02*
G37*
G36*
X387500Y208000D02*
X381704D01*
X381776Y207262D01*
X382137Y206072D01*
X382724Y204975D01*
X383513Y204013D01*
X384475Y203224D01*
X385572Y202638D01*
X386762Y202276D01*
X387500Y202204D01*
Y208000D01*
D02*
G37*
G36*
X354296D02*
X348500D01*
Y202204D01*
X349238Y202276D01*
X350428Y202638D01*
X351525Y203224D01*
X352487Y204013D01*
X353276Y204975D01*
X353863Y206072D01*
X354224Y207262D01*
X354296Y208000D01*
D02*
G37*
G36*
X394296D02*
X388500D01*
Y202204D01*
X389238Y202276D01*
X390428Y202638D01*
X391525Y203224D01*
X392487Y204013D01*
X393276Y204975D01*
X393863Y206072D01*
X394224Y207262D01*
X394296Y208000D01*
D02*
G37*
G36*
X434296D02*
X428500D01*
Y202204D01*
X429238Y202276D01*
X430428Y202638D01*
X431525Y203224D01*
X432487Y204013D01*
X433276Y204975D01*
X433862Y206072D01*
X434224Y207262D01*
X434296Y208000D01*
D02*
G37*
G36*
X427500D02*
X421704D01*
X421776Y207262D01*
X422137Y206072D01*
X422724Y204975D01*
X423513Y204013D01*
X424475Y203224D01*
X425572Y202638D01*
X426762Y202276D01*
X427500Y202204D01*
Y208000D01*
D02*
G37*
G36*
X274296D02*
X268500D01*
Y202204D01*
X269238Y202276D01*
X270428Y202638D01*
X271525Y203224D01*
X272487Y204013D01*
X273276Y204975D01*
X273863Y206072D01*
X274224Y207262D01*
X274296Y208000D01*
D02*
G37*
G36*
X267500D02*
X261704D01*
X261776Y207262D01*
X262138Y206072D01*
X262724Y204975D01*
X263513Y204013D01*
X264475Y203224D01*
X265572Y202638D01*
X266762Y202276D01*
X267500Y202204D01*
Y208000D01*
D02*
G37*
G36*
X307500D02*
X301704D01*
X301776Y207262D01*
X302137Y206072D01*
X302724Y204975D01*
X303513Y204013D01*
X304475Y203224D01*
X305572Y202638D01*
X306762Y202276D01*
X307500Y202204D01*
Y208000D01*
D02*
G37*
G36*
X347500D02*
X341704D01*
X341776Y207262D01*
X342138Y206072D01*
X342724Y204975D01*
X343513Y204013D01*
X344475Y203224D01*
X345572Y202638D01*
X346762Y202276D01*
X347500Y202204D01*
Y208000D01*
D02*
G37*
G36*
X314296D02*
X308500D01*
Y202204D01*
X309238Y202276D01*
X310428Y202638D01*
X311525Y203224D01*
X312487Y204013D01*
X313276Y204975D01*
X313862Y206072D01*
X314224Y207262D01*
X314296Y208000D01*
D02*
G37*
G36*
X467500D02*
X461704D01*
X461776Y207262D01*
X462138Y206072D01*
X462724Y204975D01*
X463513Y204013D01*
X464475Y203224D01*
X465572Y202638D01*
X466762Y202276D01*
X467500Y202204D01*
Y208000D01*
D02*
G37*
G36*
X267500Y214796D02*
X266762Y214724D01*
X265572Y214363D01*
X264475Y213776D01*
X263513Y212987D01*
X262724Y212025D01*
X262138Y210928D01*
X261776Y209738D01*
X261704Y209000D01*
X267500D01*
Y214796D01*
D02*
G37*
G36*
X265681Y244953D02*
X261319D01*
Y241215D01*
X261276Y241000D01*
Y224921D01*
X250776Y214421D01*
X242079D01*
Y202579D01*
X253921D01*
Y211276D01*
X265072Y222428D01*
X265555Y223149D01*
X265724Y224000D01*
X265724Y224000D01*
Y241000D01*
X265681Y241215D01*
Y244953D01*
D02*
G37*
G36*
X268500Y214796D02*
Y209000D01*
X274296D01*
X274224Y209738D01*
X273863Y210928D01*
X273276Y212025D01*
X272487Y212987D01*
X271525Y213776D01*
X270428Y214363D01*
X269238Y214724D01*
X268500Y214796D01*
D02*
G37*
G36*
X308500D02*
Y209000D01*
X314296D01*
X314224Y209738D01*
X313862Y210928D01*
X313276Y212025D01*
X312487Y212987D01*
X311525Y213776D01*
X310428Y214363D01*
X309238Y214724D01*
X308500Y214796D01*
D02*
G37*
G36*
X307500D02*
X306762Y214724D01*
X305572Y214363D01*
X304475Y213776D01*
X303513Y212987D01*
X302724Y212025D01*
X302137Y210928D01*
X301776Y209738D01*
X301704Y209000D01*
X307500D01*
Y214796D01*
D02*
G37*
G36*
X507500Y208000D02*
X501704D01*
X501776Y207262D01*
X502138Y206072D01*
X502724Y204975D01*
X503513Y204013D01*
X504475Y203224D01*
X505572Y202638D01*
X506762Y202276D01*
X507500Y202204D01*
Y208000D01*
D02*
G37*
G36*
X474296D02*
X468500D01*
Y202204D01*
X469238Y202276D01*
X470428Y202638D01*
X471525Y203224D01*
X472487Y204013D01*
X473276Y204975D01*
X473863Y206072D01*
X474224Y207262D01*
X474296Y208000D01*
D02*
G37*
G36*
X514296D02*
X508500D01*
Y202204D01*
X509238Y202276D01*
X510428Y202638D01*
X511525Y203224D01*
X512487Y204013D01*
X513276Y204975D01*
X513863Y206072D01*
X514224Y207262D01*
X514296Y208000D01*
D02*
G37*
G36*
X554296D02*
X548500D01*
Y202204D01*
X549238Y202276D01*
X550428Y202638D01*
X551525Y203224D01*
X552487Y204013D01*
X553276Y204975D01*
X553862Y206072D01*
X554224Y207262D01*
X554296Y208000D01*
D02*
G37*
G36*
X547500D02*
X541704D01*
X541776Y207262D01*
X542137Y206072D01*
X542724Y204975D01*
X543513Y204013D01*
X544475Y203224D01*
X545572Y202638D01*
X546762Y202276D01*
X547500Y202204D01*
Y208000D01*
D02*
G37*
G36*
X512441Y243751D02*
X511409Y243615D01*
X510448Y243216D01*
X509622Y242583D01*
X508988Y241757D01*
X508590Y240796D01*
X508454Y239764D01*
X508590Y238732D01*
X508988Y237770D01*
X509622Y236945D01*
X510448Y236311D01*
X511409Y235913D01*
X512441Y235777D01*
X513473Y235913D01*
X514434Y236311D01*
X515260Y236945D01*
X515894Y237770D01*
X516292Y238732D01*
X516428Y239764D01*
X516292Y240796D01*
X515894Y241757D01*
X515260Y242583D01*
X514434Y243216D01*
X513473Y243615D01*
X512441Y243751D01*
D02*
G37*
G36*
X265681Y266090D02*
X264000D01*
Y262638D01*
X265681D01*
Y266090D01*
D02*
G37*
G36*
X263000D02*
X261319D01*
Y262638D01*
X263000D01*
Y266090D01*
D02*
G37*
G36*
X286143D02*
X284462D01*
Y262638D01*
X286143D01*
Y266090D01*
D02*
G37*
G36*
X309286D02*
X307605D01*
Y262638D01*
X309286D01*
Y266090D01*
D02*
G37*
G36*
X288824D02*
X287143D01*
Y262638D01*
X288824D01*
Y266090D01*
D02*
G37*
G36*
X472705Y260134D02*
X469842D01*
Y257862D01*
X472705D01*
Y260134D01*
D02*
G37*
G36*
X468843D02*
X465980D01*
Y257862D01*
X468843D01*
Y260134D01*
D02*
G37*
G36*
X243524Y274066D02*
X242492Y273930D01*
X241530Y273531D01*
X240704Y272898D01*
X240071Y272072D01*
X239673Y271111D01*
X239537Y270079D01*
X239673Y269047D01*
X240071Y268085D01*
X240704Y267260D01*
X241530Y266626D01*
X242096Y266392D01*
Y265892D01*
X241530Y265657D01*
X240704Y265024D01*
X240071Y264198D01*
X239673Y263237D01*
X239537Y262205D01*
X239673Y261173D01*
X240071Y260211D01*
X240704Y259386D01*
X241530Y258752D01*
X242492Y258354D01*
X243524Y258218D01*
X244555Y258354D01*
X245517Y258752D01*
X246343Y259386D01*
X246976Y260211D01*
X247375Y261173D01*
X247511Y262205D01*
X247375Y263237D01*
X246976Y264198D01*
X246343Y265024D01*
X245517Y265657D01*
X244555Y266056D01*
Y266228D01*
X245517Y266626D01*
X246343Y267260D01*
X246976Y268085D01*
X247375Y269047D01*
X247511Y270079D01*
X247375Y271111D01*
X246976Y272072D01*
X246343Y272898D01*
X245517Y273531D01*
X244555Y273930D01*
X243524Y274066D01*
D02*
G37*
G36*
X468843Y263405D02*
X465980D01*
Y261134D01*
X468843D01*
Y263405D01*
D02*
G37*
G36*
X379661Y324614D02*
X378887Y324460D01*
X378231Y324021D01*
X361154Y306944D01*
X311831D01*
X311056Y306790D01*
X310400Y306352D01*
X274592Y270543D01*
X271319D01*
Y267271D01*
X267881Y263832D01*
X267442Y263176D01*
X267288Y262402D01*
X267442Y261627D01*
X267881Y260971D01*
X268537Y260532D01*
X269311Y260379D01*
X270085Y260532D01*
X270742Y260971D01*
X272408Y262638D01*
X275681D01*
Y265911D01*
X312669Y302898D01*
X361992D01*
X362766Y303052D01*
X363423Y303491D01*
X381092Y321160D01*
X381531Y321816D01*
X381685Y322590D01*
X381531Y323365D01*
X381092Y324021D01*
X380436Y324460D01*
X379661Y324614D01*
D02*
G37*
G36*
X311967Y266090D02*
X310286D01*
Y262638D01*
X311967D01*
Y266090D01*
D02*
G37*
G36*
X381395D02*
X379714D01*
Y262638D01*
X381395D01*
Y266090D01*
D02*
G37*
G36*
X378714D02*
X377033D01*
Y262638D01*
X378714D01*
Y266090D01*
D02*
G37*
G36*
X387118Y273873D02*
X386344Y273720D01*
X385687Y273281D01*
X385249Y272625D01*
X385095Y271850D01*
X385249Y271076D01*
X385687Y270420D01*
X387033Y269074D01*
Y262638D01*
X391395D01*
Y270543D01*
X391073D01*
X390645Y271185D01*
X388549Y273281D01*
X387892Y273720D01*
X387118Y273873D01*
D02*
G37*
G36*
X404538Y266090D02*
X402857D01*
Y262638D01*
X404538D01*
Y266090D01*
D02*
G37*
G36*
X401857D02*
X400176D01*
Y262638D01*
X401857D01*
Y266090D01*
D02*
G37*
G36*
X335110D02*
X333429D01*
Y262638D01*
X335110D01*
Y266090D01*
D02*
G37*
G36*
X332429D02*
X330747D01*
Y262638D01*
X332429D01*
Y266090D01*
D02*
G37*
G36*
X355571D02*
X353890D01*
Y262638D01*
X355571D01*
Y266090D01*
D02*
G37*
G36*
X369169Y273869D02*
X368395Y273715D01*
X367739Y273277D01*
X365005Y270543D01*
X363890D01*
Y262638D01*
X368252D01*
Y268069D01*
X370600Y270416D01*
X371038Y271072D01*
X371192Y271846D01*
X371038Y272620D01*
X370600Y273277D01*
X369943Y273715D01*
X369169Y273869D01*
D02*
G37*
G36*
X358253Y266090D02*
X356571D01*
Y262638D01*
X358253D01*
Y266090D01*
D02*
G37*
G36*
X572500Y270345D02*
X571262Y270224D01*
X570072Y269863D01*
X568975Y269276D01*
X568013Y268487D01*
X567224Y267525D01*
X566638Y266428D01*
X566276Y265238D01*
X566154Y264000D01*
X566276Y262762D01*
X566638Y261572D01*
X567224Y260475D01*
X568013Y259513D01*
X568975Y258724D01*
X570072Y258137D01*
X571262Y257776D01*
X572500Y257655D01*
X573738Y257776D01*
X574928Y258137D01*
X576025Y258724D01*
X576987Y259513D01*
X577776Y260475D01*
X578363Y261572D01*
X578724Y262762D01*
X578846Y264000D01*
X578724Y265238D01*
X578363Y266428D01*
X577776Y267525D01*
X576987Y268487D01*
X576025Y269276D01*
X574928Y269863D01*
X573738Y270224D01*
X572500Y270345D01*
D02*
G37*
G36*
X491941Y243685D02*
X491409Y243615D01*
X490448Y243216D01*
X489622Y242583D01*
X488988Y241757D01*
X488590Y240796D01*
X488520Y240264D01*
X491941D01*
Y243685D01*
D02*
G37*
G36*
X578421Y249921D02*
X566579D01*
Y238079D01*
X578421D01*
Y249921D01*
D02*
G37*
G36*
X492941Y243685D02*
Y240264D01*
X496362D01*
X496292Y240796D01*
X495894Y241757D01*
X495260Y242583D01*
X494434Y243216D01*
X493473Y243615D01*
X492941Y243685D01*
D02*
G37*
G36*
X502941D02*
Y240264D01*
X506362D01*
X506292Y240796D01*
X505894Y241757D01*
X505260Y242583D01*
X504434Y243216D01*
X503473Y243615D01*
X502941Y243685D01*
D02*
G37*
G36*
X501941D02*
X501409Y243615D01*
X500448Y243216D01*
X499622Y242583D01*
X498988Y241757D01*
X498590Y240796D01*
X498520Y240264D01*
X501941D01*
Y243685D01*
D02*
G37*
G36*
X491941Y239264D02*
X488520D01*
X488590Y238732D01*
X488988Y237770D01*
X489622Y236945D01*
X490448Y236311D01*
X491409Y235913D01*
X491941Y235843D01*
Y239264D01*
D02*
G37*
G36*
X526394Y243717D02*
X518488D01*
Y235811D01*
X526394D01*
Y243717D01*
D02*
G37*
G36*
X496362Y239264D02*
X492941D01*
Y235843D01*
X493473Y235913D01*
X494434Y236311D01*
X495260Y236945D01*
X495894Y237770D01*
X496292Y238732D01*
X496362Y239264D01*
D02*
G37*
G36*
X506362D02*
X502941D01*
Y235843D01*
X503473Y235913D01*
X504434Y236311D01*
X505260Y236945D01*
X505894Y237770D01*
X506292Y238732D01*
X506362Y239264D01*
D02*
G37*
G36*
X501941D02*
X498520D01*
X498590Y238732D01*
X498988Y237770D01*
X499622Y236945D01*
X500448Y236311D01*
X501409Y235913D01*
X501941Y235843D01*
Y239264D01*
D02*
G37*
G36*
X232354Y247165D02*
X231501Y247081D01*
X230199Y246686D01*
X228999Y246045D01*
X227948Y245182D01*
X227085Y244131D01*
X226444Y242931D01*
X226049Y241629D01*
X225965Y240776D01*
X232354D01*
Y247165D01*
D02*
G37*
G36*
X495862Y256362D02*
X489138D01*
Y249638D01*
X495862D01*
Y256362D01*
D02*
G37*
G36*
X512500Y256391D02*
X511622Y256276D01*
X510804Y255937D01*
X510102Y255398D01*
X509563Y254696D01*
X509224Y253878D01*
X509109Y253000D01*
X509224Y252122D01*
X509563Y251304D01*
X510102Y250602D01*
X510804Y250063D01*
X511622Y249724D01*
X512500Y249609D01*
X513378Y249724D01*
X514196Y250063D01*
X514898Y250602D01*
X515437Y251304D01*
X515776Y252122D01*
X515891Y253000D01*
X515776Y253878D01*
X515437Y254696D01*
X514898Y255398D01*
X514196Y255937D01*
X513378Y256276D01*
X512500Y256391D01*
D02*
G37*
G36*
X458724Y256256D02*
X451213D01*
Y255370D01*
X449299D01*
X448525Y255216D01*
X447869Y254777D01*
X447430Y254121D01*
X447276Y253346D01*
X447430Y252572D01*
X447869Y251916D01*
X448525Y251477D01*
X449299Y251323D01*
X451213D01*
Y249532D01*
X458724D01*
Y250871D01*
X465784D01*
Y250382D01*
X472902D01*
Y255925D01*
X465784D01*
Y254917D01*
X458724D01*
Y256256D01*
D02*
G37*
G36*
X244024Y256484D02*
Y252665D01*
X247842D01*
X247758Y253300D01*
X247320Y254357D01*
X246623Y255265D01*
X245716Y255962D01*
X244658Y256400D01*
X244024Y256484D01*
D02*
G37*
G36*
X243024D02*
X242389Y256400D01*
X241332Y255962D01*
X240424Y255265D01*
X239727Y254357D01*
X239289Y253300D01*
X239206Y252665D01*
X243024D01*
Y256484D01*
D02*
G37*
G36*
Y251665D02*
X239206D01*
X239289Y251031D01*
X239727Y249973D01*
X240424Y249065D01*
X241332Y248369D01*
X242389Y247931D01*
X243024Y247847D01*
Y251665D01*
D02*
G37*
G36*
X233354Y247165D02*
Y240776D01*
X239744D01*
X239660Y241629D01*
X239265Y242931D01*
X238624Y244131D01*
X237761Y245182D01*
X236709Y246045D01*
X235510Y246686D01*
X234208Y247081D01*
X233354Y247165D01*
D02*
G37*
G36*
X247842Y251665D02*
X244024D01*
Y247847D01*
X244658Y247931D01*
X245716Y248369D01*
X246623Y249065D01*
X247320Y249973D01*
X247758Y251031D01*
X247842Y251665D01*
D02*
G37*
G36*
X532500Y256391D02*
X531622Y256276D01*
X530804Y255937D01*
X530102Y255398D01*
X529563Y254696D01*
X529224Y253878D01*
X529109Y253000D01*
X529224Y252122D01*
X529563Y251304D01*
X530102Y250602D01*
X530804Y250063D01*
X531622Y249724D01*
X532500Y249609D01*
X533378Y249724D01*
X534196Y250063D01*
X534898Y250602D01*
X535437Y251304D01*
X535776Y252122D01*
X535891Y253000D01*
X535776Y253878D01*
X535437Y254696D01*
X534898Y255398D01*
X534196Y255937D01*
X533378Y256276D01*
X532500Y256391D01*
D02*
G37*
G36*
X522500D02*
X521622Y256276D01*
X520804Y255937D01*
X520102Y255398D01*
X519563Y254696D01*
X519224Y253878D01*
X519109Y253000D01*
X519224Y252122D01*
X519563Y251304D01*
X520102Y250602D01*
X520804Y250063D01*
X521622Y249724D01*
X522500Y249609D01*
X523378Y249724D01*
X524196Y250063D01*
X524898Y250602D01*
X525437Y251304D01*
X525776Y252122D01*
X525891Y253000D01*
X525776Y253878D01*
X525437Y254696D01*
X524898Y255398D01*
X524196Y255937D01*
X523378Y256276D01*
X522500Y256391D01*
D02*
G37*
G36*
X419091Y332829D02*
Y331405D01*
X420514D01*
X420460Y331680D01*
X420021Y332336D01*
X419365Y332775D01*
X419091Y332829D01*
D02*
G37*
G36*
X488588Y406000D02*
X485726D01*
Y402744D01*
X488588D01*
Y406000D01*
D02*
G37*
G36*
X484726D02*
X481864D01*
Y402744D01*
X484726D01*
Y406000D01*
D02*
G37*
G36*
X514421Y430921D02*
X502579D01*
Y419079D01*
X505506D01*
Y416587D01*
X505608Y415812D01*
X505695Y415600D01*
X505907Y415090D01*
X506383Y414469D01*
X510135Y410718D01*
X509943Y410256D01*
X509871D01*
Y402744D01*
X516596D01*
Y410256D01*
X516227D01*
Y411853D01*
X516125Y412628D01*
X516038Y412840D01*
X515826Y413350D01*
X515350Y413971D01*
X511494Y417827D01*
Y419079D01*
X514421D01*
Y430921D01*
D02*
G37*
G36*
X528855Y406000D02*
X525993D01*
Y402744D01*
X528855D01*
Y406000D01*
D02*
G37*
G36*
X524993D02*
X522130D01*
Y402744D01*
X524993D01*
Y406000D01*
D02*
G37*
G36*
X434421Y430921D02*
X422579D01*
Y419079D01*
X425506D01*
Y415878D01*
X425608Y415103D01*
X425696Y414891D01*
X425907Y414381D01*
X426383Y413761D01*
X429338Y410806D01*
X429338Y410256D01*
X429338D01*
Y402744D01*
X436062D01*
Y410256D01*
X435694D01*
Y411678D01*
X435592Y412453D01*
X435442Y412814D01*
X435293Y413175D01*
X434817Y413795D01*
X431494Y417118D01*
Y419079D01*
X434421D01*
Y430921D01*
D02*
G37*
G36*
X415929Y410256D02*
X409204D01*
Y402744D01*
X410268D01*
Y399575D01*
X409474D01*
Y392063D01*
X410268D01*
Y390354D01*
X410422Y389580D01*
X410861Y388924D01*
X411517Y388485D01*
X412291Y388331D01*
X413065Y388485D01*
X413722Y388924D01*
X414160Y389580D01*
X414315Y390354D01*
Y392063D01*
X416198D01*
Y399575D01*
X414315D01*
Y402744D01*
X415929D01*
Y404477D01*
X421464D01*
Y402744D01*
X428188D01*
Y410256D01*
X421464D01*
Y408523D01*
X415929D01*
Y410256D01*
D02*
G37*
G36*
X444459Y406000D02*
X441597D01*
Y402744D01*
X444459D01*
Y406000D01*
D02*
G37*
G36*
X474421Y430921D02*
X462579D01*
Y419079D01*
X465506D01*
Y416429D01*
X465608Y415654D01*
X465695Y415443D01*
X465907Y414932D01*
X466383Y414312D01*
X469973Y410722D01*
Y410256D01*
X469604D01*
Y402744D01*
X476329D01*
Y410256D01*
X475961D01*
Y411963D01*
X475859Y412737D01*
X475771Y412949D01*
X475560Y413460D01*
X475084Y414080D01*
X471494Y417669D01*
Y419079D01*
X474421D01*
Y430921D01*
D02*
G37*
G36*
X448321Y406000D02*
X445459D01*
Y402744D01*
X448321D01*
Y406000D01*
D02*
G37*
G36*
X554421Y430921D02*
X542579D01*
Y419079D01*
X545506D01*
Y415563D01*
X545608Y414788D01*
X545695Y414577D01*
X545907Y414066D01*
X546383Y413446D01*
X549030Y410798D01*
X549030Y410524D01*
X548919Y410256D01*
X542264D01*
Y408523D01*
X536729D01*
Y410256D01*
X530004D01*
Y402744D01*
X531134D01*
Y399969D01*
X530331D01*
Y392457D01*
X531134D01*
Y391142D01*
X531134Y391142D01*
X531134D01*
X531288Y390368D01*
X531727Y389711D01*
X532383Y389273D01*
X533157Y389119D01*
X533932Y389273D01*
X534588Y389711D01*
X535027Y390368D01*
X535181Y391142D01*
Y392457D01*
X537055D01*
Y399969D01*
X535181D01*
Y402744D01*
X536729D01*
Y404477D01*
X542264D01*
Y402744D01*
X548988D01*
Y410187D01*
X549012Y410197D01*
D01*
X549450Y410379D01*
X550138Y409691D01*
Y402744D01*
X556862D01*
Y410256D01*
X556494D01*
Y410563D01*
X556392Y411338D01*
X556217Y411761D01*
X556093Y412060D01*
X555617Y412680D01*
X551494Y416803D01*
Y419079D01*
X554421D01*
Y430921D01*
D02*
G37*
G36*
X363926Y410256D02*
X361064D01*
Y407000D01*
X363926D01*
Y410256D01*
D02*
G37*
G36*
X327521D02*
X324659D01*
Y407000D01*
X327521D01*
Y410256D01*
D02*
G37*
G36*
X367788D02*
X364926D01*
Y407000D01*
X367788D01*
Y410256D01*
D02*
G37*
G36*
X408055D02*
X405193D01*
Y407000D01*
X408055D01*
Y410256D01*
D02*
G37*
G36*
X404193D02*
X401330D01*
Y407000D01*
X404193D01*
Y410256D01*
D02*
G37*
G36*
X246988D02*
X244126D01*
Y407000D01*
X246988D01*
Y410256D01*
D02*
G37*
G36*
X243126D02*
X240264D01*
Y407000D01*
X243126D01*
Y410256D01*
D02*
G37*
G36*
X283393D02*
X280530D01*
Y407000D01*
X283393D01*
Y410256D01*
D02*
G37*
G36*
X323659D02*
X320797D01*
Y407000D01*
X323659D01*
Y410256D01*
D02*
G37*
G36*
X287255D02*
X284393D01*
Y407000D01*
X287255D01*
Y410256D01*
D02*
G37*
G36*
X408055Y406000D02*
X405193D01*
Y402744D01*
X408055D01*
Y406000D01*
D02*
G37*
G36*
X525319Y399969D02*
X522457D01*
Y396713D01*
X525319D01*
Y399969D01*
D02*
G37*
G36*
X488895D02*
X486033D01*
Y396713D01*
X488895D01*
Y399969D01*
D02*
G37*
G36*
X529181D02*
X526319D01*
Y396713D01*
X529181D01*
Y399969D01*
D02*
G37*
G36*
X246988Y406000D02*
X244126D01*
Y402744D01*
X246988D01*
Y406000D01*
D02*
G37*
G36*
X243126D02*
X240264D01*
Y402744D01*
X243126D01*
Y406000D01*
D02*
G37*
G36*
X287294Y399969D02*
X284432D01*
Y396713D01*
X287294D01*
Y399969D01*
D02*
G37*
G36*
X283432D02*
X280570D01*
Y396713D01*
X283432D01*
Y399969D01*
D02*
G37*
G36*
X444354D02*
X441492D01*
Y396713D01*
X444354D01*
Y399969D01*
D02*
G37*
G36*
X485033D02*
X482171D01*
Y396713D01*
X485033D01*
Y399969D01*
D02*
G37*
G36*
X448216D02*
X445354D01*
Y396713D01*
X448216D01*
Y399969D01*
D02*
G37*
G36*
X274421Y430921D02*
X262579D01*
Y419079D01*
X265506D01*
Y414854D01*
X265608Y414079D01*
X265696Y413868D01*
X265907Y413357D01*
X266383Y412737D01*
X268271Y410849D01*
X268271Y410256D01*
X268271D01*
Y402744D01*
X274995D01*
Y410256D01*
X274627D01*
Y411721D01*
X274525Y412496D01*
X274376Y412857D01*
X274226Y413218D01*
X273750Y413838D01*
X271494Y416094D01*
Y419079D01*
X274421D01*
Y430921D01*
D02*
G37*
G36*
X363926Y406000D02*
X361064D01*
Y402744D01*
X363926D01*
Y406000D01*
D02*
G37*
G36*
X354421Y430921D02*
X342579D01*
Y419079D01*
X345506D01*
Y415957D01*
X345608Y415182D01*
X345695Y414970D01*
X345907Y414460D01*
X346383Y413839D01*
X349172Y411050D01*
Y410256D01*
X348804D01*
Y402744D01*
X355529D01*
Y410256D01*
X355161D01*
Y412290D01*
X355059Y413065D01*
X354884Y413488D01*
X354760Y413787D01*
X354284Y414407D01*
X351494Y417197D01*
Y419079D01*
X354421D01*
Y430921D01*
D02*
G37*
G36*
X367788Y406000D02*
X364926D01*
Y402744D01*
X367788D01*
Y406000D01*
D02*
G37*
G36*
X404193D02*
X401330D01*
Y402744D01*
X404193D01*
Y406000D01*
D02*
G37*
G36*
X394421Y430921D02*
X382579D01*
Y419079D01*
X385506D01*
Y415721D01*
X385608Y414946D01*
X385696Y414734D01*
X385907Y414223D01*
X386383Y413603D01*
X389268Y410718D01*
X389077Y410256D01*
X389071D01*
Y402744D01*
X395795D01*
Y410256D01*
X395427D01*
Y411787D01*
X395325Y412562D01*
X395238Y412774D01*
X395026Y413284D01*
X394550Y413904D01*
X391494Y416961D01*
Y419079D01*
X394421D01*
Y430921D01*
D02*
G37*
G36*
X287255Y406000D02*
X284393D01*
Y402744D01*
X287255D01*
Y406000D01*
D02*
G37*
G36*
X283393D02*
X280530D01*
Y402744D01*
X283393D01*
Y406000D01*
D02*
G37*
G36*
X314421Y430921D02*
X302579D01*
Y419079D01*
X305506D01*
Y416587D01*
X305608Y415812D01*
X305696Y415600D01*
X305907Y415090D01*
X306383Y414469D01*
X308906Y411946D01*
Y410256D01*
X308538D01*
Y402744D01*
X315262D01*
Y410256D01*
X314894D01*
Y413187D01*
X314792Y413962D01*
X314617Y414385D01*
X314493Y414684D01*
X314017Y415304D01*
X311494Y417827D01*
Y419079D01*
X314421D01*
Y430921D01*
D02*
G37*
G36*
X327521Y406000D02*
X324659D01*
Y402744D01*
X327521D01*
Y406000D01*
D02*
G37*
G36*
X323659D02*
X320797D01*
Y402744D01*
X323659D01*
Y406000D01*
D02*
G37*
G36*
X444459Y410256D02*
X441597D01*
Y407000D01*
X444459D01*
Y410256D01*
D02*
G37*
G36*
X529000Y431296D02*
Y425500D01*
X534796D01*
X534724Y426238D01*
X534363Y427428D01*
X533776Y428525D01*
X532987Y429487D01*
X532025Y430276D01*
X530928Y430863D01*
X529738Y431224D01*
X529000Y431296D01*
D02*
G37*
G36*
X528000D02*
X527262Y431224D01*
X526072Y430863D01*
X524975Y430276D01*
X524013Y429487D01*
X523224Y428525D01*
X522638Y427428D01*
X522276Y426238D01*
X522204Y425500D01*
X528000D01*
Y431296D01*
D02*
G37*
G36*
X248000Y431296D02*
X247262Y431224D01*
X246072Y430863D01*
X244975Y430276D01*
X244013Y429487D01*
X243224Y428525D01*
X242637Y427428D01*
X242276Y426238D01*
X242204Y425500D01*
X248000D01*
Y431296D01*
D02*
G37*
G36*
X288000D02*
X287262Y431224D01*
X286072Y430863D01*
X284975Y430276D01*
X284013Y429487D01*
X283224Y428525D01*
X282638Y427428D01*
X282276Y426238D01*
X282204Y425500D01*
X288000D01*
Y431296D01*
D02*
G37*
G36*
X249000D02*
Y425500D01*
X254796D01*
X254724Y426238D01*
X254363Y427428D01*
X253776Y428525D01*
X252987Y429487D01*
X252025Y430276D01*
X250928Y430863D01*
X249738Y431224D01*
X249000Y431296D01*
D02*
G37*
G36*
X288000Y424500D02*
X282204D01*
X282276Y423762D01*
X282638Y422572D01*
X283224Y421475D01*
X284013Y420513D01*
X284975Y419724D01*
X286072Y419137D01*
X287262Y418776D01*
X288000Y418704D01*
Y424500D01*
D02*
G37*
G36*
X254796D02*
X249000D01*
Y418704D01*
X249738Y418776D01*
X250928Y419137D01*
X252025Y419724D01*
X252987Y420513D01*
X253776Y421475D01*
X254363Y422572D01*
X254724Y423762D01*
X254796Y424500D01*
D02*
G37*
G36*
X294796D02*
X289000D01*
Y418704D01*
X289738Y418776D01*
X290928Y419137D01*
X292025Y419724D01*
X292987Y420513D01*
X293776Y421475D01*
X294362Y422572D01*
X294724Y423762D01*
X294796Y424500D01*
D02*
G37*
G36*
X334796D02*
X329000D01*
Y418704D01*
X329738Y418776D01*
X330928Y419137D01*
X332025Y419724D01*
X332987Y420513D01*
X333776Y421475D01*
X334363Y422572D01*
X334724Y423762D01*
X334796Y424500D01*
D02*
G37*
G36*
X328000D02*
X322204D01*
X322276Y423762D01*
X322638Y422572D01*
X323224Y421475D01*
X324013Y420513D01*
X324975Y419724D01*
X326072Y419137D01*
X327262Y418776D01*
X328000Y418704D01*
Y424500D01*
D02*
G37*
G36*
X289000Y431296D02*
Y425500D01*
X294796D01*
X294724Y426238D01*
X294362Y427428D01*
X293776Y428525D01*
X292987Y429487D01*
X292025Y430276D01*
X290928Y430863D01*
X289738Y431224D01*
X289000Y431296D01*
D02*
G37*
G36*
X448000D02*
X447262Y431224D01*
X446072Y430863D01*
X444975Y430276D01*
X444013Y429487D01*
X443224Y428525D01*
X442637Y427428D01*
X442276Y426238D01*
X442204Y425500D01*
X448000D01*
Y431296D01*
D02*
G37*
G36*
X409000D02*
Y425500D01*
X414796D01*
X414724Y426238D01*
X414362Y427428D01*
X413776Y428525D01*
X412987Y429487D01*
X412025Y430276D01*
X410928Y430863D01*
X409738Y431224D01*
X409000Y431296D01*
D02*
G37*
G36*
X449000D02*
Y425500D01*
X454796D01*
X454724Y426238D01*
X454362Y427428D01*
X453776Y428525D01*
X452987Y429487D01*
X452025Y430276D01*
X450928Y430863D01*
X449738Y431224D01*
X449000Y431296D01*
D02*
G37*
G36*
X489000D02*
Y425500D01*
X494796D01*
X494724Y426238D01*
X494362Y427428D01*
X493776Y428525D01*
X492987Y429487D01*
X492025Y430276D01*
X490928Y430863D01*
X489738Y431224D01*
X489000Y431296D01*
D02*
G37*
G36*
X488000D02*
X487262Y431224D01*
X486072Y430863D01*
X484975Y430276D01*
X484013Y429487D01*
X483224Y428525D01*
X482638Y427428D01*
X482276Y426238D01*
X482204Y425500D01*
X488000D01*
Y431296D01*
D02*
G37*
G36*
X329000D02*
Y425500D01*
X334796D01*
X334724Y426238D01*
X334363Y427428D01*
X333776Y428525D01*
X332987Y429487D01*
X332025Y430276D01*
X330928Y430863D01*
X329738Y431224D01*
X329000Y431296D01*
D02*
G37*
G36*
X328000D02*
X327262Y431224D01*
X326072Y430863D01*
X324975Y430276D01*
X324013Y429487D01*
X323224Y428525D01*
X322638Y427428D01*
X322276Y426238D01*
X322204Y425500D01*
X328000D01*
Y431296D01*
D02*
G37*
G36*
X368000D02*
X367262Y431224D01*
X366072Y430863D01*
X364975Y430276D01*
X364013Y429487D01*
X363224Y428525D01*
X362637Y427428D01*
X362276Y426238D01*
X362204Y425500D01*
X368000D01*
Y431296D01*
D02*
G37*
G36*
X408000D02*
X407262Y431224D01*
X406072Y430863D01*
X404975Y430276D01*
X404013Y429487D01*
X403224Y428525D01*
X402637Y427428D01*
X402276Y426238D01*
X402204Y425500D01*
X408000D01*
Y431296D01*
D02*
G37*
G36*
X369000D02*
Y425500D01*
X374796D01*
X374724Y426238D01*
X374362Y427428D01*
X373776Y428525D01*
X372987Y429487D01*
X372025Y430276D01*
X370928Y430863D01*
X369738Y431224D01*
X369000Y431296D01*
D02*
G37*
G36*
X248000Y424500D02*
X242204D01*
X242276Y423762D01*
X242637Y422572D01*
X243224Y421475D01*
X244013Y420513D01*
X244975Y419724D01*
X246072Y419137D01*
X247262Y418776D01*
X248000Y418704D01*
Y424500D01*
D02*
G37*
G36*
X307388Y410256D02*
X300664D01*
Y408523D01*
X295129D01*
Y410256D01*
X288404D01*
Y402744D01*
X289743D01*
Y399969D01*
X288444D01*
Y392457D01*
X293267D01*
X323965Y361758D01*
X324622Y361320D01*
X325396Y361166D01*
X384288D01*
X394073Y351380D01*
X394730Y350942D01*
X395504Y350788D01*
X396278Y350942D01*
X396935Y351380D01*
X397373Y352037D01*
X397527Y352811D01*
X397373Y353585D01*
X396935Y354242D01*
X386557Y364619D01*
X385900Y365058D01*
X385126Y365212D01*
X326234D01*
X295168Y396278D01*
Y399969D01*
X293790D01*
Y402744D01*
X295129D01*
Y404477D01*
X300664D01*
Y402744D01*
X307388D01*
Y410256D01*
D02*
G37*
G36*
X267122D02*
X260397D01*
Y408523D01*
X254862D01*
Y410256D01*
X248138D01*
Y402744D01*
X249477D01*
Y399969D01*
X248177D01*
Y392457D01*
X254902D01*
Y394977D01*
X268587D01*
X271756Y391808D01*
X271564Y391347D01*
X264653D01*
Y382653D01*
X273346D01*
Y389564D01*
X273808Y389756D01*
X320703Y342861D01*
X321360Y342422D01*
X322134Y342268D01*
X373658D01*
X378971Y336955D01*
X378971Y336955D01*
X378971D01*
X378971Y336955D01*
X378971D01*
X378971Y336955D01*
Y336955D01*
Y336955D01*
D01*
D01*
X378971D01*
Y336955D01*
X379627Y336517D01*
X380402Y336363D01*
X381176Y336517D01*
X381832Y336955D01*
X382271Y337612D01*
X382425Y338386D01*
X382271Y339160D01*
X381832Y339816D01*
X375927Y345722D01*
X375270Y346161D01*
X374496Y346315D01*
X322972D01*
X270856Y398431D01*
X270199Y398869D01*
X269425Y399023D01*
X254902D01*
Y399969D01*
X253523D01*
Y402744D01*
X254862D01*
Y404477D01*
X260397D01*
Y402744D01*
X267122D01*
Y410256D01*
D02*
G37*
G36*
X347655D02*
X340930D01*
Y408523D01*
X335396D01*
Y410256D01*
X328671D01*
Y402744D01*
X330010D01*
Y399255D01*
X328671D01*
Y391743D01*
X334503D01*
X352283Y373963D01*
X352939Y373525D01*
X353713Y373371D01*
X380099D01*
X397223Y356247D01*
X397879Y355808D01*
X398654Y355654D01*
X399428Y355808D01*
X400084Y356247D01*
X400523Y356903D01*
X400677Y357677D01*
X400523Y358451D01*
X400084Y359108D01*
X382367Y376824D01*
X381711Y377263D01*
X380937Y377417D01*
X366814D01*
X366669Y377895D01*
X367265Y378294D01*
X367704Y378950D01*
X367758Y379224D01*
X363911D01*
X363966Y378950D01*
X364404Y378294D01*
X365001Y377895D01*
X364855Y377417D01*
X357365D01*
X357220Y377895D01*
X357816Y378294D01*
X358255Y378950D01*
X358310Y379224D01*
X354462D01*
X354517Y378950D01*
X354955Y378294D01*
X355552Y377895D01*
X355407Y377417D01*
X354551D01*
X335396Y396572D01*
Y399255D01*
X334056D01*
Y402744D01*
X335396D01*
Y404477D01*
X340930D01*
Y402744D01*
X347655D01*
Y410256D01*
D02*
G37*
G36*
X468455D02*
X461730D01*
Y408523D01*
X456195D01*
Y410256D01*
X449471D01*
Y402744D01*
X450705D01*
Y399969D01*
X449366D01*
Y392457D01*
X456090D01*
X456090Y392457D01*
Y392457D01*
X456208Y392506D01*
X456596Y392118D01*
X456607Y392062D01*
X457089Y391341D01*
X457810Y390859D01*
X458661Y390690D01*
X459512Y390859D01*
X460234Y391341D01*
X460716Y392062D01*
X460885Y392913D01*
X460716Y393764D01*
X460234Y394486D01*
X459512Y394968D01*
X459457Y394979D01*
X456793Y397643D01*
X456136Y398082D01*
X456090Y398091D01*
Y399969D01*
X454751D01*
Y402744D01*
X456195D01*
Y404477D01*
X461730D01*
Y402744D01*
X468455D01*
Y410256D01*
D02*
G37*
G36*
X387922D02*
X381197D01*
Y408523D01*
X375662D01*
Y410256D01*
X368938D01*
Y402744D01*
X370277D01*
Y399181D01*
X368977D01*
Y391669D01*
X375701D01*
X375702Y391669D01*
Y391669D01*
X375994Y391791D01*
X400373Y367412D01*
X401029Y366973D01*
X401803Y366819D01*
X402577Y366973D01*
X403234Y367412D01*
X403672Y368068D01*
X403826Y368843D01*
X403672Y369617D01*
X403234Y370273D01*
X376612Y396895D01*
X375955Y397334D01*
X375702Y397384D01*
Y399181D01*
X374323D01*
Y402744D01*
X375662D01*
Y404477D01*
X381197D01*
Y402744D01*
X387922D01*
Y410256D01*
D02*
G37*
G36*
X484726D02*
X481864D01*
Y407000D01*
X484726D01*
Y410256D01*
D02*
G37*
G36*
X448321D02*
X445459D01*
Y407000D01*
X448321D01*
Y410256D01*
D02*
G37*
G36*
X488588D02*
X485726D01*
Y407000D01*
X488588D01*
Y410256D01*
D02*
G37*
G36*
X528855D02*
X525993D01*
Y407000D01*
X528855D01*
Y410256D01*
D02*
G37*
G36*
X524993D02*
X522130D01*
Y407000D01*
X524993D01*
Y410256D01*
D02*
G37*
G36*
X508721D02*
X501997D01*
Y408523D01*
X496462D01*
Y410256D01*
X489738D01*
Y402744D01*
X491077D01*
Y399969D01*
X490045D01*
Y392457D01*
X496769D01*
Y393023D01*
X497231Y393215D01*
X497977Y392469D01*
Y391339D01*
X497977Y391339D01*
X497977D01*
X498131Y390564D01*
X498569Y389908D01*
X499226Y389470D01*
X500000Y389316D01*
X500774Y389470D01*
X501431Y389908D01*
X501869Y390564D01*
X502023Y391339D01*
Y393307D01*
X501869Y394081D01*
X501431Y394738D01*
X498525Y397643D01*
X497869Y398082D01*
X497094Y398236D01*
X496769D01*
Y399969D01*
X495123D01*
Y402744D01*
X496462D01*
Y404477D01*
X501997D01*
Y402744D01*
X508721D01*
Y410256D01*
D02*
G37*
G36*
X448000Y424500D02*
X442204D01*
X442276Y423762D01*
X442637Y422572D01*
X443224Y421475D01*
X444013Y420513D01*
X444975Y419724D01*
X446072Y419137D01*
X447262Y418776D01*
X448000Y418704D01*
Y424500D01*
D02*
G37*
G36*
X414796D02*
X409000D01*
Y418704D01*
X409738Y418776D01*
X410928Y419137D01*
X412025Y419724D01*
X412987Y420513D01*
X413776Y421475D01*
X414362Y422572D01*
X414724Y423762D01*
X414796Y424500D01*
D02*
G37*
G36*
X454796D02*
X449000D01*
Y418704D01*
X449738Y418776D01*
X450928Y419137D01*
X452025Y419724D01*
X452987Y420513D01*
X453776Y421475D01*
X454362Y422572D01*
X454724Y423762D01*
X454796Y424500D01*
D02*
G37*
G36*
X494796D02*
X489000D01*
Y418704D01*
X489738Y418776D01*
X490928Y419137D01*
X492025Y419724D01*
X492987Y420513D01*
X493776Y421475D01*
X494362Y422572D01*
X494724Y423762D01*
X494796Y424500D01*
D02*
G37*
G36*
X488000D02*
X482204D01*
X482276Y423762D01*
X482638Y422572D01*
X483224Y421475D01*
X484013Y420513D01*
X484975Y419724D01*
X486072Y419137D01*
X487262Y418776D01*
X488000Y418704D01*
Y424500D01*
D02*
G37*
G36*
X534796Y424500D02*
X529000D01*
Y418704D01*
X529738Y418776D01*
X530928Y419137D01*
X532025Y419724D01*
X532987Y420513D01*
X533776Y421475D01*
X534363Y422572D01*
X534724Y423762D01*
X534796Y424500D01*
D02*
G37*
G36*
X528000D02*
X522204D01*
X522276Y423762D01*
X522638Y422572D01*
X523224Y421475D01*
X524013Y420513D01*
X524975Y419724D01*
X526072Y419137D01*
X527262Y418776D01*
X528000Y418704D01*
Y424500D01*
D02*
G37*
G36*
X368000Y424500D02*
X362204D01*
X362276Y423762D01*
X362637Y422572D01*
X363224Y421475D01*
X364013Y420513D01*
X364975Y419724D01*
X366072Y419137D01*
X367262Y418776D01*
X368000Y418704D01*
Y424500D01*
D02*
G37*
G36*
X408000D02*
X402204D01*
X402276Y423762D01*
X402637Y422572D01*
X403224Y421475D01*
X404013Y420513D01*
X404975Y419724D01*
X406072Y419137D01*
X407262Y418776D01*
X408000Y418704D01*
Y424500D01*
D02*
G37*
G36*
X374796D02*
X369000D01*
Y418704D01*
X369738Y418776D01*
X370928Y419137D01*
X372025Y419724D01*
X372987Y420513D01*
X373776Y421475D01*
X374362Y422572D01*
X374724Y423762D01*
X374796Y424500D01*
D02*
G37*
G36*
X247028Y399969D02*
X244165D01*
Y396713D01*
X247028D01*
Y399969D01*
D02*
G37*
G36*
X352010Y367413D02*
X350587D01*
Y365990D01*
X350861Y366044D01*
X351517Y366483D01*
X351956Y367139D01*
X352010Y367413D01*
D02*
G37*
G36*
X349587D02*
X348163D01*
X348218Y367139D01*
X348656Y366483D01*
X349312Y366044D01*
X349587Y365990D01*
Y367413D01*
D02*
G37*
G36*
X362972D02*
X361549D01*
X361603Y367139D01*
X362042Y366483D01*
X362698Y366044D01*
X362972Y365990D01*
Y367413D01*
D02*
G37*
G36*
X458724Y383130D02*
X451213D01*
Y376406D01*
X458724D01*
Y377544D01*
X462307D01*
X465784Y374068D01*
Y370882D01*
X468969D01*
X472698Y367153D01*
X472616Y366956D01*
X472616D01*
X472507Y366691D01*
X469842D01*
Y364420D01*
X472705D01*
Y366493D01*
X472970Y366603D01*
Y366603D01*
X473167Y366684D01*
X476241Y363610D01*
X476050Y363148D01*
X475232D01*
Y357211D01*
X481957D01*
Y363148D01*
X480818D01*
Y364402D01*
X480818Y364402D01*
X480649Y365253D01*
X480456Y365542D01*
X480167Y365974D01*
X480167Y365974D01*
X472902Y373239D01*
Y376425D01*
X469716D01*
X468241Y377900D01*
X468432Y378362D01*
X468843D01*
Y380634D01*
X465980D01*
Y380814D01*
X465518Y380623D01*
X464801Y381340D01*
X464079Y381822D01*
X463228Y381992D01*
X463228Y381992D01*
X458724D01*
Y383130D01*
D02*
G37*
G36*
X365396Y367413D02*
X363972D01*
Y365990D01*
X364247Y366044D01*
X364903Y366483D01*
X365342Y367139D01*
X365396Y367413D01*
D02*
G37*
G36*
X472705Y363420D02*
X469842D01*
Y361148D01*
X472705D01*
Y363420D01*
D02*
G37*
G36*
X468843D02*
X465980D01*
Y361148D01*
X468843D01*
Y363420D01*
D02*
G37*
G36*
X225500Y369500D02*
X219704D01*
X219776Y368762D01*
X220138Y367572D01*
X220724Y366475D01*
X221513Y365513D01*
X222475Y364724D01*
X223572Y364138D01*
X224762Y363776D01*
X225500Y363704D01*
Y369500D01*
D02*
G37*
G36*
X468843Y366691D02*
X465980D01*
Y364420D01*
X468843D01*
Y366691D01*
D02*
G37*
G36*
X232296Y369500D02*
X226500D01*
Y363704D01*
X227238Y363776D01*
X228428Y364138D01*
X229525Y364724D01*
X230487Y365513D01*
X231276Y366475D01*
X231862Y367572D01*
X232224Y368762D01*
X232296Y369500D01*
D02*
G37*
G36*
X426378Y375089D02*
X425346Y374953D01*
X424384Y374555D01*
X423559Y373921D01*
X422925Y373096D01*
X422527Y372134D01*
X422391Y371102D01*
X422527Y370071D01*
X422925Y369109D01*
X423559Y368283D01*
X424384Y367650D01*
X425346Y367251D01*
X426378Y367115D01*
X427410Y367251D01*
X428371Y367650D01*
X429197Y368283D01*
X429831Y369109D01*
X430229Y370071D01*
X430365Y371102D01*
X430229Y372134D01*
X429831Y373096D01*
X429197Y373921D01*
X428371Y374555D01*
X427410Y374953D01*
X426378Y375089D01*
D02*
G37*
G36*
X225500Y376296D02*
X224762Y376224D01*
X223572Y375863D01*
X222475Y375276D01*
X221513Y374487D01*
X220724Y373525D01*
X220138Y372428D01*
X219776Y371238D01*
X219704Y370500D01*
X225500D01*
Y376296D01*
D02*
G37*
G36*
X273715Y374689D02*
X269500D01*
Y370474D01*
X270237Y370571D01*
X271391Y371048D01*
X272381Y371808D01*
X273141Y372798D01*
X273618Y373952D01*
X273715Y374689D01*
D02*
G37*
G36*
X226500Y376296D02*
Y370500D01*
X232296D01*
X232224Y371238D01*
X231862Y372428D01*
X231276Y373525D01*
X230487Y374487D01*
X229525Y375276D01*
X228428Y375863D01*
X227238Y376224D01*
X226500Y376296D01*
D02*
G37*
G36*
X269500Y379904D02*
Y375689D01*
X273715D01*
X273618Y376426D01*
X273141Y377579D01*
X272381Y378570D01*
X271391Y379329D01*
X270237Y379807D01*
X269500Y379904D01*
D02*
G37*
G36*
X268500D02*
X267763Y379807D01*
X266610Y379329D01*
X265619Y378570D01*
X264860Y377579D01*
X264382Y376426D01*
X264285Y375689D01*
X268500D01*
Y379904D01*
D02*
G37*
G36*
X350587Y369837D02*
Y368413D01*
X352010D01*
X351956Y368688D01*
X351517Y369344D01*
X350861Y369782D01*
X350587Y369837D01*
D02*
G37*
G36*
X349587D02*
X349312Y369782D01*
X348656Y369344D01*
X348218Y368688D01*
X348163Y368413D01*
X349587D01*
Y369837D01*
D02*
G37*
G36*
X362972D02*
X362698Y369782D01*
X362042Y369344D01*
X361603Y368688D01*
X361549Y368413D01*
X362972D01*
Y369837D01*
D02*
G37*
G36*
X268500Y374689D02*
X264285D01*
X264382Y373952D01*
X264860Y372798D01*
X265619Y371808D01*
X266610Y371048D01*
X267763Y370571D01*
X268500Y370474D01*
Y374689D01*
D02*
G37*
G36*
X363972Y369837D02*
Y368413D01*
X365396D01*
X365342Y368688D01*
X364903Y369344D01*
X364247Y369782D01*
X363972Y369837D01*
D02*
G37*
G36*
X512500Y364891D02*
X511622Y364776D01*
X510804Y364437D01*
X510102Y363898D01*
X509563Y363196D01*
X509224Y362378D01*
X509109Y361500D01*
X509224Y360622D01*
X509563Y359804D01*
X510102Y359102D01*
X510804Y358563D01*
X511622Y358224D01*
X512500Y358109D01*
X513378Y358224D01*
X514196Y358563D01*
X514898Y359102D01*
X515437Y359804D01*
X515776Y360622D01*
X515891Y361500D01*
X515776Y362378D01*
X515437Y363196D01*
X514898Y363898D01*
X514196Y364437D01*
X513378Y364776D01*
X512500Y364891D01*
D02*
G37*
G36*
X532500Y348725D02*
X531622Y348609D01*
X530804Y348270D01*
X530102Y347731D01*
X529563Y347029D01*
X529224Y346211D01*
X529109Y345333D01*
X529224Y344456D01*
X529563Y343638D01*
X530102Y342935D01*
X530804Y342396D01*
X531622Y342058D01*
X532500Y341942D01*
X533378Y342058D01*
X534196Y342396D01*
X534898Y342935D01*
X535437Y343638D01*
X535776Y344456D01*
X535891Y345333D01*
X535776Y346211D01*
X535437Y347029D01*
X534898Y347731D01*
X534196Y348270D01*
X533378Y348609D01*
X532500Y348725D01*
D02*
G37*
G36*
X522500Y348725D02*
X521622Y348609D01*
X520804Y348270D01*
X520102Y347731D01*
X519563Y347029D01*
X519224Y346211D01*
X519109Y345333D01*
X519224Y344456D01*
X519563Y343638D01*
X520102Y342935D01*
X520804Y342396D01*
X521622Y342058D01*
X522500Y341942D01*
X523378Y342058D01*
X524196Y342396D01*
X524898Y342935D01*
X525437Y343638D01*
X525776Y344456D01*
X525891Y345333D01*
X525776Y346211D01*
X525437Y347029D01*
X524898Y347731D01*
X524196Y348270D01*
X523378Y348609D01*
X522500Y348725D01*
D02*
G37*
G36*
X222358Y353959D02*
X215469D01*
X214565Y353840D01*
X213723Y353491D01*
X213000Y352937D01*
X212446Y352214D01*
X212097Y351372D01*
X211978Y350468D01*
Y345547D01*
X212097Y344644D01*
X212446Y343802D01*
X213000Y343079D01*
X213723Y342524D01*
X214565Y342176D01*
X215469Y342057D01*
X222358D01*
X223262Y342176D01*
X224103Y342524D01*
X224826Y343079D01*
X225381Y343802D01*
X225730Y344644D01*
X225849Y345547D01*
Y350468D01*
X225730Y351372D01*
X225381Y352214D01*
X224826Y352937D01*
X224103Y353491D01*
X223262Y353840D01*
X222358Y353959D01*
D02*
G37*
G36*
X492500Y348725D02*
X491622Y348609D01*
X490804Y348270D01*
X490102Y347731D01*
X489563Y347029D01*
X489224Y346211D01*
X489109Y345333D01*
X488982Y345189D01*
X481957D01*
Y345934D01*
X475232D01*
Y339997D01*
X481957D01*
Y340741D01*
X490132D01*
X490132Y340741D01*
X490983Y340911D01*
X491704Y341393D01*
X492282Y341971D01*
X492500Y341942D01*
X493378Y342058D01*
X494196Y342396D01*
X494898Y342935D01*
X495437Y343638D01*
X495776Y344456D01*
X495891Y345333D01*
X495776Y346211D01*
X495437Y347029D01*
X494898Y347731D01*
X494196Y348270D01*
X493378Y348609D01*
X492500Y348725D01*
D02*
G37*
G36*
X472705Y346205D02*
X469842D01*
Y343934D01*
X472705D01*
Y346205D01*
D02*
G37*
G36*
X273528Y343323D02*
X264441D01*
Y334236D01*
X273528D01*
Y343323D01*
D02*
G37*
G36*
X301189Y343980D02*
X299900Y343810D01*
X298699Y343313D01*
X297668Y342521D01*
X296877Y341490D01*
X296379Y340289D01*
X296209Y339000D01*
X296379Y337711D01*
X296877Y336510D01*
X297668Y335479D01*
X298699Y334687D01*
X299900Y334190D01*
X301189Y334020D01*
X302478Y334190D01*
X303679Y334687D01*
X304710Y335479D01*
X305502Y336510D01*
X305999Y337711D01*
X306169Y339000D01*
X305999Y340289D01*
X305502Y341490D01*
X304710Y342521D01*
X303679Y343313D01*
X302478Y343810D01*
X301189Y343980D01*
D02*
G37*
G36*
X317543Y343543D02*
X308457D01*
Y334457D01*
X317543D01*
Y343543D01*
D02*
G37*
G36*
X512500Y348725D02*
X511622Y348609D01*
X510804Y348270D01*
X510102Y347731D01*
X509563Y347029D01*
X509224Y346211D01*
X509109Y345333D01*
X509224Y344456D01*
X509563Y343638D01*
X510102Y342935D01*
X510804Y342396D01*
X511622Y342058D01*
X512500Y341942D01*
X513378Y342058D01*
X514196Y342396D01*
X514898Y342935D01*
X515437Y343638D01*
X515776Y344456D01*
X515891Y345333D01*
X515776Y346211D01*
X515437Y347029D01*
X514898Y347731D01*
X514196Y348270D01*
X513378Y348609D01*
X512500Y348725D01*
D02*
G37*
G36*
X572500Y350345D02*
X571262Y350224D01*
X570072Y349863D01*
X568975Y349276D01*
X568013Y348487D01*
X567224Y347525D01*
X566638Y346428D01*
X566276Y345238D01*
X566154Y344000D01*
X566276Y342762D01*
X566638Y341572D01*
X567224Y340475D01*
X568013Y339513D01*
X568975Y338724D01*
X570072Y338138D01*
X571262Y337776D01*
X572500Y337654D01*
X573738Y337776D01*
X574928Y338138D01*
X576025Y338724D01*
X576987Y339513D01*
X577776Y340475D01*
X578363Y341572D01*
X578724Y342762D01*
X578846Y344000D01*
X578724Y345238D01*
X578363Y346428D01*
X577776Y347525D01*
X576987Y348487D01*
X576025Y349276D01*
X574928Y349863D01*
X573738Y350224D01*
X572500Y350345D01*
D02*
G37*
G36*
X268484Y350091D02*
X264071D01*
X264174Y349302D01*
X264672Y348101D01*
X265463Y347069D01*
X266494Y346278D01*
X267695Y345781D01*
X268484Y345677D01*
Y350091D01*
D02*
G37*
G36*
X426378Y365089D02*
X425346Y364953D01*
X424384Y364555D01*
X423559Y363921D01*
X422925Y363096D01*
X422527Y362134D01*
X422391Y361102D01*
X422527Y360070D01*
X422925Y359109D01*
X423559Y358283D01*
X424384Y357650D01*
X425346Y357251D01*
X426378Y357116D01*
X427410Y357251D01*
X428371Y357650D01*
X429197Y358283D01*
X429831Y359109D01*
X430229Y360070D01*
X430365Y361102D01*
X430229Y362134D01*
X429831Y363096D01*
X429197Y363921D01*
X428371Y364555D01*
X427410Y364953D01*
X426378Y365089D01*
D02*
G37*
G36*
X472902Y359211D02*
X465784D01*
Y358462D01*
X457116D01*
X456342Y358308D01*
X456264Y358256D01*
X451213D01*
Y353397D01*
X449443Y351627D01*
X449005Y350971D01*
X448851Y350197D01*
X449005Y349423D01*
X449443Y348766D01*
X450100Y348328D01*
X450874Y348174D01*
X451213Y347896D01*
Y342406D01*
X458724D01*
Y343544D01*
X461469D01*
X465784Y339229D01*
Y336453D01*
X468559D01*
X472288Y332725D01*
X472097Y332263D01*
X469842D01*
Y329991D01*
X472705D01*
Y331655D01*
X473167Y331846D01*
X475831Y329181D01*
X475640Y328719D01*
X475232D01*
Y322782D01*
X481957D01*
Y328719D01*
X480818D01*
Y329563D01*
X480818Y329563D01*
X480649Y330414D01*
X480167Y331136D01*
X480167Y331136D01*
X472902Y338401D01*
Y341997D01*
X469306D01*
X467831Y343472D01*
X468022Y343934D01*
X468843D01*
Y346205D01*
X465980D01*
Y345975D01*
X465518Y345784D01*
X463962Y347340D01*
X463241Y347822D01*
X462390Y347992D01*
X462390Y347992D01*
X458724D01*
Y349130D01*
X453322D01*
X453130Y349592D01*
X455070Y351532D01*
X458724D01*
Y354416D01*
X465784D01*
Y353668D01*
X472902D01*
Y359211D01*
D02*
G37*
G36*
X578421Y369921D02*
X566579D01*
Y358079D01*
X578421D01*
Y369921D01*
D02*
G37*
G36*
X532500Y364891D02*
X531622Y364776D01*
X530804Y364437D01*
X530102Y363898D01*
X529563Y363196D01*
X529224Y362378D01*
X529109Y361500D01*
X529224Y360622D01*
X529563Y359804D01*
X530102Y359102D01*
X530804Y358563D01*
X531622Y358224D01*
X532500Y358109D01*
X533378Y358224D01*
X534196Y358563D01*
X534898Y359102D01*
X535437Y359804D01*
X535776Y360622D01*
X535891Y361500D01*
X535776Y362378D01*
X535437Y363196D01*
X534898Y363898D01*
X534196Y364437D01*
X533378Y364776D01*
X532500Y364891D01*
D02*
G37*
G36*
X522500D02*
X521622Y364776D01*
X520804Y364437D01*
X520102Y363898D01*
X519563Y363196D01*
X519224Y362378D01*
X519109Y361500D01*
X519224Y360622D01*
X519563Y359804D01*
X520102Y359102D01*
X520804Y358563D01*
X521622Y358224D01*
X522500Y358109D01*
X523378Y358224D01*
X524196Y358563D01*
X524898Y359102D01*
X525437Y359804D01*
X525776Y360622D01*
X525891Y361500D01*
X525776Y362378D01*
X525437Y363196D01*
X524898Y363898D01*
X524196Y364437D01*
X523378Y364776D01*
X522500Y364891D01*
D02*
G37*
G36*
X468843Y349477D02*
X465980D01*
Y347205D01*
X468843D01*
Y349477D01*
D02*
G37*
G36*
X273898Y350091D02*
X269484D01*
Y345677D01*
X270273Y345781D01*
X271474Y346278D01*
X272505Y347069D01*
X273297Y348101D01*
X273794Y349302D01*
X273898Y350091D01*
D02*
G37*
G36*
X472705Y349477D02*
X469842D01*
Y347205D01*
X472705D01*
Y349477D01*
D02*
G37*
G36*
X269484Y355504D02*
Y351091D01*
X273898D01*
X273794Y351879D01*
X273297Y353080D01*
X272505Y354112D01*
X271474Y354903D01*
X270273Y355400D01*
X269484Y355504D01*
D02*
G37*
G36*
X268484D02*
X267695Y355400D01*
X266494Y354903D01*
X265463Y354112D01*
X264672Y353080D01*
X264174Y351879D01*
X264071Y351091D01*
X268484D01*
Y355504D01*
D02*
G37*
G36*
X435878Y380602D02*
X432457D01*
X432527Y380070D01*
X432925Y379109D01*
X433559Y378283D01*
X434384Y377650D01*
X435346Y377251D01*
X435878Y377181D01*
Y380602D01*
D02*
G37*
G36*
X283432Y395713D02*
X280570D01*
Y392457D01*
X283432D01*
Y395713D01*
D02*
G37*
G36*
X247028D02*
X244165D01*
Y392457D01*
X247028D01*
Y395713D01*
D02*
G37*
G36*
X287294D02*
X284432D01*
Y392457D01*
X287294D01*
Y395713D01*
D02*
G37*
G36*
X448216D02*
X445354D01*
Y392457D01*
X448216D01*
Y395713D01*
D02*
G37*
G36*
X444354D02*
X441492D01*
Y392457D01*
X444354D01*
Y395713D01*
D02*
G37*
G36*
X327521Y394999D02*
X324659D01*
Y391743D01*
X327521D01*
Y394999D01*
D02*
G37*
G36*
X323659D02*
X320797D01*
Y391743D01*
X323659D01*
Y394999D01*
D02*
G37*
G36*
X404462Y395319D02*
X401600D01*
Y392063D01*
X404462D01*
Y395319D01*
D02*
G37*
G36*
X243165Y395713D02*
X240303D01*
Y392457D01*
X243165D01*
Y395713D01*
D02*
G37*
G36*
X408324Y395319D02*
X405462D01*
Y392063D01*
X408324D01*
Y395319D01*
D02*
G37*
G36*
X485033Y395713D02*
X482171D01*
Y392457D01*
X485033D01*
Y395713D01*
D02*
G37*
G36*
X327521Y399255D02*
X324659D01*
Y395999D01*
X327521D01*
Y399255D01*
D02*
G37*
G36*
X323659D02*
X320797D01*
Y395999D01*
X323659D01*
Y399255D01*
D02*
G37*
G36*
X404462Y399575D02*
X401600D01*
Y396319D01*
X404462D01*
Y399575D01*
D02*
G37*
G36*
X243165Y399969D02*
X240303D01*
Y396713D01*
X243165D01*
Y399969D01*
D02*
G37*
G36*
X408324Y399575D02*
X405462D01*
Y396319D01*
X408324D01*
Y399575D01*
D02*
G37*
G36*
X525319Y395713D02*
X522457D01*
Y392457D01*
X525319D01*
Y395713D01*
D02*
G37*
G36*
X488895D02*
X486033D01*
Y392457D01*
X488895D01*
Y395713D01*
D02*
G37*
G36*
X529181D02*
X526319D01*
Y392457D01*
X529181D01*
Y395713D01*
D02*
G37*
G36*
X367828Y399181D02*
X364965D01*
Y395925D01*
X367828D01*
Y399181D01*
D02*
G37*
G36*
X363965D02*
X361103D01*
Y395925D01*
X363965D01*
Y399181D01*
D02*
G37*
G36*
X367828Y394925D02*
X364965D01*
Y391669D01*
X367828D01*
Y394925D01*
D02*
G37*
G36*
X355886Y381648D02*
X355612Y381593D01*
X354955Y381155D01*
X354517Y380499D01*
X354462Y380224D01*
X355886D01*
Y381648D01*
D02*
G37*
G36*
X494575Y389802D02*
X432480D01*
X431808Y389713D01*
X431182Y389454D01*
X430644Y389041D01*
X426658Y385055D01*
X422425D01*
Y377150D01*
X430331D01*
Y381382D01*
X433128Y384180D01*
X433504Y383850D01*
X432925Y383096D01*
X432527Y382134D01*
X432457Y381602D01*
X436379D01*
Y381103D01*
X436878D01*
Y377181D01*
X437410Y377251D01*
X438371Y377650D01*
X439197Y378283D01*
X439536Y378725D01*
X440009Y378564D01*
Y375394D01*
Y373641D01*
X439536Y373480D01*
X439197Y373921D01*
X438371Y374555D01*
X437410Y374953D01*
X436378Y375089D01*
X435346Y374953D01*
X434384Y374555D01*
X433559Y373921D01*
X432925Y373096D01*
X432527Y372134D01*
X432391Y371102D01*
X432527Y370071D01*
X432925Y369109D01*
X433559Y368283D01*
X434384Y367650D01*
X435346Y367251D01*
X436378Y367115D01*
X437410Y367251D01*
X438371Y367650D01*
X439197Y368283D01*
X439536Y368725D01*
X440009Y368564D01*
Y363641D01*
X439536Y363480D01*
X439197Y363921D01*
X438371Y364555D01*
X437410Y364953D01*
X436378Y365089D01*
X435346Y364953D01*
X434384Y364555D01*
X433559Y363921D01*
X432925Y363096D01*
X432527Y362134D01*
X432391Y361102D01*
X432527Y360070D01*
X432925Y359109D01*
X433559Y358283D01*
X434384Y357650D01*
X435346Y357251D01*
X436378Y357116D01*
X437410Y357251D01*
X438371Y357650D01*
X439197Y358283D01*
X439536Y358725D01*
X440009Y358564D01*
Y342717D01*
Y310039D01*
Y279724D01*
X440009Y279724D01*
X440009D01*
X440098Y279052D01*
X440357Y278426D01*
X440770Y277888D01*
X451006Y267652D01*
X451213Y267493D01*
Y266492D01*
X452745D01*
Y264130D01*
X451213D01*
Y257405D01*
X458724D01*
Y264130D01*
X457192D01*
Y266492D01*
X458724D01*
Y273217D01*
X452787D01*
X452099Y273904D01*
X452291Y274366D01*
X458724D01*
Y275504D01*
X460610D01*
X465784Y270331D01*
Y267596D01*
X468519D01*
X472247Y263867D01*
X472056Y263405D01*
X469842D01*
Y261134D01*
X472705D01*
Y262757D01*
X473167Y262948D01*
X475791Y260324D01*
X475599Y259862D01*
X475232D01*
Y253925D01*
X481957D01*
Y259862D01*
X480818D01*
Y260665D01*
X480818Y260665D01*
X480649Y261516D01*
X480167Y262238D01*
X472902Y269503D01*
Y273140D01*
X469265D01*
X467790Y274615D01*
X467982Y275077D01*
X468843D01*
Y277348D01*
X465980D01*
Y277078D01*
X465518Y276887D01*
X463104Y279301D01*
X462383Y279783D01*
X461531Y279952D01*
X461531Y279952D01*
X458724D01*
Y281090D01*
X451213D01*
Y275444D01*
X450751Y275253D01*
X445203Y280800D01*
Y303644D01*
X445665Y303835D01*
X447180Y302321D01*
X447901Y301839D01*
X448752Y301670D01*
X448752Y301670D01*
X451213D01*
Y300532D01*
X452745D01*
Y298130D01*
X451213D01*
Y291406D01*
X458724D01*
Y298130D01*
X457192D01*
Y300532D01*
X458724D01*
Y307256D01*
X451213D01*
Y306118D01*
X449673D01*
X445203Y310587D01*
Y336321D01*
X445665Y336513D01*
X445857Y336321D01*
X445857Y336321D01*
X446578Y335839D01*
X446578Y335839D01*
X446578Y335839D01*
D01*
X446578Y335839D01*
X446578Y335839D01*
X447429Y335670D01*
X447429Y335670D01*
X451213D01*
Y334531D01*
X452745D01*
Y332130D01*
X451213D01*
Y325406D01*
X458724D01*
Y332130D01*
X457192D01*
Y334531D01*
X458724D01*
Y341256D01*
X451213D01*
Y340118D01*
X448350D01*
X445203Y343265D01*
Y369455D01*
X445590Y369773D01*
X446106Y369670D01*
X446106Y369670D01*
X451213D01*
Y368531D01*
X452745D01*
Y366130D01*
X451213D01*
Y359405D01*
X458724D01*
Y366130D01*
X457192D01*
Y368531D01*
X458724D01*
Y375256D01*
X451213D01*
Y374117D01*
X447027D01*
X445203Y375942D01*
Y380223D01*
X449587Y384608D01*
X490249D01*
X490410Y384134D01*
X490102Y383898D01*
X489563Y383196D01*
X489224Y382378D01*
X489109Y381500D01*
X489137Y381282D01*
X487472Y379618D01*
X481957D01*
Y380362D01*
X475232D01*
Y374425D01*
X481957D01*
Y375170D01*
X488394D01*
X488394Y375170D01*
X489245Y375339D01*
X489966Y375821D01*
X492282Y378137D01*
X492500Y378109D01*
X493378Y378224D01*
X494196Y378563D01*
X494898Y379102D01*
X495437Y379804D01*
X495915Y379606D01*
Y368587D01*
X492190Y364862D01*
X489138D01*
Y358138D01*
X495862D01*
Y361189D01*
X500348Y365675D01*
X500761Y366213D01*
X501020Y366840D01*
X501109Y367512D01*
Y383268D01*
X501020Y383940D01*
X500761Y384566D01*
X500348Y385104D01*
X496411Y389041D01*
X495873Y389454D01*
X495247Y389713D01*
X494575Y389802D01*
D02*
G37*
G36*
X356886Y381648D02*
Y380224D01*
X358310D01*
X358255Y380499D01*
X357816Y381155D01*
X357160Y381593D01*
X356886Y381648D01*
D02*
G37*
G36*
X366335D02*
Y380224D01*
X367758D01*
X367704Y380499D01*
X367265Y381155D01*
X366609Y381593D01*
X366335Y381648D01*
D02*
G37*
G36*
X365335D02*
X365060Y381593D01*
X364404Y381155D01*
X363966Y380499D01*
X363911Y380224D01*
X365335D01*
Y381648D01*
D02*
G37*
G36*
X512500Y384891D02*
X511622Y384776D01*
X510804Y384437D01*
X510102Y383898D01*
X509563Y383196D01*
X509224Y382378D01*
X509109Y381500D01*
X509224Y380622D01*
X509563Y379804D01*
X510102Y379102D01*
X510804Y378563D01*
X511622Y378224D01*
X512500Y378109D01*
X513378Y378224D01*
X514196Y378563D01*
X514898Y379102D01*
X515437Y379804D01*
X515776Y380622D01*
X515891Y381500D01*
X515776Y382378D01*
X515437Y383196D01*
X514898Y383898D01*
X514196Y384437D01*
X513378Y384776D01*
X512500Y384891D01*
D02*
G37*
G36*
X572500Y390346D02*
X571262Y390224D01*
X570072Y389862D01*
X568975Y389276D01*
X568013Y388487D01*
X567224Y387525D01*
X566638Y386428D01*
X566276Y385238D01*
X566154Y384000D01*
X566276Y382762D01*
X566638Y381572D01*
X567224Y380475D01*
X568013Y379513D01*
X568975Y378724D01*
X570072Y378137D01*
X571262Y377776D01*
X572500Y377655D01*
X573738Y377776D01*
X574928Y378137D01*
X576025Y378724D01*
X576987Y379513D01*
X577776Y380475D01*
X578363Y381572D01*
X578724Y382762D01*
X578846Y384000D01*
X578724Y385238D01*
X578363Y386428D01*
X577776Y387525D01*
X576987Y388487D01*
X576025Y389276D01*
X574928Y389862D01*
X573738Y390224D01*
X572500Y390346D01*
D02*
G37*
G36*
X522500Y384891D02*
X521622Y384776D01*
X520804Y384437D01*
X520102Y383898D01*
X519563Y383196D01*
X519224Y382378D01*
X519109Y381500D01*
X519224Y380622D01*
X519563Y379804D01*
X520102Y379102D01*
X520804Y378563D01*
X521622Y378224D01*
X522500Y378109D01*
X523378Y378224D01*
X524196Y378563D01*
X524898Y379102D01*
X525437Y379804D01*
X525776Y380622D01*
X525891Y381500D01*
X525776Y382378D01*
X525437Y383196D01*
X524898Y383898D01*
X524196Y384437D01*
X523378Y384776D01*
X522500Y384891D01*
D02*
G37*
G36*
X472705Y380634D02*
X469842D01*
Y378362D01*
X472705D01*
Y380634D01*
D02*
G37*
G36*
X532500Y384891D02*
X531622Y384776D01*
X530804Y384437D01*
X530102Y383898D01*
X529563Y383196D01*
X529224Y382378D01*
X529109Y381500D01*
X529224Y380622D01*
X529563Y379804D01*
X530102Y379102D01*
X530804Y378563D01*
X531622Y378224D01*
X532500Y378109D01*
X533378Y378224D01*
X534196Y378563D01*
X534898Y379102D01*
X535437Y379804D01*
X535776Y380622D01*
X535891Y381500D01*
X535776Y382378D01*
X535437Y383196D01*
X534898Y383898D01*
X534196Y384437D01*
X533378Y384776D01*
X532500Y384891D01*
D02*
G37*
G36*
X468843Y383906D02*
X465980D01*
Y381634D01*
X468843D01*
Y383906D01*
D02*
G37*
G36*
X352949Y390310D02*
Y388886D01*
X354373D01*
X354318Y389160D01*
X353879Y389816D01*
X353223Y390255D01*
X352949Y390310D01*
D02*
G37*
G36*
X351949D02*
X351675Y390255D01*
X351018Y389816D01*
X350580Y389160D01*
X350525Y388886D01*
X351949D01*
Y390310D01*
D02*
G37*
G36*
X359429D02*
X359155Y390255D01*
X358499Y389816D01*
X358060Y389160D01*
X358005Y388886D01*
X359429D01*
Y390310D01*
D02*
G37*
G36*
X363965Y394925D02*
X361103D01*
Y391669D01*
X363965D01*
Y394925D01*
D02*
G37*
G36*
X360429Y390310D02*
Y388886D01*
X361853D01*
X361798Y389160D01*
X361360Y389816D01*
X360703Y390255D01*
X360429Y390310D01*
D02*
G37*
G36*
X351949Y387886D02*
X350525D01*
X350580Y387612D01*
X351018Y386955D01*
X351675Y386517D01*
X351949Y386462D01*
Y387886D01*
D02*
G37*
G36*
X472705Y383906D02*
X469842D01*
Y381634D01*
X472705D01*
Y383906D01*
D02*
G37*
G36*
X354373Y387886D02*
X352949D01*
Y386462D01*
X353223Y386517D01*
X353879Y386955D01*
X354318Y387612D01*
X354373Y387886D01*
D02*
G37*
G36*
X361853D02*
X360429D01*
Y386462D01*
X360703Y386517D01*
X361360Y386955D01*
X361798Y387612D01*
X361853Y387886D01*
D02*
G37*
G36*
X359429D02*
X358005D01*
X358060Y387612D01*
X358499Y386955D01*
X359155Y386517D01*
X359429Y386462D01*
Y387886D01*
D02*
G37*
%LPD*%
D10*
X454969Y371894D02*
D03*
Y379768D02*
D03*
Y354894D02*
D03*
Y362768D02*
D03*
Y337894D02*
D03*
Y345768D02*
D03*
X454969Y320894D02*
D03*
Y328768D02*
D03*
X454969Y286894D02*
D03*
Y294768D02*
D03*
Y303894D02*
D03*
Y311768D02*
D03*
Y277728D02*
D03*
Y269854D02*
D03*
X454969Y252894D02*
D03*
Y260768D02*
D03*
D15*
X243524Y279921D02*
D03*
X413386Y286221D02*
D03*
X426378Y381102D02*
D03*
D19*
X251539Y396213D02*
D03*
X243665D02*
D03*
X291806D02*
D03*
X283932D02*
D03*
X372339Y395425D02*
D03*
X364465D02*
D03*
X412836Y395819D02*
D03*
X404962D02*
D03*
X452728Y396213D02*
D03*
X444854D02*
D03*
X493407D02*
D03*
X485533D02*
D03*
X533693D02*
D03*
X525819D02*
D03*
X324159Y395499D02*
D03*
X332033D02*
D03*
X281500Y231000D02*
D03*
X273626D02*
D03*
X304357D02*
D03*
X296483D02*
D03*
X327214D02*
D03*
X319340D02*
D03*
X372929D02*
D03*
X365054D02*
D03*
X395786D02*
D03*
X387912D02*
D03*
X418643D02*
D03*
X410769D02*
D03*
X350071D02*
D03*
X342197D02*
D03*
X441500D02*
D03*
X433626D02*
D03*
X243626Y406500D02*
D03*
X251500D02*
D03*
X263759D02*
D03*
X271633D02*
D03*
X304026D02*
D03*
X311900D02*
D03*
X283893D02*
D03*
X291767D02*
D03*
X344293D02*
D03*
X352167D02*
D03*
X324159D02*
D03*
X332033D02*
D03*
X384559D02*
D03*
X392433D02*
D03*
X364426D02*
D03*
X372300D02*
D03*
X424826D02*
D03*
X432700D02*
D03*
X404693D02*
D03*
X412567Y406500D02*
D03*
X444959Y406500D02*
D03*
X452833D02*
D03*
X465093D02*
D03*
X472967D02*
D03*
X485226D02*
D03*
X493100D02*
D03*
X505359D02*
D03*
X513233D02*
D03*
X545626D02*
D03*
X553500D02*
D03*
X525493D02*
D03*
X533367D02*
D03*
D23*
X226000Y370000D02*
X241339Y354661D01*
Y300492D02*
Y354661D01*
X232854Y292008D02*
X241339Y300492D01*
X206780Y370779D02*
X226000Y390000D01*
X206780Y245079D02*
Y370779D01*
Y245079D02*
X223709Y228150D01*
X237882D01*
X264653Y254921D01*
X277252D01*
X434339D01*
X548500Y415563D02*
X553500Y410563D01*
X513233Y406500D02*
Y411853D01*
X553500Y406500D02*
Y410563D01*
X548500Y415563D02*
Y425000D01*
X508500Y416587D02*
X513233Y411853D01*
X508500Y416587D02*
Y425000D01*
X472967Y406500D02*
Y411963D01*
X468500Y416429D02*
X472967Y411963D01*
X468500Y416429D02*
Y425000D01*
X432700Y406500D02*
Y411678D01*
X428500Y415878D02*
X432700Y411678D01*
X428500Y415878D02*
Y425000D01*
X392433Y406500D02*
Y411787D01*
X388500Y415721D02*
X392433Y411787D01*
X388500Y415721D02*
Y425000D01*
X352167Y406500D02*
Y412290D01*
X348500Y415957D02*
X352167Y412290D01*
X348500Y415957D02*
Y425000D01*
X311900Y406500D02*
Y413187D01*
X308500Y416587D02*
X311900Y413187D01*
X308500Y416587D02*
Y425000D01*
X271633Y406500D02*
Y411721D01*
X268500Y414854D02*
X271633Y411721D01*
X268500Y414854D02*
Y425000D01*
D24*
X375181Y395465D02*
X401803Y368843D01*
X372300Y395465D02*
X375181D01*
X372300D02*
Y406500D01*
X493407Y396213D02*
X497094D01*
X493100Y396520D02*
Y406500D01*
X497094Y396213D02*
X500000Y393307D01*
Y391339D02*
Y393307D01*
X493100Y406500D02*
X505359D01*
X452728Y396213D02*
Y406394D01*
Y396213D02*
X455362D01*
X458661Y392913D01*
X323950Y293898D02*
X357173D01*
X296643Y266590D02*
X323950Y293898D01*
X354054Y284449D02*
X379597Y309992D01*
X337644Y284449D02*
X354054D01*
X319786Y266590D02*
X337644Y284449D01*
X342929Y266590D02*
X379961Y303623D01*
X311831Y304921D02*
X361992D01*
X379661Y322590D01*
X357567Y293898D02*
X376858Y313189D01*
X273500Y266590D02*
X311831Y304921D01*
X269311Y262402D02*
X273500Y266590D01*
X296643Y261320D02*
Y266590D01*
X319786Y260053D02*
Y266590D01*
X337882Y261544D02*
X342929Y266590D01*
X337882Y260433D02*
Y261544D01*
X366071Y268749D02*
X369169Y271846D01*
X366071Y266590D02*
Y268749D01*
X389214Y266590D02*
Y269754D01*
X387118Y271850D02*
X389214Y269754D01*
X430658Y266475D02*
X435385D01*
X449299Y253346D02*
X454516D01*
X454969Y252894D02*
X469343D01*
X449693Y283661D02*
X453614Y287582D01*
X469343D01*
X467214Y319882D02*
X469343Y322011D01*
X449299Y319882D02*
X467214D01*
X457116Y356439D02*
X469343D01*
X450874Y350197D02*
X457116Y356439D01*
X374496Y344291D02*
X380402Y338386D01*
X252890Y397000D02*
X269425D01*
X322134Y344291D02*
X374496D01*
X269425Y397000D02*
X322134Y344291D01*
X380937Y375394D02*
X398654Y357677D01*
X353713Y375394D02*
X380937D01*
X332033Y397074D02*
X353713Y375394D01*
X291767Y396818D02*
X325396Y363189D01*
X385126D01*
X395504Y352811D01*
X533367Y406500D02*
X545626D01*
X533157Y391142D02*
Y406291D01*
X525493Y398507D02*
X527000Y397000D01*
X525493Y398507D02*
Y406500D01*
Y421993D01*
X528500Y425000D01*
X485126Y398588D02*
X486714Y397000D01*
X485126Y398588D02*
Y421626D01*
X488500Y425000D01*
X452833Y406500D02*
X465093D01*
X444969Y398460D02*
Y421468D01*
X448500Y425000D01*
X412567Y406500D02*
X424826D01*
X412291Y390354D02*
Y406102D01*
X404693Y398450D02*
X406143Y397000D01*
X404693Y398450D02*
Y421193D01*
X408500Y425000D01*
X372300Y406500D02*
X384559D01*
X364260Y398597D02*
X365857Y397000D01*
X364260Y398597D02*
Y420760D01*
X368500Y425000D01*
X332033Y406500D02*
X344293D01*
X332033Y397074D02*
Y406500D01*
X324102Y398705D02*
X325690Y397118D01*
X324102Y398705D02*
Y420602D01*
X328500Y425000D01*
X291767Y406500D02*
X304026D01*
X291767Y396818D02*
Y406500D01*
X284339Y397947D02*
X285286Y397000D01*
X284339Y397947D02*
Y421063D01*
X288388Y425112D01*
X251500Y398390D02*
X252890Y397000D01*
X251500Y398390D02*
Y406500D01*
X263759D01*
X244181Y397819D02*
X245000Y397000D01*
X244181Y397819D02*
Y420681D01*
X248500Y425000D01*
X243335Y252024D02*
X248933D01*
X263500Y266590D01*
X405512Y272441D02*
X411362Y266590D01*
X412357D01*
X401803Y272441D02*
X405512D01*
D25*
X452728Y406394D02*
X452833Y406500D01*
X379597Y309992D02*
X379961D01*
D26*
X363941Y208500D02*
X368000D01*
X353740Y218701D02*
X363941Y208500D01*
X342213Y218701D02*
X353740D01*
X332928Y227985D02*
X342213Y218701D01*
X332928Y227985D02*
Y241000D01*
X511272Y225228D02*
X528000Y208500D01*
X474634Y221866D02*
X488000Y208500D01*
X409913Y221866D02*
X474634D01*
X429386Y225228D02*
X511272D01*
X425500Y229114D02*
X429386Y225228D01*
X402357Y229422D02*
X409913Y221866D01*
X437996Y218504D02*
X448000Y208500D01*
X407087Y218504D02*
X437996D01*
X400197Y225394D02*
X407087Y218504D01*
X381976Y225394D02*
X400197D01*
X379214Y228156D02*
X381976Y225394D01*
X379214Y228156D02*
Y241000D01*
X397996Y218504D02*
X408000Y208500D01*
X366425Y218504D02*
X397996D01*
X356071Y228858D02*
X366425Y218504D01*
X356071Y228858D02*
Y241000D01*
X273500Y231126D02*
Y241000D01*
X263500Y224000D02*
Y241000D01*
X248000Y208500D02*
X263500Y224000D01*
X286643Y209857D02*
Y241000D01*
X296643Y231160D02*
Y241000D01*
X309786Y226714D02*
Y241000D01*
Y226714D02*
X328000Y208500D01*
X319786Y231445D02*
Y241000D01*
X342929Y231731D02*
Y241000D01*
X425500Y229114D02*
Y241000D01*
X402357Y229422D02*
Y241000D01*
X366071Y232017D02*
Y241000D01*
X389214Y232303D02*
Y241000D01*
X387912Y231000D02*
X389214Y232303D01*
X412357Y232588D02*
Y241000D01*
X410769Y231000D02*
X412357Y232588D01*
X433626Y239126D02*
X435500Y241000D01*
X433626Y231000D02*
Y239126D01*
X454969Y362768D02*
Y371894D01*
X446106D02*
X454969D01*
X442606Y375394D02*
X446106Y371894D01*
X478594Y377394D02*
X488394D01*
X492500Y381500D01*
X478594Y360179D02*
Y364402D01*
X469343Y373654D02*
X478594Y364402D01*
X463228Y379768D02*
X469343Y373654D01*
X454969Y379768D02*
X463228D01*
X454969Y328768D02*
Y337894D01*
X447429Y337894D02*
X454969D01*
X442606Y342717D02*
X447429Y337894D01*
X478594Y342965D02*
X490132D01*
X492500Y345333D01*
X478594Y325751D02*
Y329563D01*
X462390Y345768D02*
X478594Y329563D01*
X454969Y345768D02*
X462390D01*
X454969Y294768D02*
Y303894D01*
X448752D02*
X454969D01*
X442606Y310039D02*
X448752Y303894D01*
X479225Y309167D02*
X492500D01*
X478594Y291322D02*
Y295705D01*
X462532Y311768D02*
X478594Y295705D01*
X454969Y311768D02*
X462532D01*
X454969Y260768D02*
Y269854D01*
X478594Y273321D02*
X492500D01*
X478594Y256894D02*
Y260665D01*
X461531Y277728D02*
X478594Y260665D01*
X454969Y277728D02*
X461531D01*
D27*
X494575Y387205D02*
X498512Y383268D01*
X448512Y387205D02*
X494575D01*
X281500Y231000D02*
Y247130D01*
X273709Y254921D02*
X281500Y247130D01*
X304357Y231000D02*
Y247895D01*
X297331Y254921D02*
X304357Y247895D01*
X327214Y231000D02*
Y247085D01*
X319378Y254921D02*
X327214Y247085D01*
X350071Y231000D02*
Y248243D01*
X343394Y254921D02*
X350071Y248243D01*
X372929Y231000D02*
Y248221D01*
X366228Y254921D02*
X372929Y248221D01*
X395786Y231000D02*
Y248592D01*
X390244Y254134D02*
X395786Y248592D01*
X418643Y231000D02*
Y247389D01*
X412291Y253740D02*
X418643Y247389D01*
X441500Y231000D02*
Y247760D01*
X434339Y254921D02*
X441500Y247760D01*
X442606Y279724D02*
X452843Y269488D01*
X442606Y342717D02*
Y375394D01*
Y279724D02*
Y310039D01*
Y342717D01*
X492500Y361500D02*
X498512Y367512D01*
Y383268D01*
X442606Y381299D02*
X448512Y387205D01*
X442606Y375394D02*
Y381299D01*
X432480Y387205D02*
X448512D01*
X426378Y381102D02*
X432480Y387205D01*
X492441Y239764D02*
X502441D01*
X510709Y231496D01*
X525004D01*
X548000Y208500D01*
D29*
X232854Y240276D02*
D03*
Y292008D02*
D03*
D30*
X243524Y262205D02*
D03*
Y270079D02*
D03*
X423386Y276220D02*
D03*
X413386D02*
D03*
X423386Y286221D02*
D03*
X436378Y361102D02*
D03*
X426378Y361102D02*
D03*
X436378Y371102D02*
D03*
X426378D02*
D03*
X436378Y381102D02*
D03*
X462441Y239764D02*
D03*
X472441D02*
D03*
X482441D02*
D03*
X492441D02*
D03*
X512441D02*
D03*
X502441D02*
D03*
D31*
X243524Y252165D02*
D03*
D32*
X268984Y338779D02*
D03*
D33*
Y350590D02*
D03*
X301189Y339000D02*
D03*
D34*
X313000D02*
D03*
D35*
X269000Y375189D02*
D03*
D36*
Y387000D02*
D03*
D37*
X528500Y425000D02*
D03*
X488500Y425000D02*
D03*
X448500D02*
D03*
X408500D02*
D03*
X368500D02*
D03*
X328500D02*
D03*
X288500D02*
D03*
X248500D02*
D03*
X226000Y370000D02*
D03*
X268000Y208500D02*
D03*
X308000D02*
D03*
X348000D02*
D03*
X388000D02*
D03*
X428000D02*
D03*
X468000D02*
D03*
X508000D02*
D03*
X548000D02*
D03*
X572500Y264000D02*
D03*
X572500Y304000D02*
D03*
Y344000D02*
D03*
X572500Y384000D02*
D03*
D38*
X548500Y425000D02*
D03*
X508500Y425000D02*
D03*
X468500D02*
D03*
X428500D02*
D03*
X388500D02*
D03*
X348500D02*
D03*
X308500D02*
D03*
X268500D02*
D03*
X248000Y208500D02*
D03*
X288000D02*
D03*
X328000D02*
D03*
X368000D02*
D03*
X408000D02*
D03*
X448000D02*
D03*
X488000D02*
D03*
X528000D02*
D03*
D39*
X226000Y390000D02*
D03*
X572500Y244000D02*
D03*
X572500Y284000D02*
D03*
Y324000D02*
D03*
X572500Y364000D02*
D03*
D40*
X210717Y440748D02*
D03*
X588669D02*
D03*
Y192717D02*
D03*
X210717D02*
D03*
D41*
X342905Y334622D02*
D03*
X350780Y314937D02*
D03*
Y334622D02*
D03*
X358653Y314937D02*
D03*
Y334622D02*
D03*
D42*
X342905Y314937D02*
D03*
D43*
X218913Y348008D02*
D03*
Y329504D02*
D03*
D44*
Y311000D02*
D03*
D45*
X532500Y273000D02*
D03*
Y253000D02*
D03*
X522500D02*
D03*
Y273000D02*
D03*
X492500Y273000D02*
D03*
X512500Y253000D02*
D03*
Y273000D02*
D03*
X532500Y381500D02*
D03*
Y361500D02*
D03*
X522500D02*
D03*
Y381500D02*
D03*
X492500Y381500D02*
D03*
X512500Y361500D02*
D03*
Y381500D02*
D03*
X532500Y309167D02*
D03*
Y289167D02*
D03*
X522500D02*
D03*
Y309167D02*
D03*
X492500Y309167D02*
D03*
X512500Y289167D02*
D03*
Y309167D02*
D03*
X532500Y345333D02*
D03*
Y325333D02*
D03*
X522500D02*
D03*
Y345333D02*
D03*
X492500Y345333D02*
D03*
X512500Y325333D02*
D03*
Y345333D02*
D03*
D46*
X492500Y253000D02*
D03*
Y361500D02*
D03*
Y289167D02*
D03*
Y325333D02*
D03*
D47*
X300874Y310039D02*
D03*
X281661D02*
D03*
D48*
X522441Y239764D02*
D03*
D49*
X500000Y391339D02*
D03*
X379661Y322590D02*
D03*
X379961Y309992D02*
D03*
Y303623D02*
D03*
X376858Y313189D02*
D03*
X269311Y262402D02*
D03*
X296543Y261221D02*
D03*
X319786Y260053D02*
D03*
X337882Y260433D02*
D03*
X369169Y271846D02*
D03*
X387118Y271850D02*
D03*
X430658Y266475D02*
D03*
X449299Y253346D02*
D03*
X449693Y283661D02*
D03*
X449299Y319882D02*
D03*
X450874Y350197D02*
D03*
X380402Y338386D02*
D03*
X395504Y352811D02*
D03*
X412291Y390354D02*
D03*
X401803Y368843D02*
D03*
X398654Y357677D02*
D03*
X533157Y391142D02*
D03*
X403630Y330906D02*
D03*
X418590D02*
D03*
Y317913D02*
D03*
X404024D02*
D03*
X352449Y388386D02*
D03*
X359929D02*
D03*
X356386Y379724D02*
D03*
X365835D02*
D03*
X350087Y367913D02*
D03*
X363472D02*
D03*
X401803Y272441D02*
D03*
D50*
X458661Y392913D02*
D03*
D51*
X366071Y241000D02*
D03*
X356071D02*
D03*
X366071Y266590D02*
D03*
X356071D02*
D03*
X435500Y241000D02*
D03*
X425500D02*
D03*
X435500Y266590D02*
D03*
X425500D02*
D03*
X273500Y241000D02*
D03*
X263500D02*
D03*
X273500Y266590D02*
D03*
X263500D02*
D03*
X296643Y241000D02*
D03*
X286643D02*
D03*
X296643Y266590D02*
D03*
X286643D02*
D03*
X319786Y241000D02*
D03*
X309786D02*
D03*
X319786Y266590D02*
D03*
X309786D02*
D03*
X342929Y241000D02*
D03*
X332928D02*
D03*
X342929Y266590D02*
D03*
X332928D02*
D03*
X389214Y241000D02*
D03*
X379214D02*
D03*
X389214Y266590D02*
D03*
X379214D02*
D03*
X412357Y241000D02*
D03*
X402357D02*
D03*
X412357Y266590D02*
D03*
X402357D02*
D03*
D52*
X478594Y377394D02*
D03*
Y360179D02*
D03*
Y342965D02*
D03*
X478594Y325751D02*
D03*
Y308537D02*
D03*
X478594Y291322D02*
D03*
Y274108D02*
D03*
Y256894D02*
D03*
D53*
X469343Y381134D02*
D03*
Y363919D02*
D03*
Y346705D02*
D03*
X469343Y329491D02*
D03*
Y312277D02*
D03*
X469343Y295062D02*
D03*
Y277848D02*
D03*
Y260634D02*
D03*
D54*
X469343Y373654D02*
D03*
Y356439D02*
D03*
Y339225D02*
D03*
Y322011D02*
D03*
Y304796D02*
D03*
Y287582D02*
D03*
Y270368D02*
D03*
Y253153D02*
D03*
M02*
