%FSLAX25Y25*%
%MOIN*%
G70*
G01*
G75*
G04 Layer_Color=128*
%ADD10R,0.05512X0.04724*%
%ADD11R,0.04921X0.03543*%
%ADD12R,0.33465X0.42126*%
%ADD13R,0.12205X0.04331*%
%ADD14R,0.05906X0.03937*%
%ADD15R,0.05906X0.05906*%
%ADD16R,0.01969X0.07874*%
%ADD17O,0.01969X0.07874*%
%ADD18R,0.03937X0.05906*%
%ADD19R,0.04724X0.05512*%
%ADD20R,0.01969X0.06890*%
%ADD21O,0.01969X0.06890*%
%ADD22O,0.06890X0.01969*%
%ADD23C,0.03937*%
%ADD24C,0.01969*%
%ADD25C,0.01000*%
%ADD26C,0.02362*%
%ADD27C,0.03150*%
%ADD28C,0.01575*%
%ADD29C,0.11811*%
%ADD30C,0.05906*%
%ADD31C,0.06693*%
%ADD32R,0.07087X0.07087*%
%ADD33C,0.07874*%
%ADD34R,0.07087X0.07087*%
%ADD35C,0.07480*%
%ADD36R,0.06693X0.06693*%
%ADD37C,0.10630*%
%ADD38R,0.09843X0.09843*%
%ADD39R,0.09843X0.09843*%
%ADD40C,0.17716*%
%ADD41C,0.04724*%
%ADD42R,0.04724X0.04724*%
G04:AMPARAMS|DCode=43|XSize=98.43mil|YSize=118.11mil|CornerRadius=24.61mil|HoleSize=0mil|Usage=FLASHONLY|Rotation=90.000|XOffset=0mil|YOffset=0mil|HoleType=Round|Shape=RoundedRectangle|*
%AMROUNDEDRECTD43*
21,1,0.09843,0.06890,0,0,90.0*
21,1,0.04921,0.11811,0,0,90.0*
1,1,0.04921,0.03445,0.02461*
1,1,0.04921,0.03445,-0.02461*
1,1,0.04921,-0.03445,-0.02461*
1,1,0.04921,-0.03445,0.02461*
%
%ADD43ROUNDEDRECTD43*%
%ADD44R,0.11811X0.09843*%
%ADD45C,0.04724*%
%ADD46R,0.04724X0.04724*%
%ADD47C,0.06200*%
%ADD48R,0.05906X0.05906*%
%ADD49C,0.01969*%
%ADD50C,0.02362*%
%ADD51R,0.02362X0.05906*%
%ADD52R,0.04724X0.03937*%
%ADD53R,0.04724X0.03543*%
%ADD54R,0.05118X0.03543*%
%ADD55C,0.00787*%
%ADD56C,0.00394*%
%ADD57C,0.00400*%
%ADD58C,0.00500*%
%ADD59C,0.01200*%
%ADD60C,0.00591*%
%ADD61C,0.00600*%
%ADD62C,0.00236*%
%ADD63C,0.00984*%
D10*
X454969Y371894D02*
D03*
Y379768D02*
D03*
Y354894D02*
D03*
Y362768D02*
D03*
Y337894D02*
D03*
Y345768D02*
D03*
X454969Y320894D02*
D03*
Y328768D02*
D03*
X454969Y286894D02*
D03*
Y294768D02*
D03*
Y303894D02*
D03*
Y311768D02*
D03*
Y277728D02*
D03*
Y269854D02*
D03*
X454969Y252894D02*
D03*
Y260768D02*
D03*
D19*
X251539Y396213D02*
D03*
X243665D02*
D03*
X291806D02*
D03*
X283932D02*
D03*
X372339Y395425D02*
D03*
X364465D02*
D03*
X412836Y395819D02*
D03*
X404962D02*
D03*
X452728Y396213D02*
D03*
X444854D02*
D03*
X493407D02*
D03*
X485533D02*
D03*
X533693D02*
D03*
X525819D02*
D03*
X324159Y395499D02*
D03*
X332033D02*
D03*
X281500Y231000D02*
D03*
X273626D02*
D03*
X304357D02*
D03*
X296483D02*
D03*
X327214D02*
D03*
X319340D02*
D03*
X372929D02*
D03*
X365054D02*
D03*
X395786D02*
D03*
X387912D02*
D03*
X418643D02*
D03*
X410769D02*
D03*
X350071D02*
D03*
X342197D02*
D03*
X441500D02*
D03*
X433626D02*
D03*
X243626Y406500D02*
D03*
X251500D02*
D03*
X263759D02*
D03*
X271633D02*
D03*
X304026D02*
D03*
X311900D02*
D03*
X283893D02*
D03*
X291767D02*
D03*
X344293D02*
D03*
X352167D02*
D03*
X324159D02*
D03*
X332033D02*
D03*
X384559D02*
D03*
X392433D02*
D03*
X364426D02*
D03*
X372300D02*
D03*
X424826D02*
D03*
X432700D02*
D03*
X404693D02*
D03*
X412567Y406500D02*
D03*
X444959Y406500D02*
D03*
X452833D02*
D03*
X465093D02*
D03*
X472967D02*
D03*
X485226D02*
D03*
X493100D02*
D03*
X505359D02*
D03*
X513233D02*
D03*
X545626D02*
D03*
X553500D02*
D03*
X525493D02*
D03*
X533367D02*
D03*
D51*
X366071Y241000D02*
D03*
X356071D02*
D03*
X366071Y266590D02*
D03*
X356071D02*
D03*
X435500Y241000D02*
D03*
X425500D02*
D03*
X435500Y266590D02*
D03*
X425500D02*
D03*
X273500Y241000D02*
D03*
X263500D02*
D03*
X273500Y266590D02*
D03*
X263500D02*
D03*
X296643Y241000D02*
D03*
X286643D02*
D03*
X296643Y266590D02*
D03*
X286643D02*
D03*
X319786Y241000D02*
D03*
X309786D02*
D03*
X319786Y266590D02*
D03*
X309786D02*
D03*
X342929Y241000D02*
D03*
X332928D02*
D03*
X342929Y266590D02*
D03*
X332928D02*
D03*
X389214Y241000D02*
D03*
X379214D02*
D03*
X389214Y266590D02*
D03*
X379214D02*
D03*
X412357Y241000D02*
D03*
X402357D02*
D03*
X412357Y266590D02*
D03*
X402357D02*
D03*
D52*
X478594Y377394D02*
D03*
Y360179D02*
D03*
Y342965D02*
D03*
X478594Y325751D02*
D03*
Y308537D02*
D03*
X478594Y291322D02*
D03*
Y274108D02*
D03*
Y256894D02*
D03*
D53*
X469343Y381134D02*
D03*
Y363919D02*
D03*
Y346705D02*
D03*
X469343Y329491D02*
D03*
Y312277D02*
D03*
X469343Y295062D02*
D03*
Y277848D02*
D03*
Y260634D02*
D03*
D54*
X469343Y373654D02*
D03*
Y356439D02*
D03*
Y339225D02*
D03*
Y322011D02*
D03*
Y304796D02*
D03*
Y287582D02*
D03*
Y270368D02*
D03*
Y253153D02*
D03*
M02*
