%FSLAX25Y25*%
%MOIN*%
G70*
G01*
G75*
G04 Layer_Physical_Order=1*
G04 Layer_Color=255*
%ADD10R,0.33465X0.42126*%
%ADD11R,0.12205X0.04331*%
%ADD12R,0.05906X0.03937*%
%ADD13R,0.05512X0.04724*%
%ADD14R,0.05906X0.05906*%
%ADD15R,0.01969X0.07874*%
%ADD16O,0.01969X0.07874*%
%ADD17R,0.04921X0.03543*%
%ADD18R,0.03543X0.02362*%
%ADD19R,0.03937X0.05906*%
%ADD20R,0.04724X0.05512*%
%ADD21R,0.01969X0.06890*%
%ADD22O,0.01969X0.06890*%
%ADD23O,0.06890X0.01969*%
%ADD24C,0.03937*%
%ADD25C,0.01000*%
%ADD26C,0.02362*%
%ADD27C,0.03150*%
%ADD28C,0.01969*%
%ADD29C,0.01575*%
%ADD30C,0.17716*%
%ADD31R,0.08268X0.08268*%
%ADD32C,0.08268*%
%ADD33R,0.08268X0.08268*%
%ADD34R,0.06102X0.06102*%
%ADD35C,0.06102*%
%ADD36R,0.06102X0.06102*%
%ADD37C,0.05906*%
%ADD38C,0.04724*%
%ADD39R,0.04724X0.04724*%
G04:AMPARAMS|DCode=40|XSize=98.43mil|YSize=118.11mil|CornerRadius=24.61mil|HoleSize=0mil|Usage=FLASHONLY|Rotation=90.000|XOffset=0mil|YOffset=0mil|HoleType=Round|Shape=RoundedRectangle|*
%AMROUNDEDRECTD40*
21,1,0.09843,0.06890,0,0,90.0*
21,1,0.04921,0.11811,0,0,90.0*
1,1,0.04921,0.03445,0.02461*
1,1,0.04921,0.03445,-0.02461*
1,1,0.04921,-0.03445,-0.02461*
1,1,0.04921,-0.03445,0.02461*
%
%ADD40ROUNDEDRECTD40*%
%ADD41R,0.11811X0.09843*%
%ADD42C,0.11811*%
%ADD43C,0.04724*%
%ADD44R,0.04724X0.04724*%
%ADD45C,0.06200*%
%ADD46R,0.05906X0.05906*%
%ADD47C,0.01969*%
G36*
X562598Y440945D02*
X594095Y409449D01*
Y273622D01*
Y235433D01*
X592913Y234252D01*
X546457Y187795D01*
X239764D01*
X239370Y187402D01*
X194882Y231890D01*
Y355906D01*
Y403937D01*
X195276Y404331D01*
X237795Y446850D01*
X556693D01*
X562598Y440945D01*
D02*
G37*
%LPC*%
G36*
X324020Y274228D02*
X321059D01*
Y271957D01*
X324020D01*
Y274228D01*
D02*
G37*
G36*
X492500Y276391D02*
X491622Y276276D01*
X490804Y275937D01*
X490102Y275398D01*
X489563Y274696D01*
X489224Y273878D01*
X489109Y273000D01*
X487169Y272745D01*
X479598D01*
Y274474D01*
X473661D01*
Y266568D01*
X479598D01*
Y268297D01*
X490021D01*
X490021Y268297D01*
X490872Y268466D01*
X491593Y268948D01*
X492282Y269637D01*
X492500Y269609D01*
X493378Y269724D01*
X494196Y270063D01*
X494898Y270602D01*
X495437Y271304D01*
X495776Y272122D01*
X495891Y273000D01*
X495776Y273878D01*
X495437Y274696D01*
X494898Y275398D01*
X494196Y275937D01*
X493378Y276276D01*
X492500Y276391D01*
D02*
G37*
G36*
X320059Y274228D02*
X317098D01*
Y271957D01*
X320059D01*
Y274228D01*
D02*
G37*
G36*
Y270957D02*
X317098D01*
Y268685D01*
X320059D01*
Y270957D01*
D02*
G37*
G36*
X324020D02*
X321059D01*
Y268685D01*
X324020D01*
Y270957D01*
D02*
G37*
G36*
X225819Y316921D02*
X212008D01*
Y305079D01*
X225819D01*
Y308403D01*
X232302D01*
X240738Y299968D01*
Y283732D01*
X239382D01*
Y275827D01*
X247287D01*
Y283732D01*
X245932D01*
Y301043D01*
X245843Y301715D01*
X245584Y302342D01*
X245171Y302880D01*
X235214Y312836D01*
X234677Y313249D01*
X234050Y313509D01*
X233378Y313597D01*
X225819D01*
Y316921D01*
D02*
G37*
G36*
X319665Y288673D02*
X317394D01*
Y286992D01*
X319665D01*
Y288673D01*
D02*
G37*
G36*
X322937D02*
X320665D01*
Y286992D01*
X322937D01*
Y288673D01*
D02*
G37*
G36*
X512500Y312558D02*
X511622Y312442D01*
X510804Y312104D01*
X510102Y311565D01*
X509563Y310862D01*
X509224Y310044D01*
X509109Y309167D01*
X509224Y308289D01*
X509506Y307609D01*
Y290724D01*
X509224Y290044D01*
X509109Y289167D01*
X509224Y288289D01*
X509563Y287471D01*
X510102Y286769D01*
X510804Y286230D01*
X511622Y285891D01*
X512500Y285775D01*
X513378Y285891D01*
X514196Y286230D01*
X514898Y286769D01*
X515437Y287471D01*
X515776Y288289D01*
X515891Y289167D01*
X515776Y290044D01*
X515494Y290724D01*
Y307609D01*
X515776Y308289D01*
X515891Y309167D01*
X515776Y310044D01*
X515437Y310862D01*
X514898Y311565D01*
X514196Y312104D01*
X513378Y312442D01*
X512500Y312558D01*
D02*
G37*
G36*
X522500D02*
X521622Y312442D01*
X520804Y312104D01*
X520102Y311565D01*
X519563Y310862D01*
X519224Y310044D01*
X519109Y309167D01*
X519224Y308289D01*
X519506Y307609D01*
Y290724D01*
X519224Y290044D01*
X519109Y289167D01*
X519224Y288289D01*
X519563Y287471D01*
X520102Y286769D01*
X520804Y286230D01*
X521484Y285948D01*
X527857Y279576D01*
X528477Y279100D01*
X528838Y278950D01*
X529199Y278801D01*
X529974Y278699D01*
X570193D01*
X570968Y278801D01*
X571126Y278866D01*
X577634D01*
Y289134D01*
X567366D01*
Y284687D01*
X531214D01*
X525718Y290183D01*
X525494Y290724D01*
Y307609D01*
X525776Y308289D01*
X525891Y309167D01*
X525776Y310044D01*
X525437Y310862D01*
X524898Y311565D01*
X524196Y312104D01*
X523378Y312442D01*
X522500Y312558D01*
D02*
G37*
G36*
X232665Y298805D02*
X231312Y298672D01*
X230010Y298277D01*
X228810Y297636D01*
X227759Y296773D01*
X226896Y295721D01*
X226255Y294521D01*
X225860Y293220D01*
X225726Y291866D01*
X225860Y290512D01*
X226255Y289211D01*
X226896Y288011D01*
X227759Y286960D01*
X228810Y286097D01*
X230010Y285455D01*
X231312Y285061D01*
X232665Y284927D01*
X234019Y285061D01*
X235321Y285455D01*
X236520Y286097D01*
X237572Y286960D01*
X238435Y288011D01*
X239076Y289211D01*
X239471Y290512D01*
X239604Y291866D01*
X239471Y293220D01*
X239076Y294521D01*
X238435Y295721D01*
X237572Y296773D01*
X236520Y297636D01*
X235321Y298277D01*
X234019Y298672D01*
X232665Y298805D01*
D02*
G37*
G36*
X302173Y273677D02*
X301399Y273523D01*
X300743Y273084D01*
X300304Y272428D01*
X300150Y271654D01*
Y265748D01*
X300304Y264974D01*
X300743Y264317D01*
X301399Y263879D01*
X302173Y263725D01*
X302947Y263879D01*
X303604Y264317D01*
X304042Y264974D01*
X304196Y265748D01*
Y271654D01*
X304042Y272428D01*
X303604Y273084D01*
X302947Y273523D01*
X302173Y273677D01*
D02*
G37*
G36*
X512500Y276391D02*
X511622Y276276D01*
X510804Y275937D01*
X510102Y275398D01*
X509563Y274696D01*
X509224Y273878D01*
X509109Y273000D01*
X509224Y272122D01*
X509506Y271443D01*
Y254557D01*
X509224Y253878D01*
X509109Y253000D01*
X509224Y252122D01*
X509563Y251304D01*
X510102Y250602D01*
X510804Y250063D01*
X511622Y249724D01*
X512500Y249609D01*
X513378Y249724D01*
X514196Y250063D01*
X514898Y250602D01*
X515437Y251304D01*
X515776Y252122D01*
X515891Y253000D01*
X515776Y253878D01*
X515494Y254557D01*
Y271443D01*
X515776Y272122D01*
X515891Y273000D01*
X515776Y273878D01*
X515437Y274696D01*
X514898Y275398D01*
X514196Y275937D01*
X513378Y276276D01*
X512500Y276391D01*
D02*
G37*
G36*
X242835Y255945D02*
X242303Y255875D01*
X241341Y255476D01*
X240515Y254843D01*
X239882Y254017D01*
X239484Y253056D01*
X239414Y252524D01*
X242835D01*
Y255945D01*
D02*
G37*
G36*
X247256Y251524D02*
X243835D01*
Y248103D01*
X244367Y248173D01*
X245328Y248571D01*
X246154Y249204D01*
X246787Y250030D01*
X247186Y250992D01*
X247256Y251524D01*
D02*
G37*
G36*
X296543Y263244D02*
X295769Y263090D01*
X295113Y262651D01*
X285303Y252842D01*
X284865Y252185D01*
X284711Y251411D01*
Y249606D01*
X282781D01*
Y243669D01*
X288912D01*
X289104Y243207D01*
X286841Y240945D01*
X282781D01*
Y235008D01*
X290687D01*
Y239068D01*
X294749Y243130D01*
X295211Y242939D01*
Y242724D01*
X302723D01*
Y249449D01*
X295211D01*
Y248110D01*
X294844D01*
X294070Y247956D01*
X293413Y247517D01*
X291148Y245252D01*
X290687Y245444D01*
Y249606D01*
X288757D01*
Y250573D01*
X297974Y259790D01*
X298412Y260446D01*
X298566Y261221D01*
X298412Y261995D01*
X297974Y262651D01*
X297318Y263090D01*
X296543Y263244D01*
D02*
G37*
G36*
X242835Y251524D02*
X239414D01*
X239484Y250992D01*
X239882Y250030D01*
X240515Y249204D01*
X241341Y248571D01*
X242303Y248173D01*
X242835Y248103D01*
Y251524D01*
D02*
G37*
G36*
X243835Y255945D02*
Y252524D01*
X247256D01*
X247186Y253056D01*
X246787Y254017D01*
X246154Y254843D01*
X245328Y255476D01*
X244367Y255875D01*
X243835Y255945D01*
D02*
G37*
G36*
X292173Y273677D02*
X291399Y273523D01*
X290743Y273084D01*
X290304Y272428D01*
X290150Y271654D01*
Y265748D01*
X290304Y264974D01*
X290743Y264317D01*
X291399Y263879D01*
X292173Y263725D01*
X292947Y263879D01*
X293604Y264317D01*
X294042Y264974D01*
X294196Y265748D01*
Y271654D01*
X294042Y272428D01*
X293604Y273084D01*
X292947Y273523D01*
X292173Y273677D01*
D02*
G37*
G36*
X297173D02*
X296399Y273523D01*
X295743Y273084D01*
X295304Y272428D01*
X295150Y271654D01*
Y265748D01*
X295304Y264974D01*
X295743Y264317D01*
X296399Y263879D01*
X297173Y263725D01*
X297947Y263879D01*
X298604Y264317D01*
X299042Y264974D01*
X299196Y265748D01*
Y271654D01*
X299042Y272428D01*
X298604Y273084D01*
X297947Y273523D01*
X297173Y273677D01*
D02*
G37*
G36*
X287173D02*
X286399Y273523D01*
X285743Y273084D01*
X285304Y272428D01*
X285150Y271654D01*
Y265748D01*
X285304Y264974D01*
X285743Y264317D01*
X286399Y263879D01*
X287173Y263725D01*
X287947Y263879D01*
X288604Y264317D01*
X289042Y264974D01*
X289196Y265748D01*
Y271654D01*
X289042Y272428D01*
X288604Y273084D01*
X287947Y273523D01*
X287173Y273677D01*
D02*
G37*
G36*
X532500Y276391D02*
X531622Y276276D01*
X530804Y275937D01*
X530102Y275398D01*
X529563Y274696D01*
X529224Y273878D01*
X529109Y273000D01*
X529224Y272122D01*
X529506Y271443D01*
Y254557D01*
X529224Y253878D01*
X529109Y253000D01*
X529224Y252122D01*
X529563Y251304D01*
X530102Y250602D01*
X530804Y250063D01*
X531622Y249724D01*
X532500Y249609D01*
X533378Y249724D01*
X534196Y250063D01*
X534898Y250602D01*
X535437Y251304D01*
X535776Y252122D01*
X535891Y253000D01*
X535776Y253878D01*
X535494Y254557D01*
Y270006D01*
X562260D01*
X567432Y264834D01*
X567322Y264000D01*
X567498Y262660D01*
X568016Y261411D01*
X568839Y260338D01*
X569911Y259516D01*
X571160Y258998D01*
X572500Y258822D01*
X573840Y258998D01*
X575089Y259516D01*
X576161Y260338D01*
X576984Y261411D01*
X577502Y262660D01*
X577678Y264000D01*
X577502Y265340D01*
X576984Y266589D01*
X576161Y267661D01*
X575089Y268484D01*
X573840Y269002D01*
X572500Y269178D01*
X571666Y269068D01*
X565617Y275117D01*
X564997Y275593D01*
X564486Y275804D01*
X564275Y275892D01*
X563500Y275994D01*
X534057D01*
X533378Y276276D01*
X532500Y276391D01*
D02*
G37*
G36*
X282173Y273677D02*
X281399Y273523D01*
X280743Y273084D01*
X280304Y272428D01*
X280150Y271654D01*
Y265748D01*
X280304Y264974D01*
X280743Y264317D01*
X281399Y263879D01*
X282173Y263725D01*
X282947Y263879D01*
X283604Y264317D01*
X284042Y264974D01*
X284196Y265748D01*
Y271654D01*
X284042Y272428D01*
X283604Y273084D01*
X282947Y273523D01*
X282173Y273677D01*
D02*
G37*
G36*
X287173Y297299D02*
X286399Y297145D01*
X285743Y296706D01*
X285304Y296050D01*
X285150Y295276D01*
Y289370D01*
X285304Y288596D01*
X285351Y288526D01*
Y287326D01*
X284872Y287181D01*
X284675Y287477D01*
X284674Y287477D01*
X283996Y288156D01*
Y288526D01*
X284042Y288596D01*
X284196Y289370D01*
Y295276D01*
X284042Y296050D01*
X283604Y296706D01*
X282947Y297145D01*
X282173Y297299D01*
X281399Y297145D01*
X280743Y296706D01*
X280304Y296050D01*
X280150Y295276D01*
Y289370D01*
X280304Y288596D01*
X280351Y288526D01*
Y287401D01*
X280351Y287401D01*
X280489Y286704D01*
X280885Y286112D01*
X281563Y285434D01*
Y283629D01*
X278300Y280366D01*
X260831D01*
X260134Y280227D01*
X259542Y279832D01*
X259542Y279832D01*
X253703Y273993D01*
X253308Y273402D01*
X253170Y272704D01*
X253170Y272704D01*
Y270522D01*
X251596Y268948D01*
X247570D01*
X247241Y269324D01*
X247322Y269937D01*
X247186Y270969D01*
X246787Y271930D01*
X246154Y272756D01*
X245328Y273390D01*
X244367Y273788D01*
X243335Y273924D01*
X242303Y273788D01*
X241341Y273390D01*
X240515Y272756D01*
X239882Y271930D01*
X239484Y270969D01*
X239348Y269937D01*
X239484Y268905D01*
X239882Y267944D01*
X240515Y267118D01*
X241341Y266484D01*
X241907Y266250D01*
Y265750D01*
X241341Y265516D01*
X240515Y264882D01*
X239882Y264056D01*
X239484Y263095D01*
X239348Y262063D01*
X239484Y261031D01*
X239882Y260070D01*
X240515Y259244D01*
X241341Y258610D01*
X242303Y258212D01*
X243335Y258076D01*
X244367Y258212D01*
X245328Y258610D01*
X246154Y259244D01*
X246787Y260070D01*
X247186Y261031D01*
X247322Y262063D01*
X247283Y262353D01*
X247613Y262729D01*
X253417D01*
X253417Y262729D01*
X254115Y262867D01*
X254706Y263263D01*
X258856Y267412D01*
X258856Y267412D01*
X259092Y267767D01*
X259251Y268003D01*
X259389Y268701D01*
X259389Y268701D01*
X259389Y268701D01*
Y268701D01*
Y270883D01*
X262652Y274146D01*
X271983D01*
X272032Y273649D01*
X272032Y273649D01*
X272032D01*
X271399Y273523D01*
X270743Y273084D01*
X270304Y272428D01*
X270150Y271654D01*
Y265748D01*
X270304Y264974D01*
X270617Y264505D01*
X270264Y264151D01*
X270085Y264271D01*
X269311Y264425D01*
X268537Y264271D01*
X267881Y263832D01*
X260207Y256159D01*
X259769Y255503D01*
X259615Y254728D01*
Y249606D01*
X257685D01*
Y243669D01*
X265591D01*
Y249606D01*
X263661D01*
Y253890D01*
X270742Y260971D01*
X271180Y261627D01*
X271334Y262402D01*
X271180Y263176D01*
X270867Y263645D01*
X271220Y263998D01*
X271399Y263879D01*
X272173Y263725D01*
X272947Y263879D01*
X273604Y264317D01*
X274042Y264974D01*
X274196Y265748D01*
Y271654D01*
X274042Y272428D01*
X273604Y273084D01*
X272947Y273523D01*
X272315Y273649D01*
X272364Y274146D01*
X276983D01*
X277032Y273649D01*
X277032Y273649D01*
X277032D01*
X276399Y273523D01*
X275743Y273084D01*
X275304Y272428D01*
X275150Y271654D01*
Y265748D01*
X275304Y264974D01*
X275743Y264317D01*
X276399Y263879D01*
X277173Y263725D01*
X277947Y263879D01*
X278604Y264317D01*
X279042Y264974D01*
X279196Y265748D01*
Y271654D01*
X279042Y272428D01*
X278604Y273084D01*
X277947Y273523D01*
X277315Y273649D01*
X277364Y274146D01*
X280122D01*
X280122Y274146D01*
X280819Y274285D01*
X281410Y274680D01*
X288462Y281731D01*
X288462Y281731D01*
X288699Y282086D01*
X288857Y282323D01*
X288996Y283020D01*
Y288526D01*
X289042Y288596D01*
X289196Y289370D01*
Y295276D01*
X289042Y296050D01*
X288604Y296706D01*
X287947Y297145D01*
X287173Y297299D01*
D02*
G37*
G36*
X492500Y312558D02*
X491622Y312442D01*
X490804Y312104D01*
X490102Y311565D01*
X489968Y311390D01*
X484253D01*
X484253Y311390D01*
X483402Y311221D01*
X483113Y311028D01*
X482681Y310739D01*
X482681Y310739D01*
X482310Y310369D01*
X479598D01*
Y312098D01*
X473661D01*
Y304192D01*
X479598D01*
Y305921D01*
X483232D01*
X483232Y305921D01*
X484083Y306090D01*
X484804Y306573D01*
X485174Y306943D01*
X489968D01*
X490102Y306769D01*
X490804Y306230D01*
X491622Y305891D01*
X492500Y305775D01*
X493378Y305891D01*
X494196Y306230D01*
X494898Y306769D01*
X495437Y307471D01*
X495776Y308289D01*
X495891Y309167D01*
X495776Y310044D01*
X495437Y310862D01*
X494898Y311565D01*
X494196Y312104D01*
X493378Y312442D01*
X492500Y312558D01*
D02*
G37*
G36*
X403524Y317413D02*
X402100D01*
X402154Y317139D01*
X402593Y316483D01*
X403249Y316044D01*
X403524Y315990D01*
Y317413D01*
D02*
G37*
G36*
X326382Y313205D02*
X323421D01*
Y310933D01*
X326382D01*
Y313205D01*
D02*
G37*
G36*
X264571D02*
X261610D01*
Y310933D01*
X264571D01*
Y313205D01*
D02*
G37*
G36*
X322421D02*
X319461D01*
Y310933D01*
X322421D01*
Y313205D01*
D02*
G37*
G36*
X405947Y317413D02*
X404524D01*
Y315990D01*
X404798Y316044D01*
X405454Y316483D01*
X405893Y317139D01*
X405947Y317413D01*
D02*
G37*
G36*
X404524Y319837D02*
Y318413D01*
X405947D01*
X405893Y318688D01*
X405454Y319344D01*
X404798Y319782D01*
X404524Y319837D01*
D02*
G37*
G36*
X418090D02*
X417816Y319782D01*
X417160Y319344D01*
X416721Y318688D01*
X416667Y318413D01*
X418090D01*
Y319837D01*
D02*
G37*
G36*
X403524D02*
X403249Y319782D01*
X402593Y319344D01*
X402154Y318688D01*
X402100Y318413D01*
X403524D01*
Y319837D01*
D02*
G37*
G36*
X418090Y317413D02*
X416667D01*
X416721Y317139D01*
X417160Y316483D01*
X417816Y316044D01*
X418090Y315990D01*
Y317413D01*
D02*
G37*
G36*
X420514D02*
X419091D01*
Y315990D01*
X419365Y316044D01*
X420021Y316483D01*
X420460Y317139D01*
X420514Y317413D01*
D02*
G37*
G36*
X260610Y313205D02*
X257650D01*
Y310933D01*
X260610D01*
Y313205D01*
D02*
G37*
G36*
X319665Y291354D02*
X317394D01*
Y289673D01*
X319665D01*
Y291354D01*
D02*
G37*
G36*
X322937D02*
X320665D01*
Y289673D01*
X322937D01*
Y291354D01*
D02*
G37*
G36*
X309157Y291823D02*
X307673D01*
Y287386D01*
X309157D01*
Y291823D01*
D02*
G37*
G36*
X470937Y312098D02*
X465000D01*
Y304192D01*
X465981D01*
Y294774D01*
X464843D01*
Y287262D01*
X471567D01*
Y294774D01*
X470429D01*
Y304192D01*
X470937D01*
Y312098D01*
D02*
G37*
G36*
X306673Y291823D02*
X305189D01*
Y287386D01*
X306673D01*
Y291823D01*
D02*
G37*
G36*
X532500Y312558D02*
X531622Y312442D01*
X530804Y312104D01*
X530102Y311565D01*
X529563Y310862D01*
X529224Y310044D01*
X529109Y309167D01*
X529224Y308289D01*
X529506Y307609D01*
Y290724D01*
X529224Y290044D01*
X529109Y289167D01*
X529224Y288289D01*
X529563Y287471D01*
X530102Y286769D01*
X530804Y286230D01*
X531622Y285891D01*
X532500Y285775D01*
X533378Y285891D01*
X534196Y286230D01*
X534898Y286769D01*
X535437Y287471D01*
X535776Y288289D01*
X535891Y289167D01*
X535776Y290044D01*
X535494Y290724D01*
Y306172D01*
X543420D01*
X547710Y301883D01*
X548330Y301407D01*
X548629Y301283D01*
X549052Y301108D01*
X549827Y301006D01*
X568326D01*
X568839Y300339D01*
X569911Y299516D01*
X571160Y298998D01*
X572500Y298822D01*
X573840Y298998D01*
X575089Y299516D01*
X576161Y300339D01*
X576984Y301411D01*
X577502Y302660D01*
X577678Y304000D01*
X577502Y305340D01*
X576984Y306589D01*
X576161Y307662D01*
X575089Y308484D01*
X573840Y309002D01*
X572500Y309178D01*
X571160Y309002D01*
X569911Y308484D01*
X568839Y307662D01*
X568326Y306994D01*
X551067D01*
X546777Y311284D01*
X546157Y311760D01*
X545647Y311971D01*
X545435Y312059D01*
X544660Y312161D01*
X534057D01*
X533378Y312442D01*
X532500Y312558D01*
D02*
G37*
G36*
X322421Y309933D02*
X319461D01*
Y307661D01*
X322421D01*
Y309933D01*
D02*
G37*
G36*
X326382D02*
X323421D01*
Y307661D01*
X326382D01*
Y309933D01*
D02*
G37*
G36*
X264571D02*
X261610D01*
Y307661D01*
X264571D01*
Y309933D01*
D02*
G37*
G36*
Y319504D02*
X257650D01*
Y313961D01*
X264571D01*
Y314709D01*
X274131D01*
X277685Y311154D01*
X277667Y311110D01*
X277526Y310039D01*
X277667Y308969D01*
X277685Y308925D01*
X270743Y301982D01*
X270304Y301325D01*
X270150Y300551D01*
Y295276D01*
Y292323D01*
Y289370D01*
X270304Y288596D01*
X270743Y287940D01*
X271399Y287501D01*
X272173Y287347D01*
X272947Y287501D01*
X273604Y287940D01*
X274042Y288596D01*
X274196Y289370D01*
Y295276D01*
Y299713D01*
X280546Y306063D01*
X280591Y306045D01*
X281661Y305904D01*
X282732Y306045D01*
X283729Y306458D01*
X284586Y307115D01*
X285243Y307972D01*
X285656Y308969D01*
X285797Y310039D01*
X285656Y311110D01*
X285243Y312107D01*
X284586Y312964D01*
X283729Y313621D01*
X282732Y314034D01*
X281661Y314175D01*
X280591Y314034D01*
X280546Y314015D01*
X276399Y318163D01*
X275743Y318601D01*
X274969Y318755D01*
X264571D01*
Y319504D01*
D02*
G37*
G36*
X260610Y309933D02*
X257650D01*
Y307661D01*
X260610D01*
Y309933D01*
D02*
G37*
G36*
X501941Y243685D02*
X501409Y243615D01*
X500448Y243216D01*
X499622Y242583D01*
X498988Y241757D01*
X498590Y240796D01*
X498520Y240264D01*
X501941D01*
Y243685D01*
D02*
G37*
G36*
X393112Y208000D02*
X388500D01*
Y203388D01*
X389340Y203498D01*
X390589Y204016D01*
X391662Y204838D01*
X392484Y205911D01*
X393002Y207160D01*
X393112Y208000D01*
D02*
G37*
G36*
X427500D02*
X422888D01*
X422998Y207160D01*
X423516Y205911D01*
X424338Y204838D01*
X425411Y204016D01*
X426660Y203498D01*
X427500Y203388D01*
Y208000D01*
D02*
G37*
G36*
X387500D02*
X382888D01*
X382998Y207160D01*
X383516Y205911D01*
X384338Y204838D01*
X385411Y204016D01*
X386660Y203498D01*
X387500Y203388D01*
Y208000D01*
D02*
G37*
G36*
X347500D02*
X342888D01*
X342998Y207160D01*
X343516Y205911D01*
X344338Y204838D01*
X345411Y204016D01*
X346660Y203498D01*
X347500Y203388D01*
Y208000D01*
D02*
G37*
G36*
X353112D02*
X348500D01*
Y203388D01*
X349340Y203498D01*
X350589Y204016D01*
X351661Y204838D01*
X352484Y205911D01*
X353002Y207160D01*
X353112Y208000D01*
D02*
G37*
G36*
X433112D02*
X428500D01*
Y203388D01*
X429340Y203498D01*
X430589Y204016D01*
X431662Y204838D01*
X432484Y205911D01*
X433002Y207160D01*
X433112Y208000D01*
D02*
G37*
G36*
X513112D02*
X508500D01*
Y203388D01*
X509340Y203498D01*
X510589Y204016D01*
X511661Y204838D01*
X512484Y205911D01*
X513002Y207160D01*
X513112Y208000D01*
D02*
G37*
G36*
X547500D02*
X542888D01*
X542998Y207160D01*
X543516Y205911D01*
X544339Y204838D01*
X545411Y204016D01*
X546660Y203498D01*
X547500Y203388D01*
Y208000D01*
D02*
G37*
G36*
X507500D02*
X502888D01*
X502998Y207160D01*
X503516Y205911D01*
X504339Y204838D01*
X505411Y204016D01*
X506660Y203498D01*
X507500Y203388D01*
Y208000D01*
D02*
G37*
G36*
X467500D02*
X462888D01*
X462998Y207160D01*
X463516Y205911D01*
X464338Y204838D01*
X465411Y204016D01*
X466660Y203498D01*
X467500Y203388D01*
Y208000D01*
D02*
G37*
G36*
X473112D02*
X468500D01*
Y203388D01*
X469340Y203498D01*
X470589Y204016D01*
X471662Y204838D01*
X472484Y205911D01*
X473002Y207160D01*
X473112Y208000D01*
D02*
G37*
G36*
X313112D02*
X308500D01*
Y203388D01*
X309340Y203498D01*
X310589Y204016D01*
X311662Y204838D01*
X312484Y205911D01*
X313002Y207160D01*
X313112Y208000D01*
D02*
G37*
G36*
X373134Y213634D02*
X362866D01*
Y203366D01*
X373134D01*
Y213634D01*
D02*
G37*
G36*
X413134D02*
X402866D01*
Y203366D01*
X413134D01*
Y213634D01*
D02*
G37*
G36*
X333134D02*
X322866D01*
Y203366D01*
X333134D01*
Y213634D01*
D02*
G37*
G36*
X253134D02*
X242866D01*
Y203366D01*
X253134D01*
Y213634D01*
D02*
G37*
G36*
X293134D02*
X282866D01*
Y203366D01*
X293134D01*
Y213634D01*
D02*
G37*
G36*
X453134D02*
X442866D01*
Y203366D01*
X453134D01*
Y213634D01*
D02*
G37*
G36*
X273112Y208000D02*
X268500D01*
Y203388D01*
X269340Y203498D01*
X270589Y204016D01*
X271661Y204838D01*
X272484Y205911D01*
X273002Y207160D01*
X273112Y208000D01*
D02*
G37*
G36*
X307500D02*
X302888D01*
X302998Y207160D01*
X303516Y205911D01*
X304339Y204838D01*
X305411Y204016D01*
X306660Y203498D01*
X307500Y203388D01*
Y208000D01*
D02*
G37*
G36*
X267500D02*
X262888D01*
X262998Y207160D01*
X263516Y205911D01*
X264338Y204838D01*
X265411Y204016D01*
X266660Y203498D01*
X267500Y203388D01*
Y208000D01*
D02*
G37*
G36*
X493134Y213634D02*
X482866D01*
Y203366D01*
X493134D01*
Y213634D01*
D02*
G37*
G36*
X533134D02*
X522866D01*
Y203366D01*
X533134D01*
Y213634D01*
D02*
G37*
G36*
X553112Y208000D02*
X548500D01*
Y203388D01*
X549340Y203498D01*
X550589Y204016D01*
X551661Y204838D01*
X552484Y205911D01*
X553002Y207160D01*
X553112Y208000D01*
D02*
G37*
G36*
X548500Y213612D02*
Y209000D01*
X553112D01*
X553002Y209840D01*
X552484Y211089D01*
X551661Y212161D01*
X550589Y212984D01*
X549340Y213502D01*
X548500Y213612D01*
D02*
G37*
G36*
X232665Y247073D02*
X231312Y246939D01*
X230010Y246545D01*
X228810Y245903D01*
X227759Y245040D01*
X226896Y243989D01*
X226255Y242789D01*
X225860Y241488D01*
X225726Y240134D01*
X225860Y238780D01*
X226255Y237478D01*
X226896Y236279D01*
X227759Y235227D01*
X228810Y234364D01*
X230010Y233723D01*
X231312Y233328D01*
X232665Y233195D01*
X234019Y233328D01*
X235321Y233723D01*
X236520Y234364D01*
X237572Y235227D01*
X238435Y236279D01*
X239076Y237478D01*
X239471Y238780D01*
X239604Y240134D01*
X239471Y241488D01*
X239076Y242789D01*
X238435Y243989D01*
X237572Y245040D01*
X236520Y245903D01*
X235321Y246545D01*
X234019Y246939D01*
X232665Y247073D01*
D02*
G37*
G36*
X547500Y213612D02*
X546660Y213502D01*
X545411Y212984D01*
X544339Y212161D01*
X543516Y211089D01*
X542998Y209840D01*
X542888Y209000D01*
X547500D01*
Y213612D01*
D02*
G37*
G36*
X507500D02*
X506660Y213502D01*
X505411Y212984D01*
X504339Y212161D01*
X503516Y211089D01*
X502998Y209840D01*
X502888Y209000D01*
X507500D01*
Y213612D01*
D02*
G37*
G36*
X508500D02*
Y209000D01*
X513112D01*
X513002Y209840D01*
X512484Y211089D01*
X511661Y212161D01*
X510589Y212984D01*
X509340Y213502D01*
X508500Y213612D01*
D02*
G37*
G36*
X491941Y239264D02*
X488520D01*
X488590Y238732D01*
X488988Y237770D01*
X489622Y236945D01*
X490448Y236311D01*
X491409Y235913D01*
X491941Y235843D01*
Y239264D01*
D02*
G37*
G36*
Y243685D02*
X491409Y243615D01*
X490448Y243216D01*
X489622Y242583D01*
X488988Y241757D01*
X488590Y240796D01*
X488520Y240264D01*
X491941D01*
Y243685D01*
D02*
G37*
G36*
X492941D02*
Y240264D01*
X496362D01*
X496292Y240796D01*
X495894Y241757D01*
X495260Y242583D01*
X494434Y243216D01*
X493473Y243615D01*
X492941Y243685D01*
D02*
G37*
G36*
X522500Y276391D02*
X521622Y276276D01*
X520804Y275937D01*
X520102Y275398D01*
X519563Y274696D01*
X519224Y273878D01*
X519109Y273000D01*
X519224Y272122D01*
X519506Y271443D01*
Y254557D01*
X519224Y253878D01*
X519109Y253000D01*
X519224Y252122D01*
X519563Y251304D01*
X520102Y250602D01*
X520804Y250063D01*
X521484Y249782D01*
X529383Y241883D01*
X530003Y241407D01*
X530514Y241196D01*
X530725Y241108D01*
X531500Y241006D01*
X567366D01*
Y238866D01*
X577634D01*
Y249134D01*
X567366D01*
Y246994D01*
X532740D01*
X525718Y254016D01*
X525494Y254557D01*
Y271443D01*
X525776Y272122D01*
X525891Y273000D01*
X525776Y273878D01*
X525437Y274696D01*
X524898Y275398D01*
X524196Y275937D01*
X523378Y276276D01*
X522500Y276391D01*
D02*
G37*
G36*
X496362Y239264D02*
X492941D01*
Y235843D01*
X493473Y235913D01*
X494434Y236311D01*
X495260Y236945D01*
X495894Y237770D01*
X496292Y238732D01*
X496362Y239264D01*
D02*
G37*
G36*
X501941D02*
X498520D01*
X498590Y238732D01*
X498988Y237770D01*
X499622Y236945D01*
X500448Y236311D01*
X501409Y235913D01*
X501941Y235843D01*
Y239264D01*
D02*
G37*
G36*
X468500Y213612D02*
Y209000D01*
X473112D01*
X473002Y209840D01*
X472484Y211089D01*
X471662Y212161D01*
X470589Y212984D01*
X469340Y213502D01*
X468500Y213612D01*
D02*
G37*
G36*
X308500D02*
Y209000D01*
X313112D01*
X313002Y209840D01*
X312484Y211089D01*
X311662Y212161D01*
X310589Y212984D01*
X309340Y213502D01*
X308500Y213612D01*
D02*
G37*
G36*
X347500D02*
X346660Y213502D01*
X345411Y212984D01*
X344338Y212161D01*
X343516Y211089D01*
X342998Y209840D01*
X342888Y209000D01*
X347500D01*
Y213612D01*
D02*
G37*
G36*
X307500D02*
X306660Y213502D01*
X305411Y212984D01*
X304339Y212161D01*
X303516Y211089D01*
X302998Y209840D01*
X302888Y209000D01*
X307500D01*
Y213612D01*
D02*
G37*
G36*
X267500D02*
X266660Y213502D01*
X265411Y212984D01*
X264338Y212161D01*
X263516Y211089D01*
X262998Y209840D01*
X262888Y209000D01*
X267500D01*
Y213612D01*
D02*
G37*
G36*
X268500D02*
Y209000D01*
X273112D01*
X273002Y209840D01*
X272484Y211089D01*
X271661Y212161D01*
X270589Y212984D01*
X269340Y213502D01*
X268500Y213612D01*
D02*
G37*
G36*
X348500D02*
Y209000D01*
X353112D01*
X353002Y209840D01*
X352484Y211089D01*
X351661Y212161D01*
X350589Y212984D01*
X349340Y213502D01*
X348500Y213612D01*
D02*
G37*
G36*
X428500D02*
Y209000D01*
X433112D01*
X433002Y209840D01*
X432484Y211089D01*
X431662Y212161D01*
X430589Y212984D01*
X429340Y213502D01*
X428500Y213612D01*
D02*
G37*
G36*
X467500D02*
X466660Y213502D01*
X465411Y212984D01*
X464338Y212161D01*
X463516Y211089D01*
X462998Y209840D01*
X462888Y209000D01*
X467500D01*
Y213612D01*
D02*
G37*
G36*
X427500D02*
X426660Y213502D01*
X425411Y212984D01*
X424338Y212161D01*
X423516Y211089D01*
X422998Y209840D01*
X422888Y209000D01*
X427500D01*
Y213612D01*
D02*
G37*
G36*
X387500D02*
X386660Y213502D01*
X385411Y212984D01*
X384338Y212161D01*
X383516Y211089D01*
X382998Y209840D01*
X382888Y209000D01*
X387500D01*
Y213612D01*
D02*
G37*
G36*
X388500D02*
Y209000D01*
X393112D01*
X393002Y209840D01*
X392484Y211089D01*
X391662Y212161D01*
X390589Y212984D01*
X389340Y213502D01*
X388500Y213612D01*
D02*
G37*
G36*
X513634Y430134D02*
X503366D01*
Y419866D01*
X513634D01*
Y430134D01*
D02*
G37*
G36*
X368000Y424500D02*
X363388D01*
X363498Y423660D01*
X364016Y422411D01*
X364839Y421339D01*
X365911Y420516D01*
X367160Y419998D01*
X368000Y419888D01*
Y424500D01*
D02*
G37*
G36*
X373612D02*
X369000D01*
Y419888D01*
X369840Y419998D01*
X371089Y420516D01*
X372162Y421339D01*
X372984Y422411D01*
X373502Y423660D01*
X373612Y424500D01*
D02*
G37*
G36*
X393634Y430134D02*
X383366D01*
Y419866D01*
X393634D01*
Y430134D01*
D02*
G37*
G36*
X433634D02*
X423366D01*
Y419866D01*
X433634D01*
Y430134D01*
D02*
G37*
G36*
X473634D02*
X463366D01*
Y419866D01*
X473634D01*
Y430134D01*
D02*
G37*
G36*
X253612Y424500D02*
X249000D01*
Y419888D01*
X249840Y419998D01*
X251089Y420516D01*
X252162Y421339D01*
X252984Y422411D01*
X253502Y423660D01*
X253612Y424500D01*
D02*
G37*
G36*
X288000D02*
X283388D01*
X283498Y423660D01*
X284016Y422411D01*
X284839Y421339D01*
X285911Y420516D01*
X287160Y419998D01*
X288000Y419888D01*
Y424500D01*
D02*
G37*
G36*
X293612D02*
X289000D01*
Y419888D01*
X289840Y419998D01*
X291089Y420516D01*
X292161Y421339D01*
X292984Y422411D01*
X293502Y423660D01*
X293612Y424500D01*
D02*
G37*
G36*
X408000Y424500D02*
X403388D01*
X403498Y423660D01*
X404016Y422411D01*
X404839Y421339D01*
X405911Y420516D01*
X407160Y419998D01*
X408000Y419888D01*
Y424500D01*
D02*
G37*
G36*
X413612D02*
X409000D01*
Y419888D01*
X409840Y419998D01*
X411089Y420516D01*
X412161Y421339D01*
X412984Y422411D01*
X413502Y423660D01*
X413612Y424500D01*
D02*
G37*
G36*
X248000Y424500D02*
X243388D01*
X243498Y423660D01*
X244016Y422411D01*
X244839Y421339D01*
X245911Y420516D01*
X247160Y419998D01*
X248000Y419888D01*
Y424500D01*
D02*
G37*
G36*
X440299Y380602D02*
X436878D01*
Y377181D01*
X437410Y377251D01*
X438371Y377650D01*
X439197Y378283D01*
X439831Y379109D01*
X440229Y380070D01*
X440299Y380602D01*
D02*
G37*
G36*
X358154Y399063D02*
X340921D01*
Y377500D01*
X358154D01*
Y399063D01*
D02*
G37*
G36*
X376386D02*
X359154D01*
Y377500D01*
X376386D01*
Y399063D01*
D02*
G37*
G36*
X268500Y379110D02*
X267968Y379040D01*
X267007Y378642D01*
X266181Y378008D01*
X265547Y377182D01*
X265149Y376221D01*
X265079Y375689D01*
X268500D01*
Y379110D01*
D02*
G37*
G36*
X269500D02*
Y375689D01*
X272921D01*
X272851Y376221D01*
X272453Y377182D01*
X271819Y378008D01*
X270993Y378642D01*
X270032Y379040D01*
X269500Y379110D01*
D02*
G37*
G36*
X435878Y380602D02*
X432457D01*
X432527Y380070D01*
X432925Y379109D01*
X433559Y378283D01*
X434384Y377650D01*
X435346Y377251D01*
X435878Y377181D01*
Y380602D01*
D02*
G37*
G36*
X273634Y430134D02*
X263366D01*
Y419866D01*
X273634D01*
Y430134D01*
D02*
G37*
G36*
X313634D02*
X303366D01*
Y419866D01*
X313634D01*
Y430134D01*
D02*
G37*
G36*
X353634D02*
X343366D01*
Y419866D01*
X353634D01*
Y430134D01*
D02*
G37*
G36*
X492500Y384891D02*
X491622Y384776D01*
X490804Y384437D01*
X490102Y383898D01*
X489968Y383724D01*
X482177D01*
X482177Y383724D01*
X481326Y383555D01*
X480605Y383072D01*
X480605Y383072D01*
X480150Y382617D01*
X479598D01*
Y384346D01*
X473661D01*
Y376441D01*
X479598D01*
Y378170D01*
X481071D01*
X481071Y378170D01*
X481922Y378339D01*
X482643Y378821D01*
X483098Y379276D01*
X489968D01*
X490102Y379102D01*
X490804Y378563D01*
X491622Y378224D01*
X492500Y378109D01*
X493378Y378224D01*
X494196Y378563D01*
X494898Y379102D01*
X495437Y379804D01*
X495776Y380622D01*
X495891Y381500D01*
X495776Y382378D01*
X495437Y383196D01*
X494898Y383898D01*
X494196Y384437D01*
X493378Y384776D01*
X492500Y384891D01*
D02*
G37*
G36*
X452449Y394346D02*
X420147D01*
X419373Y394192D01*
X418717Y393753D01*
X414674Y389711D01*
X414233Y389947D01*
X414315Y390354D01*
X414160Y391128D01*
X413722Y391785D01*
X413066Y392224D01*
X412291Y392377D01*
X411517Y392224D01*
X410861Y391785D01*
X403522Y384446D01*
X403084Y383790D01*
X402930Y383016D01*
Y371036D01*
X402543Y370718D01*
X401803Y370866D01*
X401029Y370712D01*
X400373Y370273D01*
X399934Y369617D01*
X399780Y368843D01*
Y359870D01*
X399394Y359553D01*
X398654Y359700D01*
X397879Y359546D01*
X397223Y359108D01*
X396784Y358451D01*
X396630Y357677D01*
Y355004D01*
X396244Y354687D01*
X395504Y354834D01*
X394730Y354680D01*
X394073Y354242D01*
X393635Y353585D01*
X393481Y352811D01*
Y349461D01*
Y347000D01*
Y344539D01*
X393635Y343765D01*
X394073Y343109D01*
X394730Y342670D01*
X395504Y342516D01*
X396278Y342670D01*
X396934Y343109D01*
X397223D01*
X397879Y342670D01*
X398654Y342516D01*
X399428Y342670D01*
X400084Y343109D01*
X400373D01*
X401029Y342670D01*
X401803Y342516D01*
X402577Y342670D01*
X403234Y343109D01*
X403522D01*
X404178Y342670D01*
X404953Y342516D01*
X405727Y342670D01*
X406383Y343109D01*
X406672D01*
X407328Y342670D01*
X408102Y342516D01*
X408877Y342670D01*
X409533Y343109D01*
X409821D01*
X410478Y342670D01*
X411252Y342516D01*
X412026Y342670D01*
X412682Y343109D01*
X412971D01*
X413627Y342670D01*
X414402Y342516D01*
X415176Y342670D01*
X415832Y343109D01*
X416121D01*
X416777Y342670D01*
X417551Y342516D01*
X418325Y342670D01*
X418982Y343109D01*
X419270D01*
X419927Y342670D01*
X420701Y342516D01*
X421475Y342670D01*
X422131Y343109D01*
X422420D01*
X423076Y342670D01*
X423850Y342516D01*
X424625Y342670D01*
X424703Y342722D01*
X425016Y342555D01*
Y342555D01*
X425016Y342555D01*
X428984D01*
Y346123D01*
X432389Y349528D01*
X432851Y349337D01*
Y340362D01*
X432413D01*
X431639Y340208D01*
X430983Y339769D01*
X430544Y339113D01*
X430390Y338339D01*
X430544Y337564D01*
X430983Y336908D01*
Y336619D01*
X430544Y335963D01*
X430390Y335189D01*
X430544Y334415D01*
X430983Y333758D01*
Y333470D01*
X430544Y332814D01*
X430390Y332039D01*
X430544Y331265D01*
X430983Y330609D01*
Y330320D01*
X430544Y329664D01*
X430390Y328890D01*
X430544Y328116D01*
X430983Y327459D01*
Y327171D01*
X430544Y326514D01*
X430390Y325740D01*
X430544Y324966D01*
X430983Y324310D01*
Y324021D01*
X430544Y323365D01*
X430390Y322590D01*
X430544Y321816D01*
X430983Y321160D01*
Y320871D01*
X430544Y320215D01*
X430390Y319441D01*
X430544Y318667D01*
X430983Y318010D01*
Y317722D01*
X430544Y317066D01*
X430390Y316291D01*
X430544Y315517D01*
X430983Y314861D01*
Y314572D01*
X430544Y313916D01*
X430390Y313142D01*
X430544Y312368D01*
X430983Y311711D01*
Y311423D01*
X430544Y310766D01*
X430390Y309992D01*
X430544Y309218D01*
X430983Y308561D01*
Y308273D01*
X430544Y307617D01*
X430390Y306842D01*
X430544Y306068D01*
X430983Y305412D01*
X431639Y304973D01*
X432413Y304819D01*
X434052D01*
X452701Y286170D01*
Y249449D01*
X445787D01*
Y248110D01*
X445420D01*
X444646Y247956D01*
X443990Y247517D01*
X441725Y245252D01*
X441263Y245444D01*
Y249606D01*
X439333D01*
Y259824D01*
X439179Y260598D01*
X438741Y261254D01*
X432089Y267906D01*
X431433Y268344D01*
X430658Y268498D01*
X415071D01*
X411291Y272279D01*
X411568Y272695D01*
X412354Y272370D01*
X413386Y272234D01*
X414418Y272370D01*
X415379Y272768D01*
X416205Y273401D01*
X416839Y274227D01*
X417237Y275189D01*
X417373Y276220D01*
X417237Y277252D01*
X416839Y278214D01*
X416205Y279040D01*
X415379Y279673D01*
X414418Y280071D01*
X413386Y280207D01*
X412391Y280076D01*
X410662Y281806D01*
X410853Y282268D01*
X416426D01*
Y281157D01*
X416580Y280383D01*
X417018Y279727D01*
X419530Y277215D01*
X419399Y276220D01*
X419535Y275189D01*
X419933Y274227D01*
X420567Y273401D01*
X421392Y272768D01*
X422354Y272370D01*
X423386Y272234D01*
X424418Y272370D01*
X425379Y272768D01*
X426205Y273401D01*
X426839Y274227D01*
X427237Y275189D01*
X427373Y276220D01*
X427237Y277252D01*
X426839Y278214D01*
X426205Y279040D01*
X425379Y279673D01*
X424418Y280071D01*
X423386Y280207D01*
X422391Y280076D01*
X420472Y281996D01*
Y282909D01*
X420920Y283130D01*
X421392Y282768D01*
X422354Y282369D01*
X423386Y282234D01*
X424418Y282369D01*
X425379Y282768D01*
X426205Y283401D01*
X426839Y284227D01*
X427237Y285189D01*
X427373Y286221D01*
X427343Y286450D01*
X427791Y286671D01*
X447276Y267186D01*
Y253346D01*
X447276Y253346D01*
X447276D01*
X447430Y252572D01*
X447869Y251916D01*
X448525Y251477D01*
X449299Y251323D01*
X450073Y251477D01*
X450730Y251916D01*
X451168Y252572D01*
X451322Y253346D01*
Y268024D01*
X451168Y268798D01*
X450730Y269454D01*
X426821Y293363D01*
X427000Y293697D01*
X427774Y293851D01*
X428191Y294129D01*
X440089Y282231D01*
X440745Y281792D01*
X441520Y281638D01*
X449693D01*
X450467Y281792D01*
X451124Y282231D01*
X451562Y282887D01*
X451716Y283661D01*
X451562Y284436D01*
X451124Y285092D01*
X450467Y285530D01*
X449693Y285684D01*
X442358D01*
X429023Y299019D01*
Y300642D01*
X428869Y301416D01*
X428431Y302072D01*
X427774Y302511D01*
X427000Y302665D01*
X426226Y302511D01*
X425569Y302072D01*
X425281D01*
X424625Y302511D01*
X423850Y302665D01*
X423076Y302511D01*
X422420Y302072D01*
X422131D01*
X421475Y302511D01*
X420701Y302665D01*
X419927Y302511D01*
X419270Y302072D01*
X418982D01*
X418325Y302511D01*
X417551Y302665D01*
X416777Y302511D01*
X416121Y302072D01*
X415832D01*
X415176Y302511D01*
X414402Y302665D01*
X413627Y302511D01*
X412971Y302072D01*
X412682D01*
X412026Y302511D01*
X411252Y302665D01*
X410478Y302511D01*
X409821Y302072D01*
X409533D01*
X408877Y302511D01*
X408102Y302665D01*
X407328Y302511D01*
X406672Y302072D01*
X406383D01*
X405727Y302511D01*
X404953Y302665D01*
X404178Y302511D01*
X403522Y302072D01*
X403234D01*
X402577Y302511D01*
X401803Y302665D01*
X401029Y302511D01*
X400373Y302072D01*
X400084D01*
X399428Y302511D01*
X398654Y302665D01*
X397879Y302511D01*
X397223Y302072D01*
X396935D01*
X396278Y302511D01*
X395504Y302665D01*
X394730Y302511D01*
X394073Y302072D01*
X393635Y301416D01*
X393481Y300642D01*
Y299019D01*
X367739Y273277D01*
X360592Y266130D01*
X360153Y265473D01*
X359999Y264699D01*
Y249606D01*
X358069D01*
Y243669D01*
X364200D01*
X364392Y243207D01*
X362129Y240945D01*
X358069D01*
Y235008D01*
X365975D01*
Y239068D01*
X370037Y243130D01*
X370499Y242939D01*
Y242724D01*
X378011D01*
Y249449D01*
X370499D01*
Y248110D01*
X370132D01*
X369358Y247956D01*
X368702Y247517D01*
X366437Y245252D01*
X365975Y245444D01*
Y249606D01*
X364045D01*
Y263861D01*
X370600Y270416D01*
X370600Y270416D01*
X370600Y270416D01*
X394313Y294129D01*
X394730Y293851D01*
X394867Y293398D01*
X385687Y284218D01*
X385249Y283562D01*
X385095Y282787D01*
Y271850D01*
Y249606D01*
X383165D01*
Y243669D01*
X389297D01*
X389488Y243207D01*
X387226Y240945D01*
X383165D01*
Y235008D01*
X391071D01*
Y239068D01*
X395133Y243130D01*
X395595Y242939D01*
Y242724D01*
X403107D01*
Y249449D01*
X395595D01*
Y247889D01*
X395008D01*
X394234Y247735D01*
X393577Y247297D01*
X391533Y245252D01*
X391071Y245444D01*
Y249606D01*
X389141D01*
Y271850D01*
Y281949D01*
X399318Y292126D01*
X399780Y291935D01*
Y274606D01*
Y257049D01*
X399934Y256275D01*
X400373Y255618D01*
X408261Y247729D01*
Y243669D01*
X414393D01*
X414584Y243207D01*
X412322Y240945D01*
X408261D01*
Y235008D01*
X416167D01*
Y239068D01*
X420229Y243130D01*
X420691Y242939D01*
Y242724D01*
X428203D01*
Y249449D01*
X420691D01*
Y248110D01*
X420324D01*
X419550Y247956D01*
X418894Y247517D01*
X416629Y245252D01*
X416167Y245444D01*
Y249606D01*
X412107D01*
X403826Y257887D01*
Y273368D01*
X404288Y273559D01*
X412803Y265045D01*
X412803Y265045D01*
X412803Y265045D01*
Y265045D01*
X412803Y265045D01*
Y265045D01*
X413459Y264606D01*
X414233Y264452D01*
X429820D01*
X435287Y258986D01*
Y249606D01*
X433357D01*
Y243669D01*
X439489D01*
X439680Y243207D01*
X437418Y240945D01*
X433357D01*
Y235008D01*
X441263D01*
Y239068D01*
X445325Y243130D01*
X445787Y242939D01*
Y242724D01*
X453299D01*
Y244761D01*
X453761Y244953D01*
X458512Y240202D01*
X458454Y239764D01*
X458590Y238732D01*
X458988Y237770D01*
X459622Y236945D01*
X460448Y236311D01*
X461409Y235913D01*
X462441Y235777D01*
X463473Y235913D01*
X464434Y236311D01*
X465260Y236945D01*
X465894Y237770D01*
X466292Y238732D01*
X466403Y239578D01*
X466877Y239738D01*
X468282Y238333D01*
X468936Y237896D01*
X468988Y237770D01*
X469622Y236945D01*
X470447Y236311D01*
X471409Y235913D01*
X472441Y235777D01*
X473473Y235913D01*
X474434Y236311D01*
X475260Y236945D01*
X475894Y237770D01*
X476292Y238732D01*
X476428Y239764D01*
X476292Y240796D01*
X475894Y241757D01*
X475260Y242583D01*
X474434Y243216D01*
X473473Y243615D01*
X472441Y243751D01*
X471409Y243615D01*
X470447Y243216D01*
X469697Y242640D01*
X467972Y244365D01*
X468163Y244827D01*
X474516D01*
X478585Y240759D01*
X478454Y239764D01*
X478590Y238732D01*
X478988Y237770D01*
X479622Y236945D01*
X480447Y236311D01*
X481409Y235913D01*
X482441Y235777D01*
X483473Y235913D01*
X484434Y236311D01*
X485260Y236945D01*
X485894Y237770D01*
X486292Y238732D01*
X486428Y239764D01*
X486292Y240796D01*
X485894Y241757D01*
X485260Y242583D01*
X484434Y243216D01*
X483473Y243615D01*
X482441Y243751D01*
X481446Y243620D01*
X476785Y248281D01*
X476128Y248720D01*
X475354Y248873D01*
X467684D01*
X467406Y249289D01*
X467551Y249638D01*
X471567D01*
Y257150D01*
X470429D01*
Y266568D01*
X470937D01*
Y274474D01*
X465000D01*
Y266568D01*
X465981D01*
Y257150D01*
X464843D01*
Y252346D01*
X464644Y252264D01*
X464228Y252541D01*
Y294094D01*
X464074Y294869D01*
X463635Y295525D01*
X444588Y314572D01*
X443932Y315011D01*
X443157Y315165D01*
X439528D01*
X439211Y315551D01*
X439358Y316291D01*
X439204Y317066D01*
X438765Y317722D01*
Y318010D01*
X439204Y318667D01*
X439358Y319441D01*
X439204Y320215D01*
X438765Y320871D01*
Y321160D01*
X439204Y321816D01*
X439358Y322590D01*
X439204Y323365D01*
X438765Y324021D01*
Y324310D01*
X439204Y324966D01*
X439358Y325740D01*
X439222Y326421D01*
X439663Y326657D01*
X447869Y318451D01*
X448525Y318013D01*
X449299Y317859D01*
X450073Y318013D01*
X450730Y318451D01*
X451168Y319108D01*
X451322Y319882D01*
X451168Y320656D01*
X450730Y321312D01*
X441722Y330320D01*
X441066Y330759D01*
X441048Y330817D01*
X452305Y342073D01*
X452598Y342512D01*
X452743Y342730D01*
X452897Y343504D01*
Y350197D01*
X452743Y350971D01*
X452305Y351627D01*
X451648Y352066D01*
X450874Y352220D01*
X450100Y352066D01*
X449443Y351627D01*
X449005Y350971D01*
X448851Y350197D01*
Y344342D01*
X439789Y335280D01*
X439311Y335425D01*
X439204Y335963D01*
X438765Y336619D01*
Y336908D01*
X439204Y337564D01*
X439358Y338339D01*
X439204Y339113D01*
X438765Y339769D01*
X438109Y340208D01*
X437335Y340362D01*
X436897D01*
Y357184D01*
X437410Y357251D01*
X438371Y357650D01*
X439197Y358283D01*
X439831Y359109D01*
X440229Y360070D01*
X440365Y361102D01*
X440229Y362134D01*
X439831Y363096D01*
X439197Y363921D01*
X438371Y364555D01*
X437410Y364953D01*
X436378Y365089D01*
X435346Y364953D01*
X434384Y364555D01*
X433786Y364096D01*
X433338Y364317D01*
Y365201D01*
X435383Y367247D01*
X436378Y367115D01*
X437410Y367251D01*
X438371Y367650D01*
X439197Y368283D01*
X439831Y369109D01*
X440229Y370071D01*
X440365Y371102D01*
X440229Y372134D01*
X439831Y373096D01*
X439197Y373921D01*
X438371Y374555D01*
X437410Y374953D01*
X436378Y375089D01*
X435346Y374953D01*
X434384Y374555D01*
X433559Y373921D01*
X432925Y373096D01*
X432527Y372134D01*
X432391Y371102D01*
X432522Y370108D01*
X429884Y367470D01*
X429446Y366814D01*
X429292Y366039D01*
Y364414D01*
X428843Y364193D01*
X428371Y364555D01*
X427410Y364953D01*
X426378Y365089D01*
X425346Y364953D01*
X424384Y364555D01*
X423559Y363921D01*
X423197Y363450D01*
X422724Y363611D01*
Y364587D01*
X425383Y367247D01*
X426378Y367115D01*
X427410Y367251D01*
X428371Y367650D01*
X429197Y368283D01*
X429831Y369109D01*
X430229Y370071D01*
X430365Y371102D01*
X430229Y372134D01*
X429831Y373096D01*
X429197Y373921D01*
X428371Y374555D01*
X427410Y374953D01*
X426378Y375089D01*
X425346Y374953D01*
X424384Y374555D01*
X423559Y373921D01*
X422925Y373096D01*
X422527Y372134D01*
X422391Y371102D01*
X422522Y370108D01*
X420036Y367622D01*
X419574Y367813D01*
Y380493D01*
X421963Y382882D01*
X422425Y382690D01*
Y377150D01*
X430331D01*
Y384363D01*
X433332D01*
X433553Y383914D01*
X432925Y383096D01*
X432527Y382134D01*
X432457Y381602D01*
X440299D01*
X440229Y382134D01*
X439831Y383096D01*
X439197Y383922D01*
X439347Y384363D01*
X463047D01*
X463822Y384517D01*
X464478Y384955D01*
X465885Y386363D01*
X530402D01*
X531176Y386517D01*
X531832Y386955D01*
X534588Y389711D01*
X535027Y390368D01*
X535181Y391142D01*
X535027Y391916D01*
X534588Y392572D01*
X533932Y393011D01*
X533157Y393165D01*
X532383Y393011D01*
X531727Y392572D01*
X529564Y390409D01*
X494507D01*
X494272Y390850D01*
X494475Y391155D01*
X494629Y391929D01*
X494475Y392703D01*
X494037Y393360D01*
X493380Y393798D01*
X492606Y393952D01*
X457677D01*
X456903Y393798D01*
X456247Y393360D01*
X454898Y392011D01*
X454457Y392247D01*
X454472Y392323D01*
X454318Y393097D01*
X453879Y393753D01*
X453223Y394192D01*
X452449Y394346D01*
D02*
G37*
G36*
X553634Y430134D02*
X543366D01*
Y419866D01*
X553634D01*
Y430134D01*
D02*
G37*
G36*
X289000Y430112D02*
Y425500D01*
X293612D01*
X293502Y426340D01*
X292984Y427589D01*
X292161Y428661D01*
X291089Y429484D01*
X289840Y430002D01*
X289000Y430112D01*
D02*
G37*
G36*
X328000D02*
X327160Y430002D01*
X325911Y429484D01*
X324838Y428661D01*
X324016Y427589D01*
X323498Y426340D01*
X323388Y425500D01*
X328000D01*
Y430112D01*
D02*
G37*
G36*
X329000D02*
Y425500D01*
X333612D01*
X333502Y426340D01*
X332984Y427589D01*
X332161Y428661D01*
X331089Y429484D01*
X329840Y430002D01*
X329000Y430112D01*
D02*
G37*
G36*
X248000D02*
X247160Y430002D01*
X245911Y429484D01*
X244839Y428661D01*
X244016Y427589D01*
X243498Y426340D01*
X243388Y425500D01*
X248000D01*
Y430112D01*
D02*
G37*
G36*
X249000D02*
Y425500D01*
X253612D01*
X253502Y426340D01*
X252984Y427589D01*
X252162Y428661D01*
X251089Y429484D01*
X249840Y430002D01*
X249000Y430112D01*
D02*
G37*
G36*
X288000D02*
X287160Y430002D01*
X285911Y429484D01*
X284839Y428661D01*
X284016Y427589D01*
X283498Y426340D01*
X283388Y425500D01*
X288000D01*
Y430112D01*
D02*
G37*
G36*
X489000D02*
Y425500D01*
X493612D01*
X493502Y426340D01*
X492984Y427589D01*
X492162Y428661D01*
X491089Y429484D01*
X489840Y430002D01*
X489000Y430112D01*
D02*
G37*
G36*
X528000D02*
X527160Y430002D01*
X525911Y429484D01*
X524838Y428661D01*
X524016Y427589D01*
X523498Y426340D01*
X523388Y425500D01*
X528000D01*
Y430112D01*
D02*
G37*
G36*
X529000D02*
Y425500D01*
X533612D01*
X533502Y426340D01*
X532984Y427589D01*
X532162Y428661D01*
X531089Y429484D01*
X529840Y430002D01*
X529000Y430112D01*
D02*
G37*
G36*
X448000D02*
X447160Y430002D01*
X445911Y429484D01*
X444838Y428661D01*
X444016Y427589D01*
X443498Y426340D01*
X443388Y425500D01*
X448000D01*
Y430112D01*
D02*
G37*
G36*
X449000D02*
Y425500D01*
X453612D01*
X453502Y426340D01*
X452984Y427589D01*
X452162Y428661D01*
X451089Y429484D01*
X449840Y430002D01*
X449000Y430112D01*
D02*
G37*
G36*
X488000D02*
X487160Y430002D01*
X485911Y429484D01*
X484838Y428661D01*
X484016Y427589D01*
X483498Y426340D01*
X483388Y425500D01*
X488000D01*
Y430112D01*
D02*
G37*
G36*
X453612Y424500D02*
X449000D01*
Y419888D01*
X449840Y419998D01*
X451089Y420516D01*
X452162Y421339D01*
X452984Y422411D01*
X453502Y423660D01*
X453612Y424500D01*
D02*
G37*
G36*
X488000D02*
X483388D01*
X483498Y423660D01*
X484016Y422411D01*
X484838Y421339D01*
X485911Y420516D01*
X487160Y419998D01*
X488000Y419888D01*
Y424500D01*
D02*
G37*
G36*
X493612D02*
X489000D01*
Y419888D01*
X489840Y419998D01*
X491089Y420516D01*
X492162Y421339D01*
X492984Y422411D01*
X493502Y423660D01*
X493612Y424500D01*
D02*
G37*
G36*
X328000D02*
X323388D01*
X323498Y423660D01*
X324016Y422411D01*
X324838Y421339D01*
X325911Y420516D01*
X327160Y419998D01*
X328000Y419888D01*
Y424500D01*
D02*
G37*
G36*
X333612D02*
X329000D01*
Y419888D01*
X329840Y419998D01*
X331089Y420516D01*
X332161Y421339D01*
X332984Y422411D01*
X333502Y423660D01*
X333612Y424500D01*
D02*
G37*
G36*
X448000D02*
X443388D01*
X443498Y423660D01*
X444016Y422411D01*
X444838Y421339D01*
X445911Y420516D01*
X447160Y419998D01*
X448000Y419888D01*
Y424500D01*
D02*
G37*
G36*
X369000Y430112D02*
Y425500D01*
X373612D01*
X373502Y426340D01*
X372984Y427589D01*
X372162Y428661D01*
X371089Y429484D01*
X369840Y430002D01*
X369000Y430112D01*
D02*
G37*
G36*
X408000D02*
X407160Y430002D01*
X405911Y429484D01*
X404839Y428661D01*
X404016Y427589D01*
X403498Y426340D01*
X403388Y425500D01*
X408000D01*
Y430112D01*
D02*
G37*
G36*
X409000D02*
Y425500D01*
X413612D01*
X413502Y426340D01*
X412984Y427589D01*
X412161Y428661D01*
X411089Y429484D01*
X409840Y430002D01*
X409000Y430112D01*
D02*
G37*
G36*
X528000Y424500D02*
X523388D01*
X523498Y423660D01*
X524016Y422411D01*
X524838Y421339D01*
X525911Y420516D01*
X527160Y419998D01*
X528000Y419888D01*
Y424500D01*
D02*
G37*
G36*
X533612D02*
X529000D01*
Y419888D01*
X529840Y419998D01*
X531089Y420516D01*
X532162Y421339D01*
X532984Y422411D01*
X533502Y423660D01*
X533612Y424500D01*
D02*
G37*
G36*
X368000Y430112D02*
X367160Y430002D01*
X365911Y429484D01*
X364839Y428661D01*
X364016Y427589D01*
X363498Y426340D01*
X363388Y425500D01*
X368000D01*
Y430112D01*
D02*
G37*
G36*
X404130Y332829D02*
Y331405D01*
X405554D01*
X405499Y331680D01*
X405060Y332336D01*
X404404Y332775D01*
X404130Y332829D01*
D02*
G37*
G36*
X418090D02*
X417816Y332775D01*
X417160Y332336D01*
X416721Y331680D01*
X416667Y331405D01*
X418090D01*
Y332829D01*
D02*
G37*
G36*
X419091D02*
Y331405D01*
X420514D01*
X420460Y331680D01*
X420021Y332336D01*
X419365Y332775D01*
X419091Y332829D01*
D02*
G37*
G36*
X418090Y330405D02*
X416667D01*
X416721Y330131D01*
X417160Y329475D01*
X417816Y329036D01*
X418090Y328982D01*
Y330405D01*
D02*
G37*
G36*
X420514D02*
X419091D01*
Y328982D01*
X419365Y329036D01*
X420021Y329475D01*
X420460Y330131D01*
X420514Y330405D01*
D02*
G37*
G36*
X403130Y332829D02*
X402856Y332775D01*
X402199Y332336D01*
X401761Y331680D01*
X401706Y331405D01*
X403130D01*
Y332829D01*
D02*
G37*
G36*
X245181Y344185D02*
X241925D01*
Y341323D01*
X245181D01*
Y344185D01*
D02*
G37*
G36*
X240925Y348047D02*
X237669D01*
Y345185D01*
X240925D01*
Y348047D01*
D02*
G37*
G36*
X245181D02*
X241925D01*
Y345185D01*
X245181D01*
Y348047D01*
D02*
G37*
G36*
X387583Y340409D02*
X380402D01*
X379627Y340255D01*
X378971Y339816D01*
X378533Y339160D01*
X378379Y338386D01*
X378533Y337612D01*
X378971Y336955D01*
X379627Y336517D01*
X380402Y336363D01*
X383087D01*
X383300Y335963D01*
X383146Y335189D01*
X383293Y334449D01*
X382976Y334063D01*
X377169D01*
Y334858D01*
X370248D01*
Y334310D01*
X364411D01*
X362045Y334622D01*
X361929Y335500D01*
X361590Y336318D01*
X361052Y337020D01*
X360349Y337559D01*
X359531Y337898D01*
X358653Y338013D01*
X357776Y337898D01*
X356958Y337559D01*
X356256Y337020D01*
X355717Y336318D01*
X355378Y335500D01*
X355262Y334622D01*
X355378Y333744D01*
X355717Y332926D01*
X356056Y332484D01*
Y317075D01*
X355717Y316633D01*
X355378Y315815D01*
X355262Y314937D01*
X355378Y314059D01*
X355717Y313241D01*
X356256Y312539D01*
X356958Y312000D01*
X357776Y311661D01*
X358653Y311546D01*
X359531Y311661D01*
X360349Y312000D01*
X361052Y312539D01*
X361590Y313241D01*
X361929Y314059D01*
X362045Y314937D01*
X361929Y315815D01*
X361590Y316633D01*
X361251Y317075D01*
Y329863D01*
X370248D01*
Y329315D01*
X377169D01*
Y330016D01*
X382976D01*
X383293Y329630D01*
X383146Y328890D01*
X383300Y328116D01*
X383739Y327459D01*
Y327171D01*
X383300Y326514D01*
X383246Y326240D01*
X392014D01*
X391960Y326514D01*
X391521Y327171D01*
Y327459D01*
X391960Y328116D01*
X392114Y328890D01*
X391960Y329664D01*
X391521Y330320D01*
Y330609D01*
X391960Y331265D01*
X392114Y332039D01*
X391960Y332814D01*
X391521Y333470D01*
Y333758D01*
X391960Y334415D01*
X392114Y335189D01*
X391960Y335963D01*
X391521Y336619D01*
Y336908D01*
X391960Y337564D01*
X392114Y338339D01*
X391960Y339113D01*
X391521Y339769D01*
X390865Y340208D01*
X390090Y340362D01*
X387820D01*
X387583Y340409D01*
D02*
G37*
G36*
X231134Y395134D02*
X220866D01*
Y384866D01*
X231134D01*
Y387006D01*
X264760D01*
X265047Y386718D01*
Y383047D01*
X272953D01*
Y386718D01*
X273642Y387407D01*
X291803D01*
Y387024D01*
X291803D01*
Y379118D01*
X299709D01*
Y380707D01*
X308244D01*
X308244Y380536D01*
X308244D01*
X308244Y380165D01*
X308244D01*
Y377500D01*
X322449D01*
Y380165D01*
D01*
Y380165D01*
X322449Y380165D01*
Y380536D01*
D01*
X322449Y380707D01*
X325972D01*
X330557Y376122D01*
Y360791D01*
X312817Y343051D01*
X308949D01*
Y334949D01*
X317051D01*
Y338817D01*
X335668Y357434D01*
X336144Y358054D01*
X336356Y358565D01*
X336443Y358776D01*
X336545Y359551D01*
Y377362D01*
X336443Y378137D01*
X336356Y378349D01*
X336144Y378859D01*
X335668Y379479D01*
X329330Y385818D01*
X328710Y386294D01*
X328199Y386505D01*
X327988Y386593D01*
X327213Y386695D01*
X322449D01*
X322449Y386866D01*
D01*
Y387236D01*
X322449D01*
Y393567D01*
X308244D01*
Y393396D01*
X272402D01*
X271627Y393294D01*
X271204Y393119D01*
X270905Y392995D01*
X270285Y392519D01*
X269000Y391234D01*
X268117Y392117D01*
X267497Y392593D01*
X266986Y392805D01*
X266775Y392892D01*
X266000Y392994D01*
X231134D01*
Y395134D01*
D02*
G37*
G36*
X240925Y344185D02*
X237669D01*
Y341323D01*
X240925D01*
Y344185D01*
D02*
G37*
G36*
X245181Y340173D02*
X237669D01*
Y333449D01*
X239516D01*
Y328362D01*
X237787D01*
Y322425D01*
X245693D01*
Y328362D01*
X243964D01*
Y333449D01*
X245181D01*
Y340173D01*
D02*
G37*
G36*
X479441Y367022D02*
X472717D01*
Y359511D01*
X479441D01*
Y361043D01*
X481765D01*
X482880Y359928D01*
X482880Y359928D01*
X483602Y359445D01*
X483602Y359445D01*
X483602Y359445D01*
D01*
X483602Y359445D01*
X483602Y359445D01*
X484453Y359276D01*
X484453Y359276D01*
X489138D01*
Y358138D01*
X492190D01*
X498978Y351349D01*
Y322654D01*
X498516Y322462D01*
X495862Y325116D01*
Y328696D01*
X489138D01*
Y327557D01*
X483745D01*
X483088Y328215D01*
X482366Y328697D01*
X481515Y328866D01*
X481515Y328866D01*
X479441D01*
Y330398D01*
X472717D01*
Y322886D01*
X479441D01*
Y324418D01*
X480594D01*
X481252Y323761D01*
X481252Y323761D01*
X481973Y323279D01*
X482824Y323110D01*
X489138D01*
Y321971D01*
X492717D01*
X498978Y315711D01*
Y286487D01*
X498516Y286296D01*
X495862Y288949D01*
Y292529D01*
X489138D01*
Y291390D01*
X479441D01*
Y294774D01*
X472717D01*
Y287262D01*
X476855D01*
X477079Y287112D01*
X477930Y286943D01*
X477930Y286943D01*
X489138D01*
Y285804D01*
X492717D01*
X498978Y279544D01*
Y255597D01*
X495862D01*
Y256362D01*
X489138D01*
Y255617D01*
X479441D01*
Y257150D01*
X472717D01*
Y249638D01*
X479441D01*
Y251170D01*
X489138D01*
Y249638D01*
X495862D01*
Y250403D01*
X498129D01*
X499738Y248794D01*
X500313Y248219D01*
X505518Y243014D01*
X505508Y243002D01*
X505508Y243002D01*
X505277Y242739D01*
X505277Y242739D01*
X505270Y242730D01*
X505076Y242724D01*
X504434Y243216D01*
X503473Y243615D01*
X502941Y243685D01*
Y239763D01*
Y235843D01*
X503473Y235913D01*
X504434Y236311D01*
X505189Y236890D01*
X505189Y236890D01*
D01*
X505277Y236789D01*
X505277Y236789D01*
X505426Y236619D01*
X505432Y236428D01*
X497783Y228778D01*
X443907D01*
X443716Y229240D01*
X449326Y234850D01*
X453299D01*
Y241575D01*
X445787D01*
Y237602D01*
X436964Y228778D01*
X418811D01*
X418620Y229240D01*
X424230Y234850D01*
X428203D01*
Y241575D01*
X420691D01*
Y237602D01*
X411868Y228778D01*
X393715D01*
X393524Y229240D01*
X399134Y234850D01*
X403107D01*
Y241575D01*
X395595D01*
Y237602D01*
X386772Y228778D01*
X368619D01*
X368427Y229240D01*
X374038Y234850D01*
X378011D01*
Y241575D01*
X370499D01*
Y237602D01*
X361676Y228778D01*
X343523D01*
X343332Y229240D01*
X348942Y234850D01*
X352915D01*
Y241575D01*
X345403D01*
Y237602D01*
X336580Y228778D01*
X318427D01*
X318235Y229240D01*
X323846Y234850D01*
X327819D01*
Y238824D01*
X331974Y242979D01*
X332456Y243700D01*
X332476Y243798D01*
X332973Y243749D01*
Y243669D01*
X339105D01*
X339296Y243207D01*
X337033Y240945D01*
X332973D01*
Y235008D01*
X340879D01*
Y239068D01*
X344941Y243130D01*
X345403Y242939D01*
Y242724D01*
X352915D01*
Y249449D01*
X345403D01*
Y248110D01*
X345036D01*
X344262Y247956D01*
X343606Y247517D01*
X341341Y245252D01*
X340879Y245444D01*
Y249606D01*
X339905D01*
Y260433D01*
X339751Y261207D01*
X339312Y261864D01*
X338656Y262302D01*
X337882Y262456D01*
X337108Y262302D01*
X337102Y262299D01*
X336661Y262534D01*
Y268094D01*
X329150D01*
Y267181D01*
X324020D01*
Y267929D01*
X317098D01*
Y267181D01*
X311555D01*
X309196Y269539D01*
Y271654D01*
X309042Y272428D01*
X308604Y273084D01*
X307947Y273523D01*
X307173Y273677D01*
X306399Y273523D01*
X305743Y273084D01*
X305304Y272428D01*
X305150Y271654D01*
Y265748D01*
X305304Y264974D01*
X305743Y264317D01*
X306399Y263879D01*
X307173Y263725D01*
X307947Y263879D01*
X308604Y264317D01*
X308687Y264326D01*
X309286Y263727D01*
X309286D01*
X309286Y263727D01*
X309286D01*
X309286Y263727D01*
Y263727D01*
X309286Y263727D01*
Y263727D01*
X309942Y263288D01*
X310717Y263134D01*
X317098D01*
Y262386D01*
X318844D01*
X318989Y261907D01*
X318355Y261484D01*
X310399Y253528D01*
X309961Y252872D01*
X309807Y252098D01*
Y249606D01*
X307877D01*
Y243669D01*
X314008D01*
X314200Y243207D01*
X311937Y240945D01*
X307877D01*
Y235008D01*
X315783D01*
Y239068D01*
X319845Y243130D01*
X320307Y242939D01*
Y242724D01*
X324777D01*
X324968Y242263D01*
X324280Y241575D01*
X320307D01*
Y237602D01*
X311484Y228778D01*
X293331D01*
X293139Y229240D01*
X298750Y234850D01*
X302723D01*
Y241575D01*
X295211D01*
Y237602D01*
X286387Y228778D01*
X268235D01*
X268043Y229240D01*
X273654Y234850D01*
X277627D01*
Y241575D01*
X272873D01*
X272682Y242037D01*
X273370Y242724D01*
X277627D01*
Y249449D01*
X270115D01*
Y245192D01*
X265787Y240864D01*
X265591Y240945D01*
Y240945D01*
X265591Y240945D01*
X257685D01*
Y235008D01*
X265591D01*
Y235953D01*
X265761D01*
X266535Y236107D01*
X267191Y236546D01*
X269653Y239008D01*
X270115Y238816D01*
Y237602D01*
X261291Y228778D01*
X224391D01*
X210558Y242611D01*
Y317476D01*
X216635Y323553D01*
X221192D01*
X229849Y314896D01*
X230386Y314483D01*
X231013Y314224D01*
X231685Y314135D01*
X237787D01*
Y313764D01*
X245693D01*
Y314135D01*
X246543D01*
X247216Y314224D01*
X247842Y314483D01*
X248380Y314896D01*
X255887Y322403D01*
X341158D01*
X341830Y322492D01*
X342456Y322751D01*
X342994Y323164D01*
X347721Y327890D01*
X348183Y327699D01*
Y317075D01*
X347843Y316633D01*
X347504Y315815D01*
X347388Y314937D01*
X347450Y314469D01*
X346730Y313748D01*
X346268Y313940D01*
Y318299D01*
X339543D01*
Y311575D01*
X343903D01*
X344094Y311113D01*
X332824Y299843D01*
X329150D01*
Y293118D01*
X336661D01*
Y297958D01*
X350311Y311608D01*
X350780Y311546D01*
X351657Y311661D01*
X352475Y312000D01*
X353177Y312539D01*
X353716Y313241D01*
X354055Y314059D01*
X354171Y314937D01*
X354055Y315815D01*
X353716Y316633D01*
X353377Y317075D01*
Y332484D01*
X353716Y332926D01*
X354055Y333744D01*
X354171Y334622D01*
X354055Y335500D01*
X353716Y336318D01*
X353177Y337020D01*
X352475Y337559D01*
X351657Y337898D01*
X350780Y338013D01*
X349902Y337898D01*
X349084Y337559D01*
X348382Y337020D01*
X347843Y336318D01*
X347504Y335500D01*
X347431Y334946D01*
X346724Y334239D01*
X346275Y334460D01*
X346297Y334622D01*
X346181Y335500D01*
X345842Y336318D01*
X345304Y337020D01*
X344601Y337559D01*
X343783Y337898D01*
X342905Y338013D01*
X342028Y337898D01*
X341210Y337559D01*
X340508Y337020D01*
X339969Y336318D01*
X339630Y335500D01*
X339514Y334622D01*
X339630Y333744D01*
X339969Y332926D01*
X340508Y332224D01*
X341210Y331685D01*
X342028Y331346D01*
X342905Y331231D01*
X343067Y331252D01*
X343288Y330804D01*
X340082Y327597D01*
X254811D01*
X254139Y327508D01*
X253513Y327249D01*
X252975Y326836D01*
X245796Y319658D01*
X245693Y319701D01*
Y319701D01*
X245693Y319701D01*
X237787D01*
Y319329D01*
X232761D01*
X225756Y326335D01*
X225849Y327043D01*
Y331965D01*
X225730Y332868D01*
X225381Y333710D01*
X224826Y334433D01*
X224103Y334987D01*
X223262Y335336D01*
X222358Y335455D01*
X215469D01*
X214565Y335336D01*
X213723Y334987D01*
X213000Y334433D01*
X212446Y333710D01*
X212097Y332868D01*
X211978Y331965D01*
Y327043D01*
X212071Y326335D01*
X206124Y320388D01*
X205712Y319850D01*
X205452Y319223D01*
X205364Y318551D01*
Y241535D01*
X205364Y241535D01*
X205364D01*
X205452Y240863D01*
X205712Y240237D01*
X206124Y239699D01*
X221479Y224345D01*
X222016Y223932D01*
X222643Y223673D01*
X223315Y223584D01*
X498858D01*
X499530Y223673D01*
X500157Y223932D01*
X500695Y224345D01*
X512163Y235813D01*
X512441Y235777D01*
X513473Y235913D01*
X514434Y236311D01*
X515260Y236945D01*
X515430Y237167D01*
X518488D01*
Y235811D01*
X526394D01*
Y243717D01*
X518488D01*
Y242361D01*
X515430D01*
X515260Y242583D01*
X514434Y243216D01*
X513473Y243615D01*
X512441Y243751D01*
X512163Y243714D01*
X504172Y251706D01*
Y352425D01*
X504083Y353097D01*
X503824Y353724D01*
X503411Y354261D01*
X495862Y361810D01*
Y364862D01*
X489138D01*
Y363724D01*
X485374D01*
X484259Y364839D01*
X483537Y365321D01*
X482686Y365490D01*
X482686Y365490D01*
X479441D01*
Y367022D01*
D02*
G37*
G36*
X470937Y347722D02*
X465000D01*
Y339817D01*
X465981D01*
Y330398D01*
X464843D01*
Y322886D01*
X471567D01*
Y330398D01*
X470429D01*
Y339817D01*
X470937D01*
Y347722D01*
D02*
G37*
G36*
X419091Y319837D02*
Y318413D01*
X420514D01*
X420460Y318688D01*
X420021Y319344D01*
X419365Y319782D01*
X419091Y319837D01*
D02*
G37*
G36*
X392014Y325240D02*
X383246D01*
X383293Y325000D01*
X382976Y324614D01*
X379661D01*
X378887Y324460D01*
X378231Y324021D01*
X377792Y323365D01*
X377638Y322590D01*
X377792Y321816D01*
X378059Y321417D01*
X377823Y320976D01*
X371067D01*
X371067Y320976D01*
X370370Y320837D01*
X369779Y320442D01*
X369779Y320442D01*
X360003Y310666D01*
X359608Y310075D01*
X359469Y309378D01*
X359469Y309377D01*
Y285778D01*
X357206Y283515D01*
X349006D01*
X348007Y284514D01*
X348199Y284976D01*
X348858D01*
Y290913D01*
X342727D01*
X342536Y291375D01*
X344798Y293638D01*
X348858D01*
Y299575D01*
X340953D01*
Y295515D01*
X337123Y291685D01*
X336661Y291877D01*
Y291968D01*
X329150D01*
Y285244D01*
X336661D01*
Y286583D01*
X336906D01*
X337680Y286737D01*
X338336Y287176D01*
X340491Y289331D01*
X340953Y289139D01*
Y284976D01*
X343095D01*
X343222Y284341D01*
X343479Y283956D01*
X343243Y283515D01*
X304078D01*
X302783Y284810D01*
Y285434D01*
X303462Y286112D01*
X303462Y286112D01*
X303857Y286704D01*
X303857Y286704D01*
X303857Y286704D01*
X303996Y287401D01*
X303996Y287401D01*
Y288526D01*
X304042Y288596D01*
X304196Y289370D01*
Y295276D01*
X304042Y296050D01*
X303604Y296706D01*
X303691Y296993D01*
X305189D01*
Y292823D01*
X309157D01*
Y296993D01*
X314603D01*
X317394Y294202D01*
Y292110D01*
X322937D01*
Y296472D01*
X320845D01*
X316872Y300446D01*
X316215Y300885D01*
X315441Y301039D01*
X295356D01*
X295211Y301517D01*
X295218Y301522D01*
X299759Y306063D01*
X299804Y306045D01*
X300874Y305904D01*
X301944Y306045D01*
X302942Y306458D01*
X303798Y307115D01*
X304455Y307972D01*
X304869Y308969D01*
X305009Y310039D01*
X304869Y311110D01*
X304850Y311154D01*
X308405Y314709D01*
X319461D01*
Y313961D01*
X326382D01*
Y319504D01*
X319461D01*
Y318755D01*
X307567D01*
X306793Y318601D01*
X306136Y318163D01*
X301989Y314015D01*
X301944Y314034D01*
X300874Y314175D01*
X299804Y314034D01*
X298806Y313621D01*
X297950Y312964D01*
X297293Y312107D01*
X296880Y311110D01*
X296739Y310039D01*
X296880Y308969D01*
X296898Y308925D01*
X292949Y304976D01*
X281583D01*
X280808Y304822D01*
X280152Y304383D01*
X275743Y299974D01*
X275304Y299318D01*
X275150Y298543D01*
Y295394D01*
Y295276D01*
Y292323D01*
Y289370D01*
X275304Y288596D01*
X275743Y287940D01*
X276399Y287501D01*
X277173Y287347D01*
X277947Y287501D01*
X278604Y287940D01*
X279042Y288596D01*
X279196Y289370D01*
Y295276D01*
Y295394D01*
Y297705D01*
X282421Y300930D01*
X293400D01*
X293545Y300451D01*
X293538Y300446D01*
X290743Y297651D01*
X290304Y296995D01*
X290150Y296220D01*
Y295276D01*
Y292323D01*
Y289370D01*
X290304Y288596D01*
X290743Y287940D01*
X291399Y287501D01*
X292173Y287347D01*
X292947Y287501D01*
X293604Y287940D01*
X294042Y288596D01*
X294196Y289370D01*
Y295276D01*
X294196Y295276D01*
D01*
X294785Y295903D01*
X295229Y295674D01*
X295150Y295276D01*
Y289370D01*
X295304Y288596D01*
X295351Y288526D01*
Y287401D01*
X295351Y287401D01*
X295490Y286704D01*
X295885Y286112D01*
X296563Y285434D01*
Y282989D01*
X296563Y282989D01*
X296702Y282291D01*
X297097Y281700D01*
X300968Y277830D01*
X300968Y277830D01*
X301559Y277434D01*
X301559Y277434D01*
X301559Y277434D01*
D01*
X301559Y277434D01*
X301559Y277434D01*
X302256Y277296D01*
X342872D01*
X343189Y276909D01*
X343083Y276377D01*
X342377Y276236D01*
X340953D01*
Y272074D01*
X340491Y271882D01*
X338336Y274037D01*
X337680Y274475D01*
X336906Y274629D01*
X336661D01*
Y275969D01*
X329150D01*
Y269244D01*
X336661D01*
Y269336D01*
X337123Y269527D01*
X340953Y265698D01*
Y261638D01*
X348858D01*
Y267575D01*
X344798D01*
X342536Y269837D01*
X342727Y270299D01*
X348858D01*
Y276236D01*
X347995D01*
X347804Y276698D01*
X348401Y277296D01*
X359027D01*
X359027Y277296D01*
X359724Y277434D01*
X360316Y277830D01*
X365155Y282668D01*
X365550Y283260D01*
X365689Y283957D01*
X365689Y283957D01*
Y307556D01*
X372889Y314756D01*
X374989D01*
X375224Y314315D01*
X374989Y313963D01*
X374835Y313189D01*
X374989Y312415D01*
X375428Y311758D01*
X375475Y311711D01*
Y311711D01*
D01*
Y311711D01*
X375475Y311711D01*
D01*
D01*
X375475D01*
X375475Y311711D01*
Y311711D01*
X375475Y311711D01*
Y311711D01*
X376131Y311273D01*
X376905Y311119D01*
X377564D01*
X378014Y310818D01*
X378085Y310732D01*
X377938Y309992D01*
X378092Y309218D01*
X378530Y308561D01*
X379186Y308123D01*
X379961Y307969D01*
X380793D01*
X380984Y307507D01*
X378530Y305053D01*
X378092Y304397D01*
X377938Y303623D01*
X378092Y302848D01*
X378530Y302192D01*
X379186Y301753D01*
X379961Y301600D01*
X380735Y301753D01*
X381391Y302192D01*
X384018Y304819D01*
X390090D01*
X390865Y304973D01*
X391521Y305412D01*
X391960Y306068D01*
X392114Y306842D01*
X391960Y307617D01*
X391521Y308273D01*
Y308561D01*
X391960Y309218D01*
X392114Y309992D01*
X391960Y310766D01*
X391521Y311423D01*
X391521D01*
Y311711D01*
X391960Y312368D01*
X392114Y313142D01*
X391960Y313916D01*
X391521Y314572D01*
Y314861D01*
X391960Y315517D01*
X392114Y316291D01*
X391960Y317066D01*
X391521Y317722D01*
Y318010D01*
X391960Y318667D01*
X392114Y319441D01*
X391960Y320215D01*
X391521Y320871D01*
Y321160D01*
X391960Y321816D01*
X392114Y322590D01*
X391960Y323365D01*
X391521Y324021D01*
Y324310D01*
X391960Y324966D01*
X392014Y325240D01*
D02*
G37*
G36*
X512500Y348725D02*
X511622Y348609D01*
X510804Y348270D01*
X510102Y347731D01*
X509563Y347029D01*
X509224Y346211D01*
X509109Y345333D01*
X509224Y344456D01*
X509506Y343776D01*
Y326891D01*
X509224Y326211D01*
X509109Y325333D01*
X509224Y324456D01*
X509563Y323638D01*
X510102Y322935D01*
X510804Y322396D01*
X511622Y322058D01*
X512500Y321942D01*
X513378Y322058D01*
X514196Y322396D01*
X514898Y322935D01*
X515437Y323638D01*
X515776Y324456D01*
X515891Y325333D01*
X515776Y326211D01*
X515494Y326891D01*
Y343776D01*
X515776Y344456D01*
X515891Y345333D01*
X515776Y346211D01*
X515437Y347029D01*
X514898Y347731D01*
X514196Y348270D01*
X513378Y348609D01*
X512500Y348725D01*
D02*
G37*
G36*
X377169Y328559D02*
X374209D01*
Y326287D01*
X377169D01*
Y328559D01*
D02*
G37*
G36*
X403130Y330405D02*
X401706D01*
X401761Y330131D01*
X402199Y329475D01*
X402856Y329036D01*
X403130Y328982D01*
Y330405D01*
D02*
G37*
G36*
X405554D02*
X404130D01*
Y328982D01*
X404404Y329036D01*
X405060Y329475D01*
X405499Y330131D01*
X405554Y330405D01*
D02*
G37*
G36*
X373209Y325287D02*
X370248D01*
Y323016D01*
X373209D01*
Y325287D01*
D02*
G37*
G36*
X377169D02*
X374209D01*
Y323016D01*
X377169D01*
Y325287D01*
D02*
G37*
G36*
X373209Y328559D02*
X370248D01*
Y326287D01*
X373209D01*
Y328559D01*
D02*
G37*
G36*
X295256Y368323D02*
X291803D01*
Y364870D01*
X295256D01*
Y368323D01*
D02*
G37*
G36*
X299709D02*
X296256D01*
Y364870D01*
X299709D01*
Y368323D01*
D02*
G37*
G36*
X225500Y369500D02*
X220888D01*
X220998Y368660D01*
X221516Y367411D01*
X222339Y366338D01*
X223411Y365516D01*
X224660Y364998D01*
X225500Y364888D01*
Y369500D01*
D02*
G37*
G36*
X299709Y363870D02*
X296256D01*
Y360417D01*
X299709D01*
Y363870D01*
D02*
G37*
G36*
X314846Y363098D02*
X308244D01*
Y360433D01*
X314846D01*
Y363098D01*
D02*
G37*
G36*
X322449D02*
X315846D01*
Y360433D01*
X322449D01*
Y363098D01*
D02*
G37*
G36*
X268500Y374689D02*
X265079D01*
X265149Y374157D01*
X265547Y373196D01*
X266181Y372370D01*
X267007Y371736D01*
X267968Y371338D01*
X268500Y371268D01*
Y374689D01*
D02*
G37*
G36*
X272921D02*
X269500D01*
Y371268D01*
X270032Y371338D01*
X270993Y371736D01*
X271819Y372370D01*
X272453Y373196D01*
X272851Y374157D01*
X272921Y374689D01*
D02*
G37*
G36*
X322449Y376500D02*
X308244D01*
Y373835D01*
X308244Y373835D01*
X308244Y373464D01*
X308244D01*
Y372968D01*
X308062Y372892D01*
X307442Y372416D01*
X301119Y366093D01*
X300643Y365473D01*
X300432Y364963D01*
X300344Y364751D01*
X300242Y363976D01*
Y342962D01*
X300131Y342947D01*
X299146Y342539D01*
X298436Y341994D01*
X273035D01*
Y342831D01*
X269167D01*
X252204Y359794D01*
X251584Y360270D01*
X251073Y360482D01*
X250862Y360569D01*
X250087Y360671D01*
X228583D01*
X227808Y360569D01*
X227509Y360445D01*
X227086Y360270D01*
X226466Y359794D01*
X220630Y353959D01*
X215469D01*
X214565Y353840D01*
X213723Y353491D01*
X213000Y352937D01*
X212446Y352214D01*
X212097Y351372D01*
X211978Y350468D01*
Y345547D01*
X212097Y344644D01*
X212446Y343802D01*
X213000Y343079D01*
X213723Y342524D01*
X214565Y342176D01*
X215469Y342057D01*
X222358D01*
X223262Y342176D01*
X224103Y342524D01*
X224826Y343079D01*
X225381Y343802D01*
X225730Y344644D01*
X225849Y345547D01*
Y350468D01*
X225821Y350681D01*
X229823Y354683D01*
X248846D01*
X264933Y338596D01*
Y334728D01*
X273035D01*
Y336006D01*
X298436D01*
X299146Y335461D01*
X300131Y335053D01*
X301189Y334914D01*
X302246Y335053D01*
X303232Y335461D01*
X304078Y336111D01*
X304728Y336957D01*
X305136Y337942D01*
X305253Y338829D01*
X305353Y338930D01*
X305829Y339550D01*
X305979Y339911D01*
X306128Y340272D01*
X306230Y341047D01*
Y362736D01*
X307782Y364288D01*
X308244Y364097D01*
Y364098D01*
X322449D01*
Y366764D01*
D01*
Y366764D01*
X322449Y366764D01*
Y367134D01*
X322449D01*
Y373465D01*
D01*
Y373464D01*
X322449Y373465D01*
Y373835D01*
X322449D01*
Y376500D01*
D02*
G37*
G36*
X231112Y369500D02*
X226500D01*
Y364888D01*
X227340Y364998D01*
X228589Y365516D01*
X229661Y366338D01*
X230484Y367411D01*
X231002Y368660D01*
X231112Y369500D01*
D02*
G37*
G36*
X225500Y375112D02*
X224660Y375002D01*
X223411Y374484D01*
X222339Y373661D01*
X221516Y372589D01*
X220998Y371340D01*
X220888Y370500D01*
X225500D01*
Y375112D01*
D02*
G37*
G36*
X226500D02*
Y370500D01*
X231112D01*
X231002Y371340D01*
X230484Y372589D01*
X229661Y373661D01*
X228589Y374484D01*
X227340Y375002D01*
X226500Y375112D01*
D02*
G37*
G36*
X572500Y349178D02*
X571160Y349002D01*
X569911Y348484D01*
X568839Y347661D01*
X568326Y346994D01*
X551224D01*
X550768Y347450D01*
X550148Y347926D01*
X549637Y348138D01*
X549426Y348225D01*
X548651Y348327D01*
X534057D01*
X533378Y348609D01*
X532500Y348725D01*
X531622Y348609D01*
X530804Y348270D01*
X530102Y347731D01*
X529563Y347029D01*
X529224Y346211D01*
X529109Y345333D01*
X529224Y344456D01*
X529506Y343776D01*
Y326891D01*
X529224Y326211D01*
X529109Y325333D01*
X529224Y324456D01*
X529563Y323638D01*
X530102Y322935D01*
X530804Y322396D01*
X531314Y322185D01*
X531217Y321695D01*
X530373D01*
X525718Y326349D01*
X525494Y326891D01*
Y343776D01*
X525776Y344456D01*
X525891Y345333D01*
X525776Y346211D01*
X525437Y347029D01*
X524898Y347731D01*
X524196Y348270D01*
X523378Y348609D01*
X522500Y348725D01*
X521622Y348609D01*
X520804Y348270D01*
X520102Y347731D01*
X519563Y347029D01*
X519224Y346211D01*
X519109Y345333D01*
X519224Y344456D01*
X519506Y343776D01*
Y326891D01*
X519224Y326211D01*
X519109Y325333D01*
X519224Y324456D01*
X519563Y323638D01*
X520102Y322935D01*
X520804Y322396D01*
X521484Y322115D01*
X527015Y316584D01*
X527635Y316108D01*
X528146Y315896D01*
X528358Y315809D01*
X529133Y315707D01*
X567201D01*
X567976Y315809D01*
X568187Y315896D01*
X568698Y316108D01*
X569318Y316584D01*
X571600Y318866D01*
X577634D01*
Y329134D01*
X567366D01*
Y323100D01*
X565961Y321695D01*
X533783D01*
X533686Y322185D01*
X534196Y322396D01*
X534898Y322935D01*
X535437Y323638D01*
X535776Y324456D01*
X535891Y325333D01*
X535776Y326211D01*
X535494Y326891D01*
Y342339D01*
X547411D01*
X547867Y341883D01*
X548487Y341407D01*
X548998Y341196D01*
X549209Y341108D01*
X549984Y341006D01*
X568326D01*
X568839Y340338D01*
X569911Y339516D01*
X571160Y338998D01*
X572500Y338822D01*
X573840Y338998D01*
X575089Y339516D01*
X576161Y340338D01*
X576984Y341411D01*
X577502Y342660D01*
X577678Y344000D01*
X577502Y345340D01*
X576984Y346589D01*
X576161Y347661D01*
X575089Y348484D01*
X573840Y349002D01*
X572500Y349178D01*
D02*
G37*
G36*
X268484Y354611D02*
X267927Y354538D01*
X266941Y354129D01*
X266095Y353480D01*
X265446Y352634D01*
X265037Y351648D01*
X264964Y351091D01*
X268484D01*
Y354611D01*
D02*
G37*
G36*
X269484D02*
Y351091D01*
X273005D01*
X272931Y351648D01*
X272523Y352634D01*
X271874Y353480D01*
X271027Y354129D01*
X270042Y354538D01*
X269484Y354611D01*
D02*
G37*
G36*
X492500Y348725D02*
X491622Y348609D01*
X490804Y348270D01*
X490102Y347731D01*
X489968Y347557D01*
X484987D01*
X484136Y347388D01*
X483847Y347195D01*
X483414Y346906D01*
X483414Y346906D01*
X482502Y345993D01*
X479598D01*
Y347722D01*
X473661D01*
Y339817D01*
X479598D01*
Y341546D01*
X483423D01*
X483423Y341546D01*
X484274Y341715D01*
X484995Y342197D01*
X485908Y343109D01*
X489968D01*
X490102Y342935D01*
X490804Y342396D01*
X491622Y342058D01*
X492500Y341942D01*
X493378Y342058D01*
X494196Y342396D01*
X494898Y342935D01*
X495437Y343638D01*
X495776Y344456D01*
X495891Y345333D01*
X495776Y346211D01*
X495437Y347029D01*
X494898Y347731D01*
X494196Y348270D01*
X493378Y348609D01*
X492500Y348725D01*
D02*
G37*
G36*
X268484Y350091D02*
X264964D01*
X265037Y349533D01*
X265446Y348548D01*
X266095Y347701D01*
X266941Y347052D01*
X267927Y346644D01*
X268484Y346570D01*
Y350091D01*
D02*
G37*
G36*
X273005D02*
X269484D01*
Y346570D01*
X270042Y346644D01*
X271027Y347052D01*
X271874Y347701D01*
X272523Y348548D01*
X272931Y349533D01*
X273005Y350091D01*
D02*
G37*
G36*
X572500Y389178D02*
X571160Y389002D01*
X569911Y388484D01*
X568839Y387662D01*
X568326Y386994D01*
X535000D01*
X534225Y386892D01*
X533802Y386717D01*
X533503Y386593D01*
X532883Y386117D01*
X531484Y384718D01*
X530804Y384437D01*
X530102Y383898D01*
X529563Y383196D01*
X529224Y382378D01*
X529109Y381500D01*
X529224Y380622D01*
X529506Y379943D01*
Y363057D01*
X529224Y362378D01*
X529109Y361500D01*
X529224Y360622D01*
X529563Y359804D01*
X530064Y359151D01*
X529930Y358879D01*
X529437Y358798D01*
X525718Y362516D01*
X525494Y363057D01*
Y379943D01*
X525776Y380622D01*
X525891Y381500D01*
X525776Y382378D01*
X525437Y383196D01*
X524898Y383898D01*
X524196Y384437D01*
X523378Y384776D01*
X522500Y384891D01*
X521622Y384776D01*
X520804Y384437D01*
X520102Y383898D01*
X519563Y383196D01*
X519224Y382378D01*
X519109Y381500D01*
X519224Y380622D01*
X519506Y379943D01*
Y363057D01*
X519224Y362378D01*
X519109Y361500D01*
X519224Y360622D01*
X519563Y359804D01*
X520102Y359102D01*
X520804Y358563D01*
X521484Y358282D01*
X526174Y353591D01*
X526794Y353116D01*
X527305Y352904D01*
X527516Y352817D01*
X528291Y352714D01*
X564209D01*
X564984Y352817D01*
X565195Y352904D01*
X565706Y353116D01*
X566326Y353591D01*
X571600Y358866D01*
X577634D01*
Y369134D01*
X567366D01*
Y363101D01*
X562968Y358703D01*
X535157D01*
X534936Y359151D01*
X535437Y359804D01*
X535776Y360622D01*
X535891Y361500D01*
X535776Y362378D01*
X535494Y363057D01*
Y379943D01*
X535718Y380484D01*
X536240Y381006D01*
X568326D01*
X568839Y380339D01*
X569911Y379516D01*
X571160Y378998D01*
X572500Y378822D01*
X573840Y378998D01*
X575089Y379516D01*
X576161Y380339D01*
X576984Y381411D01*
X577502Y382660D01*
X577678Y384000D01*
X577502Y385340D01*
X576984Y386589D01*
X576161Y387662D01*
X575089Y388484D01*
X573840Y389002D01*
X572500Y389178D01*
D02*
G37*
G36*
X470937Y384346D02*
X465000D01*
Y376441D01*
X465981D01*
Y367022D01*
X464843D01*
Y359511D01*
X471567D01*
Y367022D01*
X470429D01*
Y376441D01*
X470937D01*
Y384346D01*
D02*
G37*
G36*
X295256Y363870D02*
X291803D01*
Y360417D01*
X295256D01*
Y363870D01*
D02*
G37*
G36*
X358154Y376500D02*
X340921D01*
Y354937D01*
X358154D01*
Y376500D01*
D02*
G37*
G36*
X376386D02*
X359154D01*
Y354937D01*
X376386D01*
Y376500D01*
D02*
G37*
G36*
X512500Y384891D02*
X511622Y384776D01*
X510804Y384437D01*
X510102Y383898D01*
X509563Y383196D01*
X509224Y382378D01*
X509109Y381500D01*
X509224Y380622D01*
X509506Y379943D01*
Y363057D01*
X509224Y362378D01*
X509109Y361500D01*
X509224Y360622D01*
X509563Y359804D01*
X510102Y359102D01*
X510804Y358563D01*
X511622Y358224D01*
X512500Y358109D01*
X513378Y358224D01*
X514196Y358563D01*
X514898Y359102D01*
X515437Y359804D01*
X515776Y360622D01*
X515891Y361500D01*
X515776Y362378D01*
X515494Y363057D01*
Y379943D01*
X515776Y380622D01*
X515891Y381500D01*
X515776Y382378D01*
X515437Y383196D01*
X514898Y383898D01*
X514196Y384437D01*
X513378Y384776D01*
X512500Y384891D01*
D02*
G37*
%LPD*%
D10*
X358654Y377000D02*
D03*
D11*
X315346Y363598D02*
D03*
Y370299D02*
D03*
Y377000D02*
D03*
Y383701D02*
D03*
Y390402D02*
D03*
D12*
X261638Y246638D02*
D03*
Y237976D02*
D03*
X286734Y246638D02*
D03*
Y237976D02*
D03*
X311830Y246638D02*
D03*
Y237976D02*
D03*
X336926Y246638D02*
D03*
Y237976D02*
D03*
X362022Y246638D02*
D03*
Y237976D02*
D03*
X387118Y246638D02*
D03*
Y237976D02*
D03*
X412214Y246638D02*
D03*
Y237976D02*
D03*
X241740Y325394D02*
D03*
Y316732D02*
D03*
X437310Y246638D02*
D03*
Y237976D02*
D03*
X344905Y273268D02*
D03*
Y264606D02*
D03*
Y287945D02*
D03*
Y296606D02*
D03*
D13*
X273871Y238213D02*
D03*
Y246087D02*
D03*
X298967Y238213D02*
D03*
Y246087D02*
D03*
X324063Y238213D02*
D03*
Y246087D02*
D03*
X349159Y238213D02*
D03*
Y246087D02*
D03*
X374255Y238213D02*
D03*
Y246087D02*
D03*
X399351Y238213D02*
D03*
Y246087D02*
D03*
X424447Y238213D02*
D03*
Y246087D02*
D03*
X449543Y238213D02*
D03*
Y246087D02*
D03*
X241425Y344685D02*
D03*
Y336811D02*
D03*
X332906Y272606D02*
D03*
Y264732D02*
D03*
Y288606D02*
D03*
Y296480D02*
D03*
D14*
X295756Y364370D02*
D03*
Y383071D02*
D03*
X269000Y387000D02*
D03*
X243335Y279780D02*
D03*
X413386Y286221D02*
D03*
X426378Y381102D02*
D03*
D15*
X307173Y292323D02*
D03*
D16*
X302173D02*
D03*
X297173D02*
D03*
X292173D02*
D03*
X287173D02*
D03*
X282173D02*
D03*
X277173D02*
D03*
X272173D02*
D03*
Y268701D02*
D03*
X277173D02*
D03*
X282173D02*
D03*
X287173D02*
D03*
X292173D02*
D03*
X297173D02*
D03*
X302173D02*
D03*
X307173D02*
D03*
D17*
X320559Y271457D02*
D03*
Y265158D02*
D03*
X322921Y310433D02*
D03*
X322921Y316732D02*
D03*
X261110Y310433D02*
D03*
Y316732D02*
D03*
X373709Y325787D02*
D03*
Y332087D02*
D03*
D18*
X320165Y294291D02*
D03*
Y289173D02*
D03*
D19*
X476630Y270521D02*
D03*
X467969D02*
D03*
X476630Y380394D02*
D03*
X467969D02*
D03*
X476630Y308145D02*
D03*
X467969D02*
D03*
X476630Y343769D02*
D03*
X467969D02*
D03*
D20*
X468205Y253394D02*
D03*
X476079D02*
D03*
X468205Y363266D02*
D03*
X476079D02*
D03*
X468205Y291018D02*
D03*
X476079D02*
D03*
X468205Y326642D02*
D03*
X476079D02*
D03*
D21*
X427000Y347000D02*
D03*
D22*
X423850D02*
D03*
X420701D02*
D03*
X417551D02*
D03*
X414402D02*
D03*
X411252D02*
D03*
X408102D02*
D03*
X404953D02*
D03*
X401803D02*
D03*
X398654D02*
D03*
X395504D02*
D03*
X395504Y298181D02*
D03*
X398654D02*
D03*
X401803D02*
D03*
X404953D02*
D03*
X408102D02*
D03*
X411252D02*
D03*
X414402D02*
D03*
X417551D02*
D03*
X420701D02*
D03*
X423850D02*
D03*
X427000D02*
D03*
D23*
X387630Y338339D02*
D03*
Y335189D02*
D03*
Y332039D02*
D03*
Y328890D02*
D03*
Y325740D02*
D03*
Y322590D02*
D03*
Y319441D02*
D03*
Y316291D02*
D03*
Y313142D02*
D03*
X387630Y309992D02*
D03*
Y306842D02*
D03*
X434874D02*
D03*
Y309992D02*
D03*
Y313142D02*
D03*
Y316291D02*
D03*
Y319441D02*
D03*
Y322590D02*
D03*
Y325740D02*
D03*
Y328890D02*
D03*
Y332039D02*
D03*
Y335189D02*
D03*
Y338339D02*
D03*
D24*
X226000Y390000D02*
X266000D01*
X269000Y387000D01*
X272402Y390402D02*
X315346D01*
X269000Y387000D02*
X272402Y390402D01*
X301189Y339000D02*
X303236Y341047D01*
Y363976D01*
X309559Y370299D01*
X315346D01*
X302087Y377000D02*
X315346D01*
X295756Y370669D02*
X302087Y377000D01*
X295756Y364370D02*
Y370669D01*
X315346Y377000D02*
X323284D01*
X326465Y373819D01*
Y366732D02*
Y373819D01*
X323331Y363598D02*
X326465Y366732D01*
X315346Y363598D02*
X323331D01*
X279819Y364370D02*
X295756D01*
Y383701D02*
X315346D01*
X327213D01*
X333551Y377362D01*
X269000Y375189D02*
X279819Y364370D01*
X268984Y350590D02*
Y353535D01*
X279819Y364370D01*
X231189Y375189D02*
X269000D01*
X226000Y370000D02*
X231189Y375189D01*
X250087Y357677D02*
X268984Y338779D01*
Y339000D02*
X301189D01*
X228583Y357677D02*
X250087D01*
X218913Y348008D02*
X228583Y357677D01*
X313000Y339000D02*
X333551Y359551D01*
Y377362D01*
X512500Y361500D02*
Y381500D01*
X522500Y361500D02*
Y381500D01*
X532500Y361500D02*
Y381500D01*
X535000Y384000D01*
X572500D01*
X522500Y361500D02*
X528291Y355709D01*
X564209D01*
X572500Y364000D01*
X512500Y325333D02*
Y345333D01*
X522500Y325333D02*
Y345333D01*
Y325333D02*
X529133Y318701D01*
X532500Y325333D02*
Y345333D01*
X548651D01*
X549984Y344000D01*
X572500D01*
X529133Y318701D02*
X567201D01*
X572500Y324000D01*
X512500Y289167D02*
Y309167D01*
X522500Y289167D02*
Y309167D01*
X532500Y289167D02*
Y309167D01*
X544660D01*
X549827Y304000D01*
X572500D01*
X522500Y289167D02*
X529974Y281693D01*
X570193D01*
X572500Y284000D01*
X512500Y253000D02*
Y273000D01*
X522500Y253000D02*
Y273000D01*
Y253000D02*
X531500Y244000D01*
X532500Y253000D02*
Y273000D01*
X563500D01*
X531500Y244000D02*
X572500D01*
X563500Y273000D02*
X572500Y264000D01*
X214653Y381347D02*
X226000Y370000D01*
X514260Y440354D02*
X528827Y425787D01*
X224102Y425000D02*
X248500D01*
X214653Y415945D02*
X239063Y440354D01*
X273315Y440185D02*
X288500Y425000D01*
X313866Y439634D02*
X328500Y425000D01*
X239063Y440354D02*
X353146D01*
X368500Y425000D01*
X353146Y440354D02*
X393146D01*
X408500Y425000D01*
X433157Y440343D02*
X448500Y425000D01*
X393146Y440354D02*
X514260D01*
X474102Y439398D02*
X488500Y425000D01*
X228039Y407283D02*
X328370D01*
X358654Y377000D01*
X200874Y344874D02*
X226000Y370000D01*
X214653Y393898D02*
X228039Y407283D01*
X214653Y381347D02*
Y393898D01*
Y415945D01*
X200874Y235236D02*
Y344874D01*
Y235236D02*
X240244Y195866D01*
X535366D02*
X548000Y208500D01*
X495366Y195866D02*
X535366D01*
X495366D02*
X508000Y208500D01*
X455366Y195866D02*
X495366D01*
X455366D02*
X468000Y208500D01*
X415366Y195866D02*
X455366D01*
X415366D02*
X428000Y208500D01*
X375366Y195866D02*
X415366D01*
X375366D02*
X388000Y208500D01*
X335520Y196020D02*
X348000Y208500D01*
X240244Y195866D02*
X295366D01*
X375366D01*
X295366D02*
X308000Y208500D01*
X255992Y196492D02*
X268000Y208500D01*
D25*
X315047Y377299D02*
X315346Y377000D01*
X387583Y322638D02*
X387630Y322590D01*
X387583Y310039D02*
X387630Y309992D01*
X490733Y363266D02*
X492500Y361500D01*
X387583Y338386D02*
X387630Y338339D01*
X407961Y347142D02*
X408102Y347000D01*
D26*
X241740Y325394D02*
Y336496D01*
X361189Y332087D02*
X373709D01*
X358653Y334622D02*
X361189Y332087D01*
X330402Y262228D02*
X332906Y264732D01*
X262291Y226633D02*
X273871Y238213D01*
X287488Y226734D02*
X298967Y238213D01*
X330402Y244551D02*
Y262228D01*
X324063Y238213D02*
X330402Y244551D01*
X312032Y226181D02*
X324063Y238213D01*
X337127Y226181D02*
X349159Y238213D01*
X362685Y226642D02*
X374255Y238213D01*
X387488Y226350D02*
X399351Y238213D01*
X413079Y226844D02*
X424447Y238213D01*
X437882Y226551D02*
X449543Y238213D01*
X476079Y253394D02*
X492106D01*
X468205D02*
Y270285D01*
X476630Y270521D02*
X490021D01*
X492500Y273000D01*
Y289167D02*
X500761Y280906D01*
X477930Y289167D02*
X492500D01*
X476079Y291018D02*
X477930Y289167D01*
X468205Y291018D02*
Y307909D01*
X476630Y308145D02*
X483232D01*
X484253Y309167D01*
X492500D01*
Y325333D02*
X500707Y317126D01*
X476079Y326642D02*
X481515D01*
X482824Y325333D01*
X492500D01*
X468205Y326642D02*
Y343533D01*
X476630Y343769D02*
X483423D01*
X484987Y345333D01*
X492500D01*
X476079Y363266D02*
X482686D01*
X484453Y361500D01*
X492500D01*
X468205Y363266D02*
Y380157D01*
X476630Y380394D02*
X481071D01*
X482177Y381500D01*
X492500D01*
D27*
X218913Y329504D02*
X231685Y316732D01*
X241740D01*
X243335Y279780D02*
Y301043D01*
X233378Y311000D02*
X243335Y301043D01*
X218913Y311000D02*
X233378D01*
X350780Y314937D02*
Y334622D01*
X358653Y314937D02*
Y334622D01*
X241740Y316732D02*
X246543D01*
X341158Y325000D02*
X350780Y334622D01*
X246543Y316732D02*
X254811Y325000D01*
X341158D01*
X207961Y318551D02*
X218913Y329504D01*
X207961Y241535D02*
Y318551D01*
Y241535D02*
X223315Y226181D01*
X312032D01*
X337127D01*
X498858D01*
X512441Y239764D01*
X522441D01*
X492500Y253000D02*
X499205D01*
X501575Y250630D02*
X512441Y239764D01*
X492500Y361500D02*
X501575Y352425D01*
Y250630D02*
Y352425D01*
X499205Y253000D02*
X502149Y250056D01*
D28*
X373709Y332039D02*
X387630D01*
X373709Y325740D02*
X387630D01*
X272173Y300551D02*
X281661Y310039D01*
X272173Y292323D02*
Y300551D01*
X261110Y316732D02*
X274969D01*
X281661Y310039D01*
X307567Y316732D02*
X322921D01*
X292173Y292323D02*
Y296220D01*
X277173Y292323D02*
Y295394D01*
X300874Y310039D02*
X307567Y316732D01*
X293787Y302953D02*
X300874Y310039D01*
X281583Y302953D02*
X293787D01*
X277173Y298543D02*
X281583Y302953D01*
X277173Y292323D02*
Y298543D01*
X315441Y299016D02*
X320165Y294291D01*
X292173Y296220D02*
X294969Y299016D01*
X315441D01*
X336906Y288606D02*
X344905Y296606D01*
X332906Y288606D02*
X336906D01*
Y272606D02*
X344905Y264606D01*
X332906Y272606D02*
X336906D01*
X379661Y322590D02*
X387630D01*
X379961Y309992D02*
X387630D01*
X376858Y313189D02*
X376905Y313142D01*
X387630D01*
X379961Y303623D02*
X383180Y306842D01*
X387630D01*
X261638Y254728D02*
X269311Y262402D01*
X261638Y246638D02*
Y254728D01*
X286734Y251411D02*
X296543Y261221D01*
X286734Y246638D02*
Y251411D01*
X311830Y252098D02*
X319786Y260053D01*
X311830Y246638D02*
Y252098D01*
X337882Y247594D02*
Y260433D01*
X362022Y246638D02*
Y264699D01*
X369169Y271846D01*
X395504Y298181D01*
X387118Y246638D02*
Y271850D01*
X401803Y257049D02*
X412214Y246638D01*
X401803Y257049D02*
Y274606D01*
X437310Y246638D02*
Y259824D01*
X430658Y266475D02*
X437310Y259824D01*
X320559Y265158D02*
X332480D01*
X310717D02*
X320559D01*
X307173Y268701D02*
X310717Y265158D01*
X332906Y297063D02*
X350780Y314937D01*
X261638Y237976D02*
X265761D01*
X273871Y246087D01*
X286734Y237976D02*
X294844Y246087D01*
X298967D01*
X311830Y237976D02*
X319940Y246087D01*
X324063D01*
X336926Y237976D02*
X345036Y246087D01*
X349159D01*
X362022Y237976D02*
X370132Y246087D01*
X374255D01*
X387118Y237976D02*
X395008Y245866D01*
X399351D01*
X412214Y237976D02*
X420324Y246087D01*
X424447D01*
X437310Y237976D02*
X445420Y246087D01*
X449543D01*
X440291Y328890D02*
X449299Y319882D01*
X434874Y328890D02*
X440291D01*
X434874Y332039D02*
X439409D01*
X450874Y343504D01*
Y350197D01*
X380402Y338386D02*
X387583D01*
X395504Y347000D02*
Y352811D01*
X398654Y347000D02*
Y357677D01*
X401803Y347000D02*
Y368843D01*
X404953Y383016D02*
X412291Y390354D01*
X404953Y347000D02*
Y383016D01*
X310323Y289173D02*
X320165D01*
X307173Y292323D02*
X310323Y289173D01*
X457677Y391929D02*
X492606D01*
X455102Y389354D02*
X457677Y391929D01*
X387118Y271850D02*
Y282787D01*
X398654Y294323D01*
Y298181D01*
X422606Y386386D02*
X463047D01*
X465047Y388386D01*
X530402D01*
X533157Y391142D01*
X408102Y380278D02*
X420147Y392323D01*
X421377Y389354D02*
X455102D01*
X408102Y347000D02*
Y380278D01*
X420147Y392323D02*
X452449D01*
X414402Y382379D02*
X421377Y389354D01*
X417551Y381331D02*
X422606Y386386D01*
X414402Y347000D02*
Y382379D01*
X417551Y347000D02*
Y381331D01*
X420701Y347000D02*
Y365425D01*
X423850Y347000D02*
Y358575D01*
X427000Y347000D02*
X431315Y351315D01*
Y366039D01*
X434874Y338339D02*
Y359598D01*
X420701Y365425D02*
X426378Y371102D01*
X423850Y358575D02*
X426378Y361102D01*
X431315Y366039D02*
X436378Y371102D01*
X434874Y359598D02*
X436378Y361102D01*
X427000Y298181D02*
X441520Y283661D01*
X449693D01*
X449299Y253346D02*
Y268024D01*
X423850Y293472D02*
Y298181D01*
Y293472D02*
X449299Y268024D01*
X420701Y291898D02*
Y298181D01*
X401803Y274606D02*
Y298181D01*
X408102Y281504D02*
Y298181D01*
X411252Y288354D02*
Y298181D01*
X408102Y281504D02*
X413386Y276220D01*
X411252Y288354D02*
X413386Y286221D01*
X420701Y291898D02*
X423386Y289213D01*
Y286221D02*
Y289213D01*
X434874Y306842D02*
X434890D01*
X454724Y287008D01*
Y246850D02*
Y287008D01*
Y246850D02*
X462126Y239449D01*
X418449Y281157D02*
X423386Y276220D01*
X418449Y281157D02*
Y289951D01*
X417551Y290849D02*
X418449Y289951D01*
X417551Y290849D02*
Y298181D01*
X434874Y313142D02*
X443157D01*
X462205Y294094D01*
X434874Y309992D02*
X439614D01*
X458268Y291339D01*
Y251208D02*
Y291339D01*
Y251208D02*
X469712Y239764D01*
X472441D01*
X462205Y251469D02*
Y294094D01*
Y251469D02*
X466824Y246850D01*
X475354D01*
X482441Y239764D01*
X404953Y275756D02*
Y298181D01*
Y275756D02*
X414233Y266475D01*
X430658D01*
D29*
X344905Y285039D02*
X348251Y281693D01*
X344905Y285039D02*
Y287945D01*
Y273268D02*
Y276377D01*
X348251Y281693D02*
X357961D01*
X382783Y319153D02*
X383070Y319441D01*
X387630D01*
X357961Y281693D02*
X361291Y285024D01*
X371067Y319153D02*
X382783D01*
X363866Y283957D02*
Y308311D01*
X361291Y285024D02*
Y309378D01*
X371067Y319153D01*
X297173Y287401D02*
Y292323D01*
Y287401D02*
X298386Y286188D01*
X302173Y287401D02*
Y292323D01*
X300961Y286188D02*
X302173Y287401D01*
X300961Y284055D02*
Y286188D01*
X383070Y316291D02*
X387630D01*
X363866Y308311D02*
X372134Y316579D01*
X382783D01*
X383070Y316291D01*
X359027Y279118D02*
X363866Y283957D01*
X344905Y276377D02*
X347646Y279118D01*
X359027D01*
X300961Y284055D02*
X303323Y281693D01*
X348251D01*
X298386Y282989D02*
X302256Y279118D01*
X347646D01*
X298386Y282989D02*
Y286188D01*
X243335Y269937D02*
X246146Y267126D01*
X254992Y272704D02*
X260831Y278543D01*
X279055D01*
X282173Y287401D02*
Y292323D01*
Y287401D02*
X283386Y286188D01*
Y282874D02*
Y286188D01*
X279055Y278543D02*
X283386Y282874D01*
X243335Y262063D02*
X245823Y264551D01*
X253417D01*
X257567Y268701D01*
Y271638D01*
X261898Y275969D01*
X280122D01*
X246146Y267126D02*
X252351D01*
X254992Y269767D01*
Y272704D01*
X280122Y275969D02*
X287173Y283020D01*
Y292323D01*
D30*
X210717Y440748D02*
D03*
X588669D02*
D03*
Y192717D02*
D03*
X210717D02*
D03*
D31*
X548500Y425000D02*
D03*
X248000Y208500D02*
D03*
X508500Y425000D02*
D03*
X288000Y208500D02*
D03*
X468500Y425000D02*
D03*
X328000Y208500D02*
D03*
X368000D02*
D03*
X428500Y425000D02*
D03*
X408000Y208500D02*
D03*
X388500Y425000D02*
D03*
X448000Y208500D02*
D03*
X348500Y425000D02*
D03*
X488000Y208500D02*
D03*
X308500Y425000D02*
D03*
X528000Y208500D02*
D03*
X268500Y425000D02*
D03*
D32*
X528500D02*
D03*
X226000Y370000D02*
D03*
X268000Y208500D02*
D03*
X488500Y425000D02*
D03*
X308000Y208500D02*
D03*
X448500Y425000D02*
D03*
X348000Y208500D02*
D03*
X388000D02*
D03*
X408500Y425000D02*
D03*
X428000Y208500D02*
D03*
X368500Y425000D02*
D03*
X468000Y208500D02*
D03*
X328500Y425000D02*
D03*
X508000Y208500D02*
D03*
X288500Y425000D02*
D03*
X548000Y208500D02*
D03*
X248500Y425000D02*
D03*
X572500Y264000D02*
D03*
Y304000D02*
D03*
Y344000D02*
D03*
Y384000D02*
D03*
D33*
X226000Y390000D02*
D03*
X572500Y244000D02*
D03*
X572500Y284000D02*
D03*
Y324000D02*
D03*
X572500Y364000D02*
D03*
D34*
X313000Y339000D02*
D03*
D35*
X301189D02*
D03*
X268984Y350590D02*
D03*
D36*
Y338779D02*
D03*
D37*
X269000Y375189D02*
D03*
X243335Y252024D02*
D03*
Y269937D02*
D03*
Y262063D02*
D03*
X423386Y276220D02*
D03*
X413386D02*
D03*
X423386Y286221D02*
D03*
X436378Y361102D02*
D03*
X426378Y361102D02*
D03*
X436378Y371102D02*
D03*
X426378D02*
D03*
X436378Y381102D02*
D03*
X462441Y239764D02*
D03*
X472441D02*
D03*
X482441D02*
D03*
X492441D02*
D03*
X512441D02*
D03*
X502441D02*
D03*
D38*
X342905Y334622D02*
D03*
X350780Y314937D02*
D03*
Y334622D02*
D03*
X358653Y314937D02*
D03*
Y334622D02*
D03*
D39*
X342905Y314937D02*
D03*
D40*
X218913Y348008D02*
D03*
Y329504D02*
D03*
D41*
Y311000D02*
D03*
D42*
X232665Y291866D02*
D03*
Y240134D02*
D03*
D43*
X532500Y273000D02*
D03*
Y253000D02*
D03*
X522500D02*
D03*
Y273000D02*
D03*
X492500Y273000D02*
D03*
X512500Y253000D02*
D03*
Y273000D02*
D03*
X532500Y381500D02*
D03*
Y361500D02*
D03*
X522500D02*
D03*
Y381500D02*
D03*
X492500Y381500D02*
D03*
X512500Y361500D02*
D03*
Y381500D02*
D03*
X532500Y309167D02*
D03*
Y289167D02*
D03*
X522500D02*
D03*
Y309167D02*
D03*
X492500Y309167D02*
D03*
X512500Y289167D02*
D03*
Y309167D02*
D03*
X532500Y345333D02*
D03*
Y325333D02*
D03*
X522500D02*
D03*
Y345333D02*
D03*
X492500Y345333D02*
D03*
X512500Y325333D02*
D03*
Y345333D02*
D03*
D44*
X492500Y253000D02*
D03*
Y361500D02*
D03*
Y289167D02*
D03*
Y325333D02*
D03*
D45*
X300874Y310039D02*
D03*
X281661D02*
D03*
D46*
X522441Y239764D02*
D03*
D47*
X379661Y322590D02*
D03*
X379961Y309992D02*
D03*
Y303623D02*
D03*
X376858Y313189D02*
D03*
X269311Y262402D02*
D03*
X296543Y261221D02*
D03*
X319786Y260053D02*
D03*
X337882Y260433D02*
D03*
X369169Y271846D02*
D03*
X387118Y271850D02*
D03*
X430658Y266475D02*
D03*
X449299Y253346D02*
D03*
X449693Y283661D02*
D03*
X449299Y319882D02*
D03*
X450874Y350197D02*
D03*
X380402Y338386D02*
D03*
X395504Y352811D02*
D03*
X412291Y390354D02*
D03*
X401803Y368843D02*
D03*
X398654Y357677D02*
D03*
X452449Y392323D02*
D03*
X492606Y391929D02*
D03*
X533157Y391142D02*
D03*
X403630Y330906D02*
D03*
X418590D02*
D03*
Y317913D02*
D03*
X404024D02*
D03*
X352449Y388386D02*
D03*
X359929D02*
D03*
X356386Y379724D02*
D03*
X365835D02*
D03*
X350087Y367913D02*
D03*
X363472D02*
D03*
X401803Y272441D02*
D03*
M02*
