%FSLAX25Y25*%
%MOIN*%
G70*
G01*
G75*
G04 Layer_Color=0*
%ADD10R,0.33465X0.42126*%
%ADD11R,0.12205X0.04331*%
%ADD12R,0.05906X0.03937*%
%ADD13R,0.05512X0.04724*%
%ADD14R,0.05906X0.05906*%
%ADD15R,0.01969X0.07874*%
%ADD16O,0.01969X0.07874*%
%ADD17R,0.04921X0.03543*%
%ADD18R,0.03543X0.02362*%
%ADD19R,0.03937X0.05906*%
%ADD20R,0.04724X0.05512*%
%ADD21R,0.01969X0.06890*%
%ADD22O,0.01969X0.06890*%
%ADD23O,0.06890X0.01969*%
%ADD24C,0.03937*%
%ADD25C,0.01000*%
%ADD26C,0.02362*%
%ADD27C,0.03150*%
%ADD28C,0.01969*%
%ADD29C,0.01575*%
%ADD30C,0.17716*%
%ADD31R,0.08268X0.08268*%
%ADD32C,0.08268*%
%ADD33R,0.08268X0.08268*%
%ADD34R,0.06102X0.06102*%
%ADD35C,0.06102*%
%ADD36R,0.06102X0.06102*%
%ADD37C,0.05906*%
%ADD38C,0.04724*%
%ADD39R,0.04724X0.04724*%
G04:AMPARAMS|DCode=40|XSize=98.43mil|YSize=118.11mil|CornerRadius=24.61mil|HoleSize=0mil|Usage=FLASHONLY|Rotation=90.000|XOffset=0mil|YOffset=0mil|HoleType=Round|Shape=RoundedRectangle|*
%AMROUNDEDRECTD40*
21,1,0.09843,0.06890,0,0,90.0*
21,1,0.04921,0.11811,0,0,90.0*
1,1,0.04921,0.03445,0.02461*
1,1,0.04921,0.03445,-0.02461*
1,1,0.04921,-0.03445,-0.02461*
1,1,0.04921,-0.03445,0.02461*
%
%ADD40ROUNDEDRECTD40*%
%ADD41R,0.11811X0.09843*%
%ADD42C,0.11811*%
%ADD43C,0.04724*%
%ADD44R,0.04724X0.04724*%
%ADD45C,0.06200*%
%ADD46R,0.05906X0.05906*%
%ADD47C,0.01969*%
%ADD48R,0.02362X0.05906*%
%ADD49R,0.04724X0.03937*%
%ADD50R,0.04724X0.03543*%
%ADD51R,0.05118X0.03543*%
%ADD52R,0.03543X0.04921*%
%ADD53C,0.00787*%
%ADD54C,0.00394*%
%ADD55C,0.01200*%
%ADD56C,0.00591*%
%ADD57C,0.00500*%
%ADD58C,0.00400*%
%ADD59C,0.00600*%
%ADD60C,0.00236*%
%ADD61C,0.00984*%
%ADD62C,0.02362*%
%ADD63R,0.34265X0.42926*%
%ADD64R,0.13005X0.05131*%
%ADD65R,0.06706X0.04737*%
%ADD66R,0.06312X0.05524*%
%ADD67R,0.06706X0.06706*%
%ADD68R,0.02769X0.08674*%
%ADD69O,0.02769X0.08674*%
%ADD70R,0.05721X0.04343*%
%ADD71R,0.04343X0.03162*%
%ADD72R,0.04737X0.06706*%
%ADD73R,0.05524X0.06312*%
%ADD74R,0.02769X0.07690*%
%ADD75O,0.02769X0.07690*%
%ADD76O,0.07690X0.02769*%
%ADD77C,0.18517*%
%ADD78R,0.09068X0.09068*%
%ADD79C,0.09068*%
%ADD80R,0.09068X0.09068*%
%ADD81R,0.06902X0.06902*%
%ADD82C,0.06902*%
%ADD83R,0.06902X0.06902*%
%ADD84C,0.06706*%
%ADD85C,0.05524*%
%ADD86R,0.05524X0.05524*%
G04:AMPARAMS|DCode=87|XSize=106.42mil|YSize=126.11mil|CornerRadius=26.61mil|HoleSize=0mil|Usage=FLASHONLY|Rotation=90.000|XOffset=0mil|YOffset=0mil|HoleType=Round|Shape=RoundedRectangle|*
%AMROUNDEDRECTD87*
21,1,0.10642,0.07290,0,0,90.0*
21,1,0.05321,0.12611,0,0,90.0*
1,1,0.05321,0.03645,0.02661*
1,1,0.05321,0.03645,-0.02661*
1,1,0.05321,-0.03645,-0.02661*
1,1,0.05321,-0.03645,0.02661*
%
%ADD87ROUNDEDRECTD87*%
%ADD88R,0.12611X0.10642*%
%ADD89C,0.12611*%
%ADD90C,0.05524*%
%ADD91R,0.05524X0.05524*%
%ADD92C,0.07000*%
%ADD93R,0.06706X0.06706*%
%ADD94C,0.02769*%
%ADD95R,0.03162X0.06706*%
%ADD96R,0.05524X0.04737*%
%ADD97R,0.05524X0.04343*%
%ADD98R,0.05918X0.04343*%
%ADD99R,0.04343X0.05721*%
D10*
X358654Y377000D02*
D03*
D11*
X315346Y363598D02*
D03*
Y370299D02*
D03*
Y377000D02*
D03*
Y383701D02*
D03*
Y390402D02*
D03*
D12*
X261638Y246638D02*
D03*
Y237976D02*
D03*
X286734Y246638D02*
D03*
Y237976D02*
D03*
X311830Y246638D02*
D03*
Y237976D02*
D03*
X336926Y246638D02*
D03*
Y237976D02*
D03*
X362022Y246638D02*
D03*
Y237976D02*
D03*
X387118Y246638D02*
D03*
Y237976D02*
D03*
X412214Y246638D02*
D03*
Y237976D02*
D03*
X241740Y325394D02*
D03*
Y316732D02*
D03*
X437310Y246638D02*
D03*
Y237976D02*
D03*
X344905Y273268D02*
D03*
Y264606D02*
D03*
Y287945D02*
D03*
Y296606D02*
D03*
D13*
X273871Y238213D02*
D03*
Y246087D02*
D03*
X298967Y238213D02*
D03*
Y246087D02*
D03*
X324063Y238213D02*
D03*
Y246087D02*
D03*
X349159Y238213D02*
D03*
Y246087D02*
D03*
X374255Y238213D02*
D03*
Y246087D02*
D03*
X399351Y238213D02*
D03*
Y246087D02*
D03*
X424447Y238213D02*
D03*
Y246087D02*
D03*
X449543Y238213D02*
D03*
Y246087D02*
D03*
X241425Y344685D02*
D03*
Y336811D02*
D03*
X332906Y272606D02*
D03*
Y264732D02*
D03*
Y288606D02*
D03*
Y296480D02*
D03*
D14*
X295756Y364370D02*
D03*
Y383071D02*
D03*
X269000Y387000D02*
D03*
X243335Y279780D02*
D03*
X413386Y286221D02*
D03*
X426378Y381102D02*
D03*
D15*
X307173Y292323D02*
D03*
D16*
X302173D02*
D03*
X297173D02*
D03*
X292173D02*
D03*
X287173D02*
D03*
X282173D02*
D03*
X277173D02*
D03*
X272173D02*
D03*
Y268701D02*
D03*
X277173D02*
D03*
X282173D02*
D03*
X287173D02*
D03*
X292173D02*
D03*
X297173D02*
D03*
X302173D02*
D03*
X307173D02*
D03*
D17*
X320559Y271457D02*
D03*
Y265158D02*
D03*
X322921Y310433D02*
D03*
X322921Y316732D02*
D03*
X261110Y310433D02*
D03*
Y316732D02*
D03*
X373709Y325787D02*
D03*
Y332087D02*
D03*
D18*
X320165Y294291D02*
D03*
Y289173D02*
D03*
D19*
X476630Y270521D02*
D03*
X467969D02*
D03*
X476630Y380394D02*
D03*
X467969D02*
D03*
X476630Y308145D02*
D03*
X467969D02*
D03*
X476630Y343769D02*
D03*
X467969D02*
D03*
D20*
X468205Y253394D02*
D03*
X476079D02*
D03*
X468205Y363266D02*
D03*
X476079D02*
D03*
X468205Y291018D02*
D03*
X476079D02*
D03*
X468205Y326642D02*
D03*
X476079D02*
D03*
D21*
X427000Y347000D02*
D03*
D22*
X423850D02*
D03*
X420701D02*
D03*
X417551D02*
D03*
X414402D02*
D03*
X411252D02*
D03*
X408102D02*
D03*
X404953D02*
D03*
X401803D02*
D03*
X398654D02*
D03*
X395504D02*
D03*
X395504Y298181D02*
D03*
X398654D02*
D03*
X401803D02*
D03*
X404953D02*
D03*
X408102D02*
D03*
X411252D02*
D03*
X414402D02*
D03*
X417551D02*
D03*
X420701D02*
D03*
X423850D02*
D03*
X427000D02*
D03*
D23*
X387630Y338339D02*
D03*
Y335189D02*
D03*
Y332039D02*
D03*
Y328890D02*
D03*
Y325740D02*
D03*
Y322590D02*
D03*
Y319441D02*
D03*
Y316291D02*
D03*
Y313142D02*
D03*
X387630Y309992D02*
D03*
Y306842D02*
D03*
X434874D02*
D03*
Y309992D02*
D03*
Y313142D02*
D03*
Y316291D02*
D03*
Y319441D02*
D03*
Y322590D02*
D03*
Y325740D02*
D03*
Y328890D02*
D03*
Y332039D02*
D03*
Y335189D02*
D03*
Y338339D02*
D03*
D30*
X210717Y440748D02*
D03*
X588669D02*
D03*
Y192717D02*
D03*
X210717D02*
D03*
D31*
X548500Y425000D02*
D03*
X248000Y208500D02*
D03*
X508500Y425000D02*
D03*
X288000Y208500D02*
D03*
X468500Y425000D02*
D03*
X328000Y208500D02*
D03*
X368000D02*
D03*
X428500Y425000D02*
D03*
X408000Y208500D02*
D03*
X388500Y425000D02*
D03*
X448000Y208500D02*
D03*
X348500Y425000D02*
D03*
X488000Y208500D02*
D03*
X308500Y425000D02*
D03*
X528000Y208500D02*
D03*
X268500Y425000D02*
D03*
D32*
X528500D02*
D03*
X226000Y370000D02*
D03*
X268000Y208500D02*
D03*
X488500Y425000D02*
D03*
X308000Y208500D02*
D03*
X448500Y425000D02*
D03*
X348000Y208500D02*
D03*
X388000D02*
D03*
X408500Y425000D02*
D03*
X428000Y208500D02*
D03*
X368500Y425000D02*
D03*
X468000Y208500D02*
D03*
X328500Y425000D02*
D03*
X508000Y208500D02*
D03*
X288500Y425000D02*
D03*
X548000Y208500D02*
D03*
X248500Y425000D02*
D03*
X572500Y264000D02*
D03*
Y304000D02*
D03*
Y344000D02*
D03*
Y384000D02*
D03*
D33*
X226000Y390000D02*
D03*
X572500Y244000D02*
D03*
X572500Y284000D02*
D03*
Y324000D02*
D03*
X572500Y364000D02*
D03*
D34*
X313000Y339000D02*
D03*
D35*
X301189D02*
D03*
X268984Y350590D02*
D03*
D36*
Y338779D02*
D03*
D37*
X269000Y375189D02*
D03*
X243335Y252024D02*
D03*
Y269937D02*
D03*
Y262063D02*
D03*
X423386Y276220D02*
D03*
X413386D02*
D03*
X423386Y286221D02*
D03*
X436378Y361102D02*
D03*
X426378Y361102D02*
D03*
X436378Y371102D02*
D03*
X426378D02*
D03*
X436378Y381102D02*
D03*
X462441Y239764D02*
D03*
X472441D02*
D03*
X482441D02*
D03*
X492441D02*
D03*
X512441D02*
D03*
X502441D02*
D03*
D38*
X342905Y334622D02*
D03*
X350780Y314937D02*
D03*
Y334622D02*
D03*
X358653Y314937D02*
D03*
Y334622D02*
D03*
D39*
X342905Y314937D02*
D03*
D40*
X218913Y348008D02*
D03*
Y329504D02*
D03*
D41*
Y311000D02*
D03*
D42*
X232665Y291866D02*
D03*
Y240134D02*
D03*
D43*
X532500Y273000D02*
D03*
Y253000D02*
D03*
X522500D02*
D03*
Y273000D02*
D03*
X492500Y273000D02*
D03*
X512500Y253000D02*
D03*
Y273000D02*
D03*
X532500Y381500D02*
D03*
Y361500D02*
D03*
X522500D02*
D03*
Y381500D02*
D03*
X492500Y381500D02*
D03*
X512500Y361500D02*
D03*
Y381500D02*
D03*
X532500Y309167D02*
D03*
Y289167D02*
D03*
X522500D02*
D03*
Y309167D02*
D03*
X492500Y309167D02*
D03*
X512500Y289167D02*
D03*
Y309167D02*
D03*
X532500Y345333D02*
D03*
Y325333D02*
D03*
X522500D02*
D03*
Y345333D02*
D03*
X492500Y345333D02*
D03*
X512500Y325333D02*
D03*
Y345333D02*
D03*
D44*
X492500Y253000D02*
D03*
Y361500D02*
D03*
Y289167D02*
D03*
Y325333D02*
D03*
D45*
X300874Y310039D02*
D03*
X281661D02*
D03*
D46*
X522441Y239764D02*
D03*
M02*
